SplineFontDB: 3.2
FontName: PAPERFORYOURASS
FullName: <PAPER FOR YOUR ASS>
FamilyName: <PAPER FOR YOUR ASS>
Weight: Book
Copyright: FREE FRO PERSONAL
Version: 001.000
ItalicAngle: 0
UnderlinePosition: -100
UnderlineWidth: 50
Ascent: 750
Descent: 250
InvalidEm: 0
sfntRevision: 0x00010000
LayerCount: 2
Layer: 0 1 "Back" 1
Layer: 1 1 "Fore" 0
XUID: [1021 166 -279543003 1651653]
StyleMap: 0x0040
FSType: 4
OS2Version: 3
OS2_WeightWidthSlopeOnly: 0
OS2_UseTypoMetrics: 0
CreationTime: 1393504061
ModificationTime: 1596065496
PfmFamily: 17
TTFWeight: 400
TTFWidth: 5
LineGap: 0
VLineGap: 0
Panose: 2 0 0 0 0 0 0 0 0 0
OS2TypoAscent: 750
OS2TypoAOffset: 0
OS2TypoDescent: -250
OS2TypoDOffset: 0
OS2TypoLinegap: 0
OS2WinAscent: 785
OS2WinAOffset: 0
OS2WinDescent: 212
OS2WinDOffset: 0
HheadAscent: 750
HheadAOffset: 0
HheadDescent: -250
HheadDOffset: 0
OS2SubXSize: 700
OS2SubYSize: 650
OS2SubXOff: 0
OS2SubYOff: 140
OS2SupXSize: 700
OS2SupYSize: 650
OS2SupXOff: 0
OS2SupYOff: 477
OS2StrikeYSize: 50
OS2StrikeYPos: 250
OS2CapHeight: 618
OS2XHeight: 500
OS2Vendor: 'PYRS'
OS2CodePages: 00000001.00000000
OS2UnicodeRanges: 00000001.00000000.00000000.00000000
Lookup: 258 0 0 "'kern' Horizontal Kerning in Latin lookup 0" { "'kern' Horizontal Kerning in Latin lookup 0 subtable"  } ['kern' ('latn' <'dflt' > ) ]
DEI: 91125
TtTable: prep
PUSHW_1
 10
CALL
PUSHW_1
 0
CALL
EndTTInstrs
TtTable: fpgm
PUSHW_1
 0
FDEF
MPPEM
PUSHW_1
 9
LT
IF
PUSHB_2
 1
 1
INSTCTRL
EIF
PUSHW_1
 511
SCANCTRL
PUSHW_1
 68
SCVTCI
PUSHW_2
 9
 3
SDS
SDB
ENDF
PUSHW_1
 1
FDEF
DUP
DUP
RCVT
ROUND[Black]
WCVTP
PUSHB_1
 1
ADD
ENDF
PUSHW_1
 2
FDEF
PUSHW_1
 1
LOOPCALL
POP
ENDF
PUSHW_1
 3
FDEF
DUP
GC[cur]
PUSHB_1
 3
CINDEX
GC[cur]
GT
IF
SWAP
EIF
DUP
ROLL
DUP
ROLL
MD[grid]
ABS
ROLL
DUP
GC[cur]
DUP
ROUND[Grey]
SUB
ABS
PUSHB_1
 4
CINDEX
GC[cur]
DUP
ROUND[Grey]
SUB
ABS
GT
IF
SWAP
NEG
ROLL
EIF
MDAP[rnd]
DUP
PUSHB_1
 0
GTEQ
IF
ROUND[Black]
DUP
PUSHB_1
 0
EQ
IF
POP
PUSHB_1
 64
EIF
ELSE
ROUND[Black]
DUP
PUSHB_1
 0
EQ
IF
POP
PUSHB_1
 64
NEG
EIF

StartChar: space
Encoding: 32 32 3
Width: 482
GlyphClass: 2
Flags: W
LayerCount: 2
Fore
SplineSet
474 8 m 0,0,1
 482 9 482 9 488.5 3.5 c 128,-1,2
 495 -2 495 -2 495 -10 c 0,3,4
 496 -18 496 -18 490.5 -24.5 c 128,-1,5
 485 -31 485 -31 477 -32 c 0,6,7
 439 -33 439 -33 396 -34 c 0,8,9
 359 -35 359 -35 312 -35.5 c 128,-1,10
 265 -36 265 -36 214 -36 c 0,11,12
 156 -36 156 -36 100 -36 c 128,-1,13
 44 -36 44 -36 0 -28 c 0,14,15
 -8 -26 -8 -26 -13 -19.5 c 128,-1,16
 -18 -13 -18 -13 -16 -5 c 256,17,18
 -14 3 -14 3 -7.5 8 c 128,-1,19
 -1 13 -1 13 7 11 c 0,20,21
 48 4 48 4 102.5 3.5 c 128,-1,22
 157 3 157 3 214 3 c 0,23,24
 264 3 264 3 310 3.5 c 128,-1,25
 356 4 356 4 393 5 c 0,26,27
 435 6 435 6 474 8 c 0,0,1
486 614 m 0,28,29
 505 614 505 614 507 595 c 0,30,31
 507 587 507 587 501.5 581 c 128,-1,32
 496 575 496 575 488 575 c 2,33,-1
 486 575 l 1,34,-1
 486 571 l 1,35,-1
 477 571 l 1,36,-1
 477 574 l 1,37,38
 406 572 406 572 351.5 571 c 128,-1,39
 297 570 297 570 255.5 570 c 128,-1,40
 214 570 214 570 183 570 c 128,-1,41
 152 570 152 570 127 570 c 0,42,43
 89 570 89 570 59 569 c 128,-1,44
 29 568 29 568 -6 575 c 0,45,46
 -14 577 -14 577 -19 583.5 c 128,-1,47
 -24 590 -24 590 -22 598 c 256,48,49
 -20 606 -20 606 -13.5 611 c 128,-1,50
 -7 616 -7 616 1 614 c 0,51,52
 35 607 35 607 63 608 c 128,-1,53
 91 609 91 609 127 609 c 0,54,55
 152 609 152 609 183.5 609 c 128,-1,56
 215 609 215 609 257.5 609.5 c 128,-1,57
 300 610 300 610 356 611 c 128,-1,58
 412 612 412 612 486 614 c 0,28,29
477 137 m 1,59,-1
 486 137 l 1,60,-1
 486 98 l 1,61,-1
 477 98 l 1,62,-1
 477 137 l 1,59,-1
477 216 m 1,63,-1
 486 216 l 1,64,-1
 486 177 l 1,65,-1
 477 177 l 1,66,-1
 477 216 l 1,63,-1
477 58 m 1,67,-1
 486 58 l 1,68,-1
 486 19 l 1,69,-1
 477 19 l 1,70,-1
 477 58 l 1,67,-1
477 295 m 1,71,-1
 486 295 l 1,72,-1
 486 255 l 1,73,-1
 477 255 l 1,74,-1
 477 295 l 1,71,-1
477 374 m 1,75,-1
 486 374 l 1,76,-1
 486 334 l 1,77,-1
 477 334 l 1,78,-1
 477 374 l 1,75,-1
477 453 m 1,79,-1
 486 453 l 1,80,-1
 486 413 l 1,81,-1
 477 413 l 1,82,-1
 477 453 l 1,79,-1
486 492 m 1,83,-1
 477 492 l 1,84,-1
 477 531 l 1,85,-1
 486 531 l 1,86,-1
 486 492 l 1,83,-1
EndSplineSet
Validated: 33
EndChar

StartChar: zero
Encoding: 48 48 4
Width: 483
GlyphClass: 2
Flags: W
LayerCount: 2
Fore
SplineSet
474 8 m 0,0,1
 482 9 482 9 488.5 3.5 c 128,-1,2
 495 -2 495 -2 495 -10 c 0,3,4
 496 -18 496 -18 490.5 -24.5 c 128,-1,5
 485 -31 485 -31 477 -32 c 0,6,7
 439 -33 439 -33 396 -34 c 0,8,9
 359 -35 359 -35 312 -35.5 c 128,-1,10
 265 -36 265 -36 214 -36 c 0,11,12
 156 -36 156 -36 100 -36 c 128,-1,13
 44 -36 44 -36 0 -28 c 0,14,15
 -8 -26 -8 -26 -13 -19.5 c 128,-1,16
 -18 -13 -18 -13 -16 -5 c 256,17,18
 -14 3 -14 3 -7.5 8 c 128,-1,19
 -1 13 -1 13 7 11 c 0,20,21
 48 4 48 4 102.5 3.5 c 128,-1,22
 157 3 157 3 214 3 c 0,23,24
 264 3 264 3 310 3.5 c 128,-1,25
 356 4 356 4 393 5 c 0,26,27
 435 6 435 6 474 8 c 0,0,1
486 614 m 0,28,29
 505 614 505 614 507 595 c 0,30,31
 507 587 507 587 501.5 581 c 128,-1,32
 496 575 496 575 488 575 c 2,33,-1
 486 575 l 1,34,-1
 486 571 l 1,35,-1
 477 571 l 1,36,-1
 477 574 l 1,37,38
 406 572 406 572 351.5 571 c 128,-1,39
 297 570 297 570 255.5 570 c 128,-1,40
 214 570 214 570 183 570 c 128,-1,41
 152 570 152 570 127 570 c 0,42,43
 89 570 89 570 59 569 c 128,-1,44
 29 568 29 568 -6 575 c 0,45,46
 -14 577 -14 577 -19 583.5 c 128,-1,47
 -24 590 -24 590 -22 598 c 256,48,49
 -20 606 -20 606 -13.5 611 c 128,-1,50
 -7 616 -7 616 1 614 c 0,51,52
 35 607 35 607 63 608 c 128,-1,53
 91 609 91 609 127 609 c 0,54,55
 152 609 152 609 183.5 609 c 128,-1,56
 215 609 215 609 257.5 609.5 c 128,-1,57
 300 610 300 610 356 611 c 128,-1,58
 412 612 412 612 486 614 c 0,28,29
477 137 m 1,59,-1
 486 137 l 1,60,-1
 486 98 l 1,61,-1
 477 98 l 1,62,-1
 477 137 l 1,59,-1
477 216 m 1,63,-1
 486 216 l 1,64,-1
 486 177 l 1,65,-1
 477 177 l 1,66,-1
 477 216 l 1,63,-1
477 58 m 1,67,-1
 486 58 l 1,68,-1
 486 19 l 1,69,-1
 477 19 l 1,70,-1
 477 58 l 1,67,-1
477 295 m 1,71,-1
 486 295 l 1,72,-1
 486 255 l 1,73,-1
 477 255 l 1,74,-1
 477 295 l 1,71,-1
477 374 m 1,75,-1
 486 374 l 1,76,-1
 486 334 l 1,77,-1
 477 334 l 1,78,-1
 477 374 l 1,75,-1
477 453 m 1,79,-1
 486 453 l 1,80,-1
 486 413 l 1,81,-1
 477 413 l 1,82,-1
 477 453 l 1,79,-1
486 492 m 1,83,-1
 477 492 l 1,84,-1
 477 531 l 1,85,-1
 486 531 l 1,86,-1
 486 492 l 1,83,-1
308 496 m 0,87,88
 329 482 329 482 346 457 c 256,89,90
 363 432 363 432 374.5 403 c 128,-1,91
 386 374 386 374 393 342 c 0,92,93
 400 311 400 311 399 284 c 0,94,95
 398 242 398 242 388 202 c 256,96,97
 378 162 378 162 359 130 c 0,98,99
 340 99 340 99 310 80 c 0,100,101
 280 62 280 62 237 62 c 0,102,103
 189 62 189 62 157 88.5 c 128,-1,104
 125 115 125 115 106.5 156.5 c 128,-1,105
 88 198 88 198 83.5 248.5 c 128,-1,106
 79 299 79 299 86 347 c 0,107,108
 93 389 93 389 112 436 c 0,109,110
 129 476 129 476 160 498 c 0,111,112
 163 500 163 500 164 500 c 0,113,114
 165 502 165 502 168 503 c 256,115,116
 171 504 171 504 172 506 c 0,117,118
 173 507 173 507 176 508 c 256,119,120
 179 509 179 509 181.5 510 c 128,-1,121
 184 511 184 511 186 512 c 256,122,123
 188 513 188 513 189 513 c 128,-1,124
 190 513 190 513 192 514 c 0,125,126
 221 522 221 522 253 518 c 0,127,128
 285 513 285 513 308 496 c 0,87,88
232 92 m 0,129,130
 277 91 277 91 314 118 c 0,131,132
 340 138 340 138 353 198 c 0,133,134
 365 255 365 255 360 310 c 0,135,136
 352 390 352 390 336 416 c 0,137,138
 324 436 324 436 304 454 c 256,139,140
 284 472 284 472 261 482 c 1,141,142
 256 478 256 478 250 480 c 0,143,144
 209 496 209 496 178 474 c 0,145,146
 148 451 148 451 133 408 c 0,147,148
 120 371 120 371 114 310 c 0,149,150
 109 264 109 264 121 208 c 0,151,152
 133 151 133 151 156 126 c 0,153,154
 183 93 183 93 232 92 c 0,129,130
EndSplineSet
Validated: 33
EndChar

StartChar: one
Encoding: 49 49 5
Width: 479
GlyphClass: 2
Flags: W
LayerCount: 2
Fore
SplineSet
225 423 m 2,0,1
 225 456 225 456 207 443 c 0,2,3
 190 429 190 429 188 449 c 0,4,5
 186 466 186 466 198 478 c 2,6,7
 198 478 198 478 210 492 c 0,8,9
 220 502 220 502 224 502 c 0,10,11
 253 502 253 502 254 476 c 128,-1,12
 255 450 255 450 255 423 c 2,13,-1
 255 75 l 2,14,15
 255 68 255 68 250.5 64.5 c 128,-1,16
 246 61 246 61 240 61 c 128,-1,17
 234 61 234 61 229.5 64.5 c 128,-1,18
 225 68 225 68 225 75 c 2,19,-1
 225 423 l 2,0,1
472 8 m 0,20,21
 480 9 480 9 486 3.5 c 128,-1,22
 492 -2 492 -2 494 -10 c 0,23,24
 495 -18 495 -18 489.5 -24 c 128,-1,25
 484 -30 484 -30 476 -31 c 0,26,27
 447 -34 447 -34 414 -37 c 0,28,29
 385 -39 385 -39 347 -40.5 c 128,-1,30
 309 -42 309 -42 267 -42 c 2,31,-1
 263 -42 l 2,32,33
 200 -42 200 -42 136.5 -37 c 128,-1,34
 73 -32 73 -32 23 -32 c 0,35,36
 18 -32 18 -32 12.5 -32 c 128,-1,37
 7 -32 7 -32 2 -33 c 0,38,39
 -6 -33 -6 -33 -12 -27.5 c 128,-1,40
 -18 -22 -18 -22 -18 -14 c 0,41,42
 -19 -6 -19 -6 -13.5 0 c 128,-1,43
 -8 6 -8 6 0 7 c 2,44,-1
 23 7 l 2,45,46
 75 7 75 7 139 2 c 128,-1,47
 203 -3 203 -3 263 -3 c 2,48,-1
 267 -3 l 2,49,50
 309 -3 309 -3 346 -1.5 c 128,-1,51
 383 0 383 0 411 2 c 0,52,53
 444 5 444 5 472 8 c 0,20,21
485 614 m 0,54,55
 493 614 493 614 499 608.5 c 128,-1,56
 505 603 505 603 505 595 c 0,57,58
 505 576 505 576 486 574 c 2,59,-1
 485 574 l 1,60,-1
 475 574 l 2,61,62
 424 572 424 572 382 572 c 128,-1,63
 340 572 340 572 305 572 c 0,64,65
 256 572 256 572 220 573 c 128,-1,66
 184 574 184 574 156.5 574.5 c 128,-1,67
 129 575 129 575 106.5 576 c 128,-1,68
 84 577 84 577 63 577 c 0,69,70
 48 577 48 577 32 576.5 c 128,-1,71
 16 576 16 576 -3 575 c 0,72,73
 -11 574 -11 574 -17 579.5 c 128,-1,74
 -23 585 -23 585 -24 593 c 256,75,76
 -25 601 -25 601 -19.5 607 c 128,-1,77
 -14 613 -14 613 -6 614 c 0,78,79
 33 617 33 617 63 617 c 0,80,81
 85 617 85 617 107.5 616 c 128,-1,82
 130 615 130 615 158 614 c 128,-1,83
 186 613 186 613 221.5 612 c 128,-1,84
 257 611 257 611 305 611 c 0,85,86
 341 611 341 611 385 611.5 c 128,-1,87
 429 612 429 612 485 614 c 0,54,55
475 298 m 1,88,-1
 485 298 l 1,89,-1
 485 259 l 1,90,-1
 475 259 l 1,91,-1
 475 298 l 1,88,-1
475 140 m 1,92,-1
 485 140 l 1,93,-1
 485 101 l 1,94,-1
 475 101 l 1,95,-1
 475 140 l 1,92,-1
475 62 m 1,96,-1
 485 62 l 1,97,-1
 485 22 l 1,98,-1
 475 22 l 1,99,-1
 475 62 l 1,96,-1
475 377 m 1,100,-1
 485 377 l 1,101,-1
 485 338 l 1,102,-1
 475 338 l 1,103,-1
 475 377 l 1,100,-1
485 495 m 1,104,-1
 475 495 l 1,105,-1
 475 535 l 1,106,-1
 485 535 l 1,107,-1
 485 495 l 1,104,-1
475 219 m 1,108,-1
 485 219 l 1,109,-1
 485 180 l 1,110,-1
 475 180 l 1,111,-1
 475 219 l 1,108,-1
475 456 m 1,112,-1
 485 456 l 1,113,-1
 485 416 l 1,114,-1
 475 416 l 1,115,-1
 475 456 l 1,112,-1
EndSplineSet
Validated: 1
EndChar

StartChar: two
Encoding: 50 50 6
Width: 481
GlyphClass: 2
Flags: W
LayerCount: 2
Fore
SplineSet
193 245 m 1,0,1
 127 212 l 0,2,3
 85 185 85 185 72.5 143.87890625 c 0,4,5
 65 118 65 118 68 94 c 0,6,-1
 73 73 l 0,7,8
 81.8632202148 57.2431640625 81.8632202148 57.2431640625 106 57.2431640625 c 2,9,-1
 326 57.2431640625 l 2,10,11
 334 57.2431640625 l 0,12,13
 357 57 357 57 362 63 c 0,14,15
 396 115 396 115 373.25 113.375 c 0,16,17
 366 113 366 113 359 112 c 1,18,19
 352 108 352 108 352 103 c 0,20,21
 351 91 351 91 330 88 c 0,22,-1
 190.987304688 87.7490234375 l 0,23,24
 161 87 161 87 119 90.5 c 0,25,26
 103 92 103 92 102 110 c 0,27,28
 99 160 99 160 147 184 c 0,29,-1
 208 214 l 0,30,-1
 314 267 l 0,31,32
 340 279 340 279 343 281.25 c 0,33,34
 357 291 357 291 366.5 299.5 c 0,35,36
 392 321 392 321 400.5 346 c 0,37,38
 410 374 410 374 391 416 c 0,39,40
 375 453 375 453 343.5 476.5 c 128,-1,41
 312 500 312 500 274.5 509 c 128,-1,42
 237 518 237 518 198 511.5 c 128,-1,43
 159 505 159 505 126 483 c 0,44,45
 106 469 106 469 93.5 448 c 128,-1,46
 81 427 81 427 79.5 405 c 128,-1,47
 78 383 78 383 89.5 365 c 128,-1,48
 101 347 101 347 129 339 c 0,49,50
 136 337 136 337 140.5 340.5 c 128,-1,51
 145 344 145 344 146.5 349.5 c 128,-1,52
 148 355 148 355 146 360.5 c 128,-1,53
 144 366 144 366 137 368 c 0,54,55
 113 374 113 374 109.5 389 c 128,-1,56
 106 404 106 404 112.5 419.5 c 128,-1,57
 119 435 119 435 132 448.5 c 128,-1,58
 145 462 145 462 155 467 c 0,59,60
 211 493 211 493 275 477 c 0,61,62
 287 474 287 474 302 464.5 c 128,-1,63
 317 455 317 455 331 441 c 128,-1,64
 345 427 345 427 355.5 410.5 c 128,-1,65
 366 394 366 394 369 377 c 0,66,67
 372 354 372 354 365 343.5 c 0,68,69
 354 328 354 328 337 315 c 0,70,71
 323.286396181 304.451073986 323.286396181 304.451073986 296 292 c 2,72,-1
 193 245 l 1,0,1
473 11 m 0,73,74
 481 11 481 11 487 5 c 128,-1,75
 493 -1 493 -1 493 -9 c 256,76,77
 493 -17 493 -17 487 -23 c 128,-1,78
 481 -29 481 -29 473 -29 c 2,79,80
 473 -29 473 -29 452 -28.5 c 128,-1,81
 431 -28 431 -28 397 -28 c 128,-1,82
 363 -28 363 -28 318.5 -27.5 c 128,-1,83
 274 -27 274 -27 226 -27 c 0,84,85
 165 -27 165 -27 105.5 -27.5 c 128,-1,86
 46 -28 46 -28 1 -30 c 2,87,-1
 0 -30 l 2,88,89
 -8 -30 -8 -30 -13.5 -24.5 c 128,-1,90
 -19 -19 -19 -19 -19 -11 c 0,91,92
 -20 -3 -20 -3 -14 3 c 128,-1,93
 -8 9 -8 9 0 10 c 0,94,95
 45 12 45 12 105 12.5 c 128,-1,96
 165 13 165 13 226 13 c 0,97,98
 274 13 274 13 318 12.5 c 128,-1,99
 362 12 362 12 397 12 c 0,100,101
 437 11 437 11 473 11 c 0,73,74
484 617 m 0,102,103
 492 617 492 617 498 611.5 c 128,-1,104
 504 606 504 606 504 598 c 256,105,106
 504 590 504 590 498.5 584 c 128,-1,107
 493 578 493 578 485 578 c 0,108,109
 484 578 484 578 484 577 c 2,110,-1
 474 577 l 2,111,112
 403 575 403 575 348.5 573.5 c 128,-1,113
 294 572 294 572 252.5 571.5 c 128,-1,114
 211 571 211 571 180 570.5 c 128,-1,115
 149 570 149 570 124 570 c 0,116,117
 86 570 86 570 56.5 570.5 c 128,-1,118
 27 571 27 571 -9 578 c 0,119,120
 -17 580 -17 580 -22 586.5 c 128,-1,121
 -27 593 -27 593 -25 601 c 256,122,123
 -23 609 -23 609 -16.5 614 c 128,-1,124
 -10 619 -10 619 -2 617 c 0,125,126
 33 611 33 611 60.5 610.5 c 128,-1,127
 88 610 88 610 124 610 c 0,128,129
 149 610 149 610 180.5 610 c 128,-1,130
 212 610 212 610 254.5 611 c 128,-1,131
 297 612 297 612 353.5 613.5 c 128,-1,132
 410 615 410 615 484 617 c 0,102,103
474 380 m 1,133,-1
 484 380 l 1,134,-1
 484 341 l 1,135,-1
 474 341 l 1,136,-1
 474 380 l 1,133,-1
474 65 m 1,137,-1
 484 65 l 1,138,-1
 484 25 l 1,139,-1
 474 25 l 1,140,-1
 474 65 l 1,137,-1
474 143 m 1,141,-1
 484 143 l 1,142,-1
 484 104 l 1,143,-1
 474 104 l 1,144,-1
 474 143 l 1,141,-1
474 459 m 1,145,-1
 484 459 l 1,146,-1
 484 419 l 1,147,-1
 474 419 l 1,148,-1
 474 459 l 1,145,-1
474 301 m 1,149,-1
 484 301 l 1,150,-1
 484 262 l 1,151,-1
 474 262 l 1,152,-1
 474 301 l 1,149,-1
474 222 m 1,153,-1
 484 222 l 1,154,-1
 484 183 l 1,155,-1
 474 183 l 1,156,-1
 474 222 l 1,153,-1
484 498 m 1,157,-1
 474 498 l 1,158,-1
 474 538 l 1,159,-1
 484 538 l 1,160,-1
 484 498 l 1,157,-1
EndSplineSet
Validated: 524329
EndChar

StartChar: three
Encoding: 51 51 7
Width: 479
GlyphClass: 2
Flags: W
LayerCount: 2
Fore
SplineSet
100 93 m 24,0,1
 151 89 151 89 157 89 c 0,2,3
 189 88 189 88 222 90 c 128,-1,4
 255 92 255 92 286.5 97 c 128,-1,5
 318 102 318 102 342.5 114 c 128,-1,6
 367 126 367 126 381 147.5 c 128,-1,7
 395 169 395 169 394 203 c 0,8,9
 393 239 393 239 381 263 c 128,-1,10
 369 287 369 287 349.5 299.5 c 128,-1,11
 330 312 330 312 304.5 318 c 0,12,13
 271 326 271 326 251 326 c 2,14,-1
 226 326 l 2,15,-1
 202 325 l 0,16,17
 197 351 197 351 202 356 c 0,18,19
 216 357 l 0,20,-1
 240 357 l 2,21,-1
 241 357 l 2,22,23
 258 357 258 357 281 371.5 c 0,24,25
 299 383 299 383 303 407 c 0,26,27
 308 431 308 431 300.5 451.5 c 128,-1,28
 293 472 293 472 260.25 480 c 0,29,30
 222 489 222 489 129 468 c 0,31,32
 107 463 107 463 104 470 c 0,33,-1
 99.125 483 l 0,34,-1
 98 486 l 0,35,36
 98 495 98 495 107.502929688 498.344726562 c 0,37,38
 124 504 124 504 218.5 518.5 c 0,39,40
 242 522 242 522 272.727123181 512.09095894 c 0,41,42
 303 502 303 502 320 477 c 0,43,44
 331 460 331 460 334.5 442.5 c 128,-1,45
 338 425 338 425 334.5 408.5 c 128,-1,46
 331 392 331 392 321.5 377 c 128,-1,47
 312 362 312 362 299 351 c 1,48,49
 326 346 326 346 349.5 336 c 128,-1,50
 373 326 373 326 390 309 c 128,-1,51
 407 292 407 292 416 266 c 128,-1,52
 425 240 425 240 424 203 c 0,53,54
 422 160 422 160 405 133 c 128,-1,55
 388 106 388 106 361 90.5 c 128,-1,56
 334 75 334 75 299 69 c 0,57,58
 260 63 260 63 227.5 62 c 0,59,60
 162 62 162 62 141.572265625 61.1396484375 c 0,61,62
 101 59 101 59 94 76 c 0,63,-1
 100 93 l 24,0,1
473 11 m 0,64,65
 481 11 481 11 487 5 c 128,-1,66
 493 -1 493 -1 493 -9 c 256,67,68
 493 -17 493 -17 487 -23 c 128,-1,69
 481 -29 481 -29 473 -29 c 2,70,71
 473 -29 473 -29 452 -28.5 c 128,-1,72
 431 -28 431 -28 397 -28 c 128,-1,73
 363 -28 363 -28 318.5 -27.5 c 128,-1,74
 274 -27 274 -27 226 -27 c 0,75,76
 165 -27 165 -27 105.5 -27.5 c 128,-1,77
 46 -28 46 -28 1 -30 c 2,78,-1
 0 -30 l 2,79,80
 -8 -30 -8 -30 -13.5 -24.5 c 128,-1,81
 -19 -19 -19 -19 -19 -11 c 0,82,83
 -20 -3 -20 -3 -14 3 c 128,-1,84
 -8 9 -8 9 0 10 c 0,85,86
 45 12 45 12 105 12.5 c 128,-1,87
 165 13 165 13 226 13 c 0,88,89
 274 13 274 13 318 12.5 c 128,-1,90
 362 12 362 12 397 12 c 0,91,92
 437 11 437 11 473 11 c 0,64,65
  Spiro
    473 11 o
    480.5 9.5 o
    487 5 o
    491.5 -1.5 o
    493 -9 o
    491.5 -16.5 o
    487 -23 o
    480.5 -27.5 o
    473 -29 [
    452 -28.5 o
    427.75 -28.125 o
    397 -28 o
    360.375 -27.875 o
    318.5 -27.5 o
    273.125 -27.125 o
    226 -27 o
    165.375 -27.125 o
    105.5 -27.5 o
    49.625 -28.375 o
    1 -30 [
    0 -30 ]
    -7.375 -28.625 o
    -13.5 -24.5 o
    -17.625 -18.375 o
    -19 -11 o
    -18.25 -3.5 o
    -14 3 o
    -7.5 7.75 o
    0 10 o
    48.75 11.625 o
    105 12.5 o
    165.25 12.875 o
    226 13 o
    273 12.875 o
    318 12.5 o
    359.75 12.125 o
    397 12 o
    436 11.25 o
    0 0 z
  EndSpiro
484 617 m 0,93,94
 492 617 492 617 498 611.5 c 128,-1,95
 504 606 504 606 504 598 c 256,96,97
 504 590 504 590 498.5 584 c 128,-1,98
 493 578 493 578 485 578 c 0,99,100
 484 578 484 578 484 577 c 2,101,-1
 474 577 l 2,102,103
 403 575 403 575 348.5 573.5 c 128,-1,104
 294 572 294 572 252.5 571.5 c 128,-1,105
 211 571 211 571 180 570.5 c 128,-1,106
 149 570 149 570 124 570 c 0,107,108
 86 570 86 570 56.5 570.5 c 128,-1,109
 27 571 27 571 -9 578 c 0,110,111
 -17 580 -17 580 -22 586.5 c 128,-1,112
 -27 593 -27 593 -25 601 c 256,113,114
 -23 609 -23 609 -16.5 614 c 128,-1,115
 -10 619 -10 619 -2 617 c 0,116,117
 33 611 33 611 60.5 610.5 c 128,-1,118
 88 610 88 610 124 610 c 0,119,120
 149 610 149 610 180.5 610 c 128,-1,121
 212 610 212 610 254.5 611 c 128,-1,122
 297 612 297 612 353.5 613.5 c 128,-1,123
 410 615 410 615 484 617 c 0,93,94
  Spiro
    484 617 o
    491.5 615.625 o
    498 611.5 o
    502.5 605.375 o
    504 598 o
    502.625 590.5 o
    498.5 584 o
    492.375 579.5 o
    485 578 o
    484.25 577.75 o
    484 577 [
    474 577 ]
    407.125 575.125 o
    348.5 573.5 o
    297.25 572.25 o
    252.5 571.5 o
    213.625 571 o
    180 570.5 o
    150.5 570.125 o
    124 570 o
    88.125 570.125 o
    56.5 570.5 o
    25.375 572.625 o
    -9 578 o
    -16.25 581.125 o
    -22 586.5 o
    -25.25 593.375 o
    -25 601 o
    -21.875 608.25 o
    -16.5 614 o
    -9.625 617.25 o
    -2 617 o
    31.125 612.375 o
    60.5 610.5 o
    90.125 610.125 o
    124 610 o
    180.5 610 o
    214.75 610.25 o
    254.5 611 o
    300.5 612.125 o
    353.5 613.5 o
    414.375 615.125 o
    0 0 z
  EndSpiro
474 380 m 1,124,-1
 484 380 l 1,125,-1
 484 341 l 1,126,-1
 474 341 l 1,127,-1
 474 380 l 1,124,-1
  Spiro
    474 380 v
    484 380 v
    484 341 v
    474 341 v
    0 0 z
  EndSpiro
474 65 m 1,128,-1
 484 65 l 1,129,-1
 484 25 l 1,130,-1
 474 25 l 1,131,-1
 474 65 l 1,128,-1
  Spiro
    474 65 v
    484 65 v
    484 25 v
    474 25 v
    0 0 z
  EndSpiro
474 143 m 1,132,-1
 484 143 l 1,133,-1
 484 104 l 1,134,-1
 474 104 l 1,135,-1
 474 143 l 1,132,-1
  Spiro
    474 143 v
    484 143 v
    484 104 v
    474 104 v
    0 0 z
  EndSpiro
474 459 m 1,136,-1
 484 459 l 1,137,-1
 484 419 l 1,138,-1
 474 419 l 1,139,-1
 474 459 l 1,136,-1
  Spiro
    474 459 v
    484 459 v
    484 419 v
    474 419 v
    0 0 z
  EndSpiro
474 301 m 1,140,-1
 484 301 l 1,141,-1
 484 262 l 1,142,-1
 474 262 l 1,143,-1
 474 301 l 1,140,-1
  Spiro
    474 301 v
    484 301 v
    484 262 v
    474 262 v
    0 0 z
  EndSpiro
474 222 m 1,144,-1
 484 222 l 1,145,-1
 484 183 l 1,146,-1
 474 183 l 1,147,-1
 474 222 l 1,144,-1
  Spiro
    474 222 v
    484 222 v
    484 183 v
    474 183 v
    0 0 z
  EndSpiro
484 498 m 1,148,-1
 474 498 l 1,149,-1
 474 538 l 1,150,-1
 484 538 l 1,151,-1
 484 498 l 1,148,-1
  Spiro
    484 498 v
    474 498 v
    474 538 v
    484 538 v
    0 0 z
  EndSpiro
EndSplineSet
Validated: 524321
EndChar

StartChar: four
Encoding: 52 52 8
Width: 482
GlyphClass: 2
Flags: W
LayerCount: 2
Fore
SplineSet
384 224 m 0,0,-1
 384 216 l 0,1,-1
 383 74 l 2,2,3
 383 68 383 68 378.421875 63.4384765625 c 0,4,5
 374 60 374 60 368 60 c 128,-1,6
 362 60 362 60 358.081054688 63.599609375 c 0,7,8
 352.986328125 67.0087890625 352.986328125 67.0087890625 353 74 c 2,9,-1
 353.286132812 223 l 0,10,11
 217 220 217 220 200.284179688 221.4765625 c 0,12,13
 186 223 186 223 153 225 c 0,14,15
 103 228 103 228 98 361 c 0,16,17
 97 389 97 389 98.544921875 451.833007812 c 0,18,19
 100 490 100 490 122 478.5 c 0,20,21
 132 473 132 473 131.5 433 c 24,22,23
 130 361 130 361 131 357 c 0,24,25
 133 275 133 275 147.5 263 c 0,26,27
 152 259 152 259 215.142578125 256 c 0,28,29
 234 255 234 255 282 254 c 0,30,31
 353 253 353 253 353.286132812 255 c 1,32,-1
 353 480 l 0,33,-1
 357 498 l 0,34,35
 366 499 366 499 383 501.5 c 0,36,-1
 386 484 l 2,37,-1
 383.869140625 255.16796875 l 0,38,39
 422 255 422 255 421 239 c 0,40,-1
 421 229 l 0,41,42
 416 224 416 224 384 224 c 0,0,-1
474 8 m 0,43,44
 482 9 482 9 488.5 3.5 c 128,-1,45
 495 -2 495 -2 495 -10 c 0,46,47
 496 -18 496 -18 490.5 -24.5 c 128,-1,48
 485 -31 485 -31 477 -32 c 0,49,50
 439 -33 439 -33 396 -34 c 0,51,52
 359 -35 359 -35 312 -35.5 c 128,-1,53
 265 -36 265 -36 214 -36 c 0,54,55
 156 -36 156 -36 100 -36 c 128,-1,56
 44 -36 44 -36 0 -28 c 0,57,58
 -8 -26 -8 -26 -13 -19.5 c 128,-1,59
 -18 -13 -18 -13 -16 -5 c 256,60,61
 -14 3 -14 3 -7.5 8 c 128,-1,62
 -1 13 -1 13 7 11 c 0,63,64
 48 4 48 4 102.5 3.5 c 128,-1,65
 157 3 157 3 214 3 c 0,66,67
 264 3 264 3 310 3.5 c 128,-1,68
 356 4 356 4 393 5 c 0,69,70
 435 6 435 6 474 8 c 0,43,44
486 614 m 0,71,72
 505 614 505 614 507 595 c 0,73,74
 507 587 507 587 501.5 581 c 128,-1,75
 496 575 496 575 488 575 c 2,76,-1
 486 575 l 1,77,-1
 486 571 l 1,78,-1
 477 571 l 1,79,-1
 477 574 l 1,80,81
 406 572 406 572 351.5 571 c 128,-1,82
 297 570 297 570 255.5 570 c 128,-1,83
 214 570 214 570 183 570 c 128,-1,84
 152 570 152 570 127 570 c 0,85,86
 89 570 89 570 59 569 c 128,-1,87
 29 568 29 568 -6 575 c 0,88,89
 -14 577 -14 577 -19 583.5 c 128,-1,90
 -24 590 -24 590 -22 598 c 256,91,92
 -20 606 -20 606 -13.5 611 c 128,-1,93
 -7 616 -7 616 1 614 c 0,94,95
 35 607 35 607 63 608 c 128,-1,96
 91 609 91 609 127 609 c 0,97,98
 152 609 152 609 183.5 609 c 128,-1,99
 215 609 215 609 257.5 609.5 c 128,-1,100
 300 610 300 610 356 611 c 128,-1,101
 412 612 412 612 486 614 c 0,71,72
477 137 m 1,102,-1
 486 137 l 1,103,-1
 486 98 l 1,104,-1
 477 98 l 1,105,-1
 477 137 l 1,102,-1
477 216 m 1,106,-1
 486 216 l 1,107,-1
 486 177 l 1,108,-1
 477 177 l 1,109,-1
 477 216 l 1,106,-1
477 58 m 1,110,-1
 486 58 l 1,111,-1
 486 19 l 1,112,-1
 477 19 l 1,113,-1
 477 58 l 1,110,-1
477 295 m 1,114,-1
 486 295 l 1,115,-1
 486 255 l 1,116,-1
 477 255 l 1,117,-1
 477 295 l 1,114,-1
477 374 m 1,118,-1
 486 374 l 1,119,-1
 486 334 l 1,120,-1
 477 334 l 1,121,-1
 477 374 l 1,118,-1
477 453 m 1,122,-1
 486 453 l 1,123,-1
 486 413 l 1,124,-1
 477 413 l 1,125,-1
 477 453 l 1,122,-1
486 492 m 1,126,-1
 477 492 l 1,127,-1
 477 531 l 1,128,-1
 486 531 l 1,129,-1
 486 492 l 1,126,-1
EndSplineSet
Validated: 524321
EndChar

StartChar: five
Encoding: 53 53 9
Width: 481
GlyphClass: 2
Flags: W
LayerCount: 2
Fore
SplineSet
345.5 512 m 0,0,1
 339 520 339 520 177.5 511.5 c 0,2,3
 147 510 147 510 115 512 c 128,-1,4
 83 514 83 514 85 416 c 0,5,6
 86 370 86 370 84.205078125 324.461914062 c 0,7,8
 82 252 82 252 119 255.666992188 c 0,9,10
 201 262 201 262 203 262 c 0,11,12
 299 269 l 0,13,-1
 331 261.666992188 l 0,14,15
 340 257 340 257 365.5 213.5 c 0,16,17
 371 204 371 204 372 193.5 c 0,18,19
 375 175 375 175 371 158 c 0,20,21
 368 144 368 144 348 124.5 c 0,22,23
 332 109 332 109 314 103 c 0,24,25
 292 95 292 95 261 91 c 128,-1,26
 230 87 230 87 201 89.5 c 128,-1,27
 172 92 172 92 149 103.5 c 128,-1,28
 126 115 126 115 120 139 c 1,29,30
 123 139 123 139 116.5 140 c 128,-1,31
 110 141 110 141 104 138 c 128,-1,32
 98 135 98 135 96.5 126.5 c 128,-1,33
 95 118 95 118 108 98 c 0,34,35
 118 82 118 82 138.5 73 c 128,-1,36
 159 64 159 64 185 60.5 c 128,-1,37
 211 57 211 57 239 58.5 c 128,-1,38
 267 60 267 60 293 65.5 c 128,-1,39
 319 71 319 71 340.5 80.5 c 128,-1,40
 362 90 362 90 373 102 c 0,41,42
 396 127 396 127 398.5 145 c 0,43,44
 399 149 399 149 400.5 189.5 c 0,45,46
 401 220 401 220 394.5 231.166503906 c 0,47,-1
 383 264 l 0,48,49
 371 281 371 281 317.579101562 304.731445312 c 0,50,-1
 274 306 l 0,51,52
 189 299 189 299 177.5 299.255859375 c 0,53,54
 138 300 138 300 134 303 c 4,55,56
 125 311 125 311 118.357421875 341.755859375 c 0,57,58
 117 348 117 348 117.5 364.255859375 c 0,59,60
 117 398 117 398 116.5 432.5 c 0,61,62
 116 480 116 480 137.528147631 479.176560883 c 0,63,64
 151 479 151 479 169 480.5 c 0,65,66
 214 483 214 483 289 481 c 0,67,-1
 314 481 l 0,68,69
 332 440 332 440 345 442 c 0,70,71
 394 453 394 453 345.5 512 c 0,0,1
473 11 m 0,72,73
 481 11 481 11 487 5 c 128,-1,74
 493 -1 493 -1 493 -9 c 256,75,76
 493 -17 493 -17 487 -23 c 128,-1,77
 481 -29 481 -29 473 -29 c 2,78,79
 473 -29 473 -29 452 -28.5 c 128,-1,80
 431 -28 431 -28 397 -28 c 128,-1,81
 363 -28 363 -28 318.5 -27.5 c 128,-1,82
 274 -27 274 -27 226 -27 c 0,83,84
 165 -27 165 -27 105.5 -27.5 c 128,-1,85
 46 -28 46 -28 1 -30 c 2,86,-1
 0 -30 l 2,87,88
 -8 -30 -8 -30 -13.5 -24.5 c 128,-1,89
 -19 -19 -19 -19 -19 -11 c 0,90,91
 -20 -3 -20 -3 -14 3 c 128,-1,92
 -8 9 -8 9 0 10 c 0,93,94
 45 12 45 12 105 12.5 c 128,-1,95
 165 13 165 13 226 13 c 0,96,97
 274 13 274 13 318 12.5 c 128,-1,98
 362 12 362 12 397 12 c 0,99,100
 437 11 437 11 473 11 c 0,72,73
484 617 m 0,101,102
 492 617 492 617 498 611.5 c 128,-1,103
 504 606 504 606 504 598 c 256,104,105
 504 590 504 590 498.5 584 c 128,-1,106
 493 578 493 578 485 578 c 0,107,108
 484 578 484 578 484 577 c 2,109,-1
 474 577 l 2,110,111
 403 575 403 575 348.5 573.5 c 128,-1,112
 294 572 294 572 252.5 571.5 c 128,-1,113
 211 571 211 571 180 570.5 c 128,-1,114
 149 570 149 570 124 570 c 0,115,116
 86 570 86 570 56.5 570.5 c 128,-1,117
 27 571 27 571 -9 578 c 0,118,119
 -17 580 -17 580 -22 586.5 c 128,-1,120
 -27 593 -27 593 -25 601 c 256,121,122
 -23 609 -23 609 -16.5 614 c 128,-1,123
 -10 619 -10 619 -2 617 c 0,124,125
 33 611 33 611 60.5 610.5 c 128,-1,126
 88 610 88 610 124 610 c 0,127,128
 149 610 149 610 180.5 610 c 128,-1,129
 212 610 212 610 254.5 611 c 128,-1,130
 297 612 297 612 353.5 613.5 c 128,-1,131
 410 615 410 615 484 617 c 0,101,102
474 380 m 1,132,-1
 484 380 l 1,133,-1
 484 341 l 1,134,-1
 474 341 l 1,135,-1
 474 380 l 1,132,-1
474 65 m 1,136,-1
 484 65 l 1,137,-1
 484 25 l 1,138,-1
 474 25 l 1,139,-1
 474 65 l 1,136,-1
474 143 m 1,140,-1
 484 143 l 1,141,-1
 484 104 l 1,142,-1
 474 104 l 1,143,-1
 474 143 l 1,140,-1
474 459 m 1,144,-1
 484 459 l 1,145,-1
 484 419 l 1,146,-1
 474 419 l 1,147,-1
 474 459 l 1,144,-1
474 301 m 1,148,-1
 484 301 l 1,149,-1
 484 262 l 1,150,-1
 474 262 l 1,151,-1
 474 301 l 1,148,-1
474 222 m 1,152,-1
 484 222 l 1,153,-1
 484 183 l 1,154,-1
 474 183 l 1,155,-1
 474 222 l 1,152,-1
484 498 m 1,156,-1
 474 498 l 1,157,-1
 474 538 l 1,158,-1
 484 538 l 1,159,-1
 484 498 l 1,156,-1
EndSplineSet
Validated: 524329
EndChar

StartChar: six
Encoding: 54 54 10
Width: 479
GlyphClass: 2
Flags: W
LayerCount: 2
Fore
SplineSet
353 391.5 m 0,0,1
 356 384 356 384 361.5 383 c 128,-1,2
 367 382 367 382 372.5 384.5 c 0,3,4
 378 388 378 388 380.5 393 c 128,-1,5
 383 398 383 398 380 405.5 c 0,6,7
 361 448 361 448 328 477 c 128,-1,8
 295 506 295 506 270.5 513 c 0,9,10
 248 519 248 519 219.5 511.5 c 0,11,12
 178 500 178 500 155 474.5 c 0,13,14
 150 469 150 469 145.221679688 464 c 0,15,16
 106 419 106 419 93.5 386 c 0,17,18
 78 345 78 345 79 278 c 0,19,20
 80 231 80 231 103 173.5 c 0,21,22
 127 116 127 116 140 103.5 c 0,23,24
 181 65 181 65 218 64 c 0,25,26
 286 63 286 63 298 65.5 c 0,27,28
 318 69 318 69 350.5 103 c 0,29,30
 383 136 383 136 393 175.5 c 0,31,32
 398 194 398 194 394.5 214.5 c 0,33,34
 391 234 391 234 380.5 252.5 c 0,35,36
 365 277 365 277 359 285 c 0,37,38
 348 299 348 299 337 304.5 c 0,39,40
 287 331 287 331 237.5 323.5 c 0,41,42
 173 314 173 314 133 285.5 c 0,43,44
 127 281 127 281 126.5 275.5 c 0,45,46
 126 269 126 269 128.5 265 c 128,-1,47
 131 261 131 261 136.5 258.5 c 0,48,49
 142 257 142 257 148 260.5 c 0,50,51
 174 275 174 275 201 284.5 c 0,52,53
 222 292 222 292 254 295.5 c 0,54,55
 266 297 266 297 306 288.5 c 0,56,57
 313 287 313 287 334 262.5 c 0,58,59
 359 234 359 234 363.5 208 c 128,-1,60
 368 182 368 182 349 151.5 c 0,61,62
 324 109 324 109 302.5 100.5 c 0,63,64
 265 86 265 86 226 92 c 0,65,66
 190 98 190 98 169 120.5 c 0,67,68
 163 127 163 127 157.89427784 136 c 0,69,-1
 133 182.5 l 0,70,71
 116 219 116 219 112.5 261 c 128,-1,72
 109 303 109 303 118.5 344 c 128,-1,73
 128 385 128 385 152.5 416.5 c 128,-1,74
 177 448 177 448 196 466 c 128,-1,75
 215 484 215 484 244.5 483.5 c 0,76,77
 276 483 276 483 285.5 478.5 c 128,-1,78
 295 474 295 474 317 449 c 128,-1,79
 339 424 339 424 353 391.5 c 0,0,1
473 11 m 0,80,81
 481 11 481 11 487 5 c 128,-1,82
 493 -1 493 -1 493 -9 c 256,83,84
 493 -17 493 -17 487 -23 c 128,-1,85
 481 -29 481 -29 473 -29 c 2,86,87
 473 -29 473 -29 452 -28.5 c 128,-1,88
 431 -28 431 -28 397 -28 c 128,-1,89
 363 -28 363 -28 318.5 -27.5 c 128,-1,90
 274 -27 274 -27 226 -27 c 0,91,92
 165 -27 165 -27 105.5 -27.5 c 128,-1,93
 46 -28 46 -28 1 -30 c 2,94,-1
 0 -30 l 2,95,96
 -8 -30 -8 -30 -13.5 -24.5 c 128,-1,97
 -19 -19 -19 -19 -19 -11 c 0,98,99
 -20 -3 -20 -3 -14 3 c 128,-1,100
 -8 9 -8 9 0 10 c 0,101,102
 45 12 45 12 105 12.5 c 128,-1,103
 165 13 165 13 226 13 c 0,104,105
 274 13 274 13 318 12.5 c 128,-1,106
 362 12 362 12 397 12 c 0,107,108
 437 11 437 11 473 11 c 0,80,81
484 617 m 0,109,110
 492 617 492 617 498 611.5 c 128,-1,111
 504 606 504 606 504 598 c 256,112,113
 504 590 504 590 498.5 584 c 128,-1,114
 493 578 493 578 485 578 c 0,115,116
 484 578 484 578 484 577 c 2,117,-1
 474 577 l 2,118,119
 403 575 403 575 348.5 573.5 c 128,-1,120
 294 572 294 572 252.5 571.5 c 128,-1,121
 211 571 211 571 180 570.5 c 128,-1,122
 149 570 149 570 124 570 c 0,123,124
 86 570 86 570 56.5 570.5 c 128,-1,125
 27 571 27 571 -9 578 c 0,126,127
 -17 580 -17 580 -22 586.5 c 128,-1,128
 -27 593 -27 593 -25 601 c 256,129,130
 -23 609 -23 609 -16.5 614 c 128,-1,131
 -10 619 -10 619 -2 617 c 0,132,133
 33 611 33 611 60.5 610.5 c 128,-1,134
 88 610 88 610 124 610 c 0,135,136
 149 610 149 610 180.5 610 c 128,-1,137
 212 610 212 610 254.5 611 c 128,-1,138
 297 612 297 612 353.5 613.5 c 128,-1,139
 410 615 410 615 484 617 c 0,109,110
474 380 m 1,140,-1
 484 380 l 1,141,-1
 484 341 l 1,142,-1
 474 341 l 1,143,-1
 474 380 l 1,140,-1
474 65 m 1,144,-1
 484 65 l 1,145,-1
 484 25 l 1,146,-1
 474 25 l 1,147,-1
 474 65 l 1,144,-1
474 143 m 1,148,-1
 484 143 l 1,149,-1
 484 104 l 1,150,-1
 474 104 l 1,151,-1
 474 143 l 1,148,-1
474 459 m 1,152,-1
 484 459 l 1,153,-1
 484 419 l 1,154,-1
 474 419 l 1,155,-1
 474 459 l 1,152,-1
474 301 m 1,156,-1
 484 301 l 1,157,-1
 484 262 l 1,158,-1
 474 262 l 1,159,-1
 474 301 l 1,156,-1
474 222 m 1,160,-1
 484 222 l 1,161,-1
 484 183 l 1,162,-1
 474 183 l 1,163,-1
 474 222 l 1,160,-1
484 498 m 1,164,-1
 474 498 l 1,165,-1
 474 538 l 1,166,-1
 484 538 l 1,167,-1
 484 498 l 1,164,-1
EndSplineSet
EndChar

StartChar: seven
Encoding: 55 55 11
Width: 479
GlyphClass: 2
Flags: W
LayerCount: 2
Fore
SplineSet
133 97 m 2,0,1
 188 182 188 182 263.870117188 290.654296875 c 0,2,3
 282.990234375 318.986328125 282.990234375 318.986328125 384 494 c 0,4,5
 389 502 389 502 382.5 509.5 c 128,-1,6
 376 517 376 517 368 517 c 2,7,-1
 110 517 l 2,8,9
 102 517 102 517 98.5 512 c 128,-1,10
 95 507 95 507 95 501.5 c 128,-1,11
 95 496 95 496 98.5 491 c 128,-1,12
 102 486 102 486 110 486 c 2,13,-1
 341 486 l 1,14,15
 283 382 283 382 217.5 284.5 c 0,16,17
 120 138 120 138 94 86 c 0,18,19
 92 82 92 82 98.01171875 70.7802734375 c 0,20,21
 106.213867188 55.603515625 106.213867188 55.603515625 111 63 c 2,22,-1
 133 97 l 2,0,1
473 11 m 0,23,24
 481 11 481 11 487 5 c 128,-1,25
 493 -1 493 -1 493 -9 c 256,26,27
 493 -17 493 -17 487 -23 c 128,-1,28
 481 -29 481 -29 473 -29 c 2,29,30
 473 -29 473 -29 452 -28.5 c 128,-1,31
 431 -28 431 -28 397 -28 c 128,-1,32
 363 -28 363 -28 318.5 -27.5 c 128,-1,33
 274 -27 274 -27 226 -27 c 0,34,35
 165 -27 165 -27 105.5 -27.5 c 128,-1,36
 46 -28 46 -28 1 -30 c 2,37,-1
 0 -30 l 2,38,39
 -8 -30 -8 -30 -13.5 -24.5 c 128,-1,40
 -19 -19 -19 -19 -19 -11 c 0,41,42
 -20 -3 -20 -3 -14 3 c 128,-1,43
 -8 9 -8 9 0 10 c 0,44,45
 45 12 45 12 105 12.5 c 128,-1,46
 165 13 165 13 226 13 c 0,47,48
 274 13 274 13 318 12.5 c 128,-1,49
 362 12 362 12 397 12 c 0,50,51
 437 11 437 11 473 11 c 0,23,24
484 617 m 0,52,53
 492 617 492 617 498 611.5 c 128,-1,54
 504 606 504 606 504 598 c 256,55,56
 504 590 504 590 498.5 584 c 128,-1,57
 493 578 493 578 485 578 c 0,58,59
 484 578 484 578 484 577 c 2,60,-1
 474 577 l 2,61,62
 403 575 403 575 348.5 573.5 c 128,-1,63
 294 572 294 572 252.5 571.5 c 128,-1,64
 211 571 211 571 180 570.5 c 128,-1,65
 149 570 149 570 124 570 c 0,66,67
 86 570 86 570 56.5 570.5 c 128,-1,68
 27 571 27 571 -9 578 c 0,69,70
 -17 580 -17 580 -22 586.5 c 128,-1,71
 -27 593 -27 593 -25 601 c 256,72,73
 -23 609 -23 609 -16.5 614 c 128,-1,74
 -10 619 -10 619 -2 617 c 0,75,76
 33 611 33 611 60.5 610.5 c 128,-1,77
 88 610 88 610 124 610 c 0,78,79
 149 610 149 610 180.5 610 c 128,-1,80
 212 610 212 610 254.5 611 c 128,-1,81
 297 612 297 612 353.5 613.5 c 128,-1,82
 410 615 410 615 484 617 c 0,52,53
474 380 m 1,83,-1
 484 380 l 1,84,-1
 484 341 l 1,85,-1
 474 341 l 1,86,-1
 474 380 l 1,83,-1
474 65 m 1,87,-1
 484 65 l 1,88,-1
 484 25 l 1,89,-1
 474 25 l 1,90,-1
 474 65 l 1,87,-1
474 143 m 1,91,-1
 484 143 l 1,92,-1
 484 104 l 1,93,-1
 474 104 l 1,94,-1
 474 143 l 1,91,-1
474 459 m 1,95,-1
 484 459 l 1,96,-1
 484 419 l 1,97,-1
 474 419 l 1,98,-1
 474 459 l 1,95,-1
474 301 m 1,99,-1
 484 301 l 1,100,-1
 484 262 l 1,101,-1
 474 262 l 1,102,-1
 474 301 l 1,99,-1
474 222 m 1,103,-1
 484 222 l 1,104,-1
 484 183 l 1,105,-1
 474 183 l 1,106,-1
 474 222 l 1,103,-1
484 498 m 1,107,-1
 474 498 l 1,108,-1
 474 538 l 1,109,-1
 484 538 l 1,110,-1
 484 498 l 1,107,-1
EndSplineSet
EndChar

StartChar: eight
Encoding: 56 56 12
Width: 481
GlyphClass: 2
Flags: W
LayerCount: 2
Fore
SplineSet
338 255 m 0,0,1
 365 246 365 246 380.5 228.5 c 128,-1,2
 396 211 396 211 400.5 189.5 c 128,-1,3
 405 168 405 168 398.5 145 c 128,-1,4
 392 122 392 122 373 102 c 0,5,6
 362 90 362 90 340.5 80.5 c 128,-1,7
 319 71 319 71 293 65.5 c 128,-1,8
 267 60 267 60 239 58.5 c 128,-1,9
 211 57 211 57 185 60.5 c 128,-1,10
 159 64 159 64 139 73 c 0,11,12
 122 81 122 81 111.5 103 c 0,13,14
 88 153 88 153 126.5 218.5 c 0,15,16
 128 221 128 221 145.5 243 c 0,17,18
 169 271 169 271 176.5 254 c 0,19,20
 184 239 184 239 164 216 c 1,21,22
 138 180 138 180 137.5 154.5 c 0,23,24
 136 97 136 97 181 92 c 0,25,26
 230 87 230 87 261 91 c 128,-1,27
 292 95 292 95 314 103 c 0,28,29
 332 109 332 109 348 124.5 c 128,-1,30
 364 140 364 140 371 158 c 128,-1,31
 378 176 378 176 372 193.5 c 128,-1,32
 366 211 366 211 341 222 c 0,33,34
 315 233 315 233 287 239.5 c 128,-1,35
 259 246 259 246 231 252 c 0,36,37
 199 259 199 259 164 270 c 128,-1,38
 129 281 129 281 104.5 299.5 c 128,-1,39
 80 318 80 318 70.5 346 c 128,-1,40
 61 374 61 374 80 416 c 0,41,42
 96 453 96 453 127.5 476.5 c 128,-1,43
 159 500 159 500 196 507.5 c 128,-1,44
 233 515 233 515 263 510.5 c 132,-1,45
 293 506 293 506 326 484 c 4,46,47
 347 470 347 470 352 443 c 0,48,49
 357 417 357 417 354 400 c 0,50,51
 352 389 352 389 333.130859375 355.436523438 c 0,52,53
 307 309 307 309 247.5 285.5 c 0,54,55
 241 283 241 283 236 287 c 128,-1,56
 231 291 231 291 230 296 c 0,57,58
 229 303 229 303 230.5 307 c 0,59,60
 232 310 232 310 235.5 311.5 c 0,61,62
 270 329 270 329 306.75 370.75 c 0,63,64
 326 393 326 393 330.5 413.5 c 0,65,66
 333 425 333 425 321 445.5 c 0,67,68
 317 453 317 453 293 470 c 0,69,70
 262 492 262 492 191 474 c 0,71,72
 179 471 179 471 166.5 463 c 128,-1,73
 154 455 154 455 140 441 c 128,-1,74
 126 427 126 427 115.5 410.5 c 128,-1,75
 105 394 105 394 102 377 c 128,-1,76
 99 360 99 360 106 343.5 c 128,-1,77
 113 327 113 327 134 315 c 0,78,79
 156 302 156 302 181 294.5 c 128,-1,80
 206 287 206 287 232 281.5 c 128,-1,81
 258 276 258 276 285 270 c 128,-1,82
 312 264 312 264 338 255 c 0,0,1
473 11 m 0,83,84
 481 11 481 11 487 5 c 128,-1,85
 493 -1 493 -1 493 -9 c 256,86,87
 493 -17 493 -17 487 -23 c 128,-1,88
 481 -29 481 -29 473 -29 c 2,89,90
 473 -29 473 -29 452 -28.5 c 128,-1,91
 431 -28 431 -28 397 -28 c 128,-1,92
 363 -28 363 -28 318.5 -27.5 c 128,-1,93
 274 -27 274 -27 226 -27 c 0,94,95
 165 -27 165 -27 105.5 -27.5 c 128,-1,96
 46 -28 46 -28 1 -30 c 2,97,-1
 0 -30 l 2,98,99
 -8 -30 -8 -30 -13.5 -24.5 c 128,-1,100
 -19 -19 -19 -19 -19 -11 c 0,101,102
 -20 -3 -20 -3 -14 3 c 128,-1,103
 -8 9 -8 9 0 10 c 0,104,105
 45 12 45 12 105 12.5 c 128,-1,106
 165 13 165 13 226 13 c 0,107,108
 274 13 274 13 318 12.5 c 128,-1,109
 362 12 362 12 397 12 c 0,110,111
 437 11 437 11 473 11 c 0,83,84
484 617 m 0,112,113
 492 617 492 617 498 611.5 c 128,-1,114
 504 606 504 606 504 598 c 256,115,116
 504 590 504 590 498.5 584 c 128,-1,117
 493 578 493 578 485 578 c 0,118,119
 484 578 484 578 484 577 c 2,120,-1
 474 577 l 2,121,122
 403 575 403 575 348.5 573.5 c 128,-1,123
 294 572 294 572 252.5 571.5 c 128,-1,124
 211 571 211 571 180 570.5 c 128,-1,125
 149 570 149 570 124 570 c 0,126,127
 86 570 86 570 56.5 570.5 c 128,-1,128
 27 571 27 571 -9 578 c 0,129,130
 -17 580 -17 580 -22 586.5 c 128,-1,131
 -27 593 -27 593 -25 601 c 256,132,133
 -23 609 -23 609 -16.5 614 c 128,-1,134
 -10 619 -10 619 -2 617 c 0,135,136
 33 611 33 611 60.5 610.5 c 128,-1,137
 88 610 88 610 124 610 c 0,138,139
 149 610 149 610 180.5 610 c 128,-1,140
 212 610 212 610 254.5 611 c 128,-1,141
 297 612 297 612 353.5 613.5 c 128,-1,142
 410 615 410 615 484 617 c 0,112,113
474 380 m 1,143,-1
 484 380 l 1,144,-1
 484 341 l 1,145,-1
 474 341 l 1,146,-1
 474 380 l 1,143,-1
474 65 m 1,147,-1
 484 65 l 1,148,-1
 484 25 l 1,149,-1
 474 25 l 1,150,-1
 474 65 l 1,147,-1
474 143 m 1,151,-1
 484 143 l 1,152,-1
 484 104 l 1,153,-1
 474 104 l 1,154,-1
 474 143 l 1,151,-1
474 459 m 1,155,-1
 484 459 l 1,156,-1
 484 419 l 1,157,-1
 474 419 l 1,158,-1
 474 459 l 1,155,-1
474 301 m 1,159,-1
 484 301 l 1,160,-1
 484 262 l 1,161,-1
 474 262 l 1,162,-1
 474 301 l 1,159,-1
474 222 m 1,163,-1
 484 222 l 1,164,-1
 484 183 l 1,165,-1
 474 183 l 1,166,-1
 474 222 l 1,163,-1
484 498 m 1,167,-1
 474 498 l 1,168,-1
 474 538 l 1,169,-1
 484 538 l 1,170,-1
 484 498 l 1,167,-1
EndSplineSet
EndChar

StartChar: nine
Encoding: 57 57 13
Width: 479
GlyphClass: 2
Flags: WO
LayerCount: 2
Fore
SplineSet
176 91 m 1,0,1
 146 94 146 94 126.178710938 109 c 0,2,3
 107 121 l 0,4,5
 100 122 100 122 99 117.5 c 0,6,7
 94 90 94 90 97.5 88 c 0,8,9
 106 80 106 80 133 69.6943359375 c 0,10,11
 137 68 137 68 143 65.80078125 c 0,12,13
 163 60 163 60 182 58.107421875 c 0,14,15
 215 55 215 55 254 62 c 0,16,17
 297.93220339 69.3220338983 297.93220339 69.3220338983 335.5 104 c 4,18,19
 355 122 355 122 375 188.5 c 0,20,21
 389 238 389 238 388.5 296.5 c 0,22,23
 388.046385394 336.871699975 388.046385394 336.871699975 364.5 402 c 0,24,25
 341.632624247 466.223268072 341.632624247 466.223268072 313.5 481 c 0,26,27
 264 507 264 507 248.5 510.5 c 0,28,29
 208 520 208 520 175.5 509 c 0,30,31
 150 501 150 501 118 473.5 c 0,32,33
 87 447 87 447 75.5 401 c 0,34,35
 71 382 71 382 74 362 c 128,-1,36
 77 342 77 342 85 323.5 c 128,-1,37
 93 305 93 305 107.5 290.5 c 0,38,39
 123 274 123 274 134.5 269 c 0,40,41
 207 240 207 240 239.441072999 253.077836412 c 0,42,43
 283 270 283 270 325.5 288 c 0,44,45
 328 289 328 289 329 298 c 0,46,47
 330 304 330 304 328.5 308.5 c 128,-1,48
 327 313 327 313 322 315 c 128,-1,49
 317 317 317 317 310.5 313 c 0,50,51
 282 294 282 294 276.5 292 c 0,52,53
 250 283 250 283 230.5 281 c 0,54,55
 207 279 207 279 178.5 286 c 0,56,57
 146 293 146 293 127.5 314 c 128,-1,58
 109 335 109 335 105 368.5 c 0,59,60
 101 397 101 397 119.5 425 c 0,61,62
 145 462 145 462 176.5 476 c 0,63,64
 212 492 212 492 243.5 484.5 c 0,65,66
 298 472 298 472 306.5 455 c 0,67,68
 320 424 320 424 334.5 392 c 0,69,70
 350 359 350 359 355 313.5 c 0,71,72
 358 288 358 288 349 230.5 c 0,73,74
 340 167 340 167 332 157 c 0,75,76
 305 120 305 120 284.5 108 c 0,77,78
 255 92 255 92 204 93 c 1,79,-1
 176 91 l 1,0,1
473 11 m 0,80,81
 481 11 481 11 487 5 c 128,-1,82
 493 -1 493 -1 493 -9 c 256,83,84
 493 -17 493 -17 487 -23 c 128,-1,85
 481 -29 481 -29 473 -29 c 2,86,87
 473 -29 473 -29 452 -28.5 c 128,-1,88
 431 -28 431 -28 397 -28 c 128,-1,89
 363 -28 363 -28 318.5 -27.5 c 128,-1,90
 274 -27 274 -27 226 -27 c 0,91,92
 165 -27 165 -27 105.5 -27.5 c 128,-1,93
 46 -28 46 -28 1 -30 c 2,94,-1
 0 -30 l 2,95,96
 -8 -30 -8 -30 -13.5 -24.5 c 128,-1,97
 -19 -19 -19 -19 -19 -11 c 0,98,99
 -20 -3 -20 -3 -14 3 c 128,-1,100
 -8 9 -8 9 0 10 c 0,101,102
 45 12 45 12 105 12.5 c 128,-1,103
 165 13 165 13 226 13 c 0,104,105
 274 13 274 13 318 12.5 c 128,-1,106
 362 12 362 12 397 12 c 0,107,108
 437 11 437 11 473 11 c 0,80,81
484 617 m 0,109,110
 492 617 492 617 498 611.5 c 128,-1,111
 504 606 504 606 504 598 c 256,112,113
 504 590 504 590 498.5 584 c 128,-1,114
 493 578 493 578 485 578 c 0,115,116
 484 578 484 578 484 577 c 2,117,-1
 474 577 l 2,118,119
 403 575 403 575 348.5 573.5 c 128,-1,120
 294 572 294 572 252.5 571.5 c 128,-1,121
 211 571 211 571 180 570.5 c 128,-1,122
 149 570 149 570 124 570 c 0,123,124
 86 570 86 570 56.5 570.5 c 128,-1,125
 27 571 27 571 -9 578 c 0,126,127
 -17 580 -17 580 -22 586.5 c 128,-1,128
 -27 593 -27 593 -25 601 c 256,129,130
 -23 609 -23 609 -16.5 614 c 128,-1,131
 -10 619 -10 619 -2 617 c 0,132,133
 33 611 33 611 60.5 610.5 c 128,-1,134
 88 610 88 610 124 610 c 0,135,136
 149 610 149 610 180.5 610 c 128,-1,137
 212 610 212 610 254.5 611 c 128,-1,138
 297 612 297 612 353.5 613.5 c 128,-1,139
 410 615 410 615 484 617 c 0,109,110
474 380 m 1,140,-1
 484 380 l 1,141,-1
 484 341 l 1,142,-1
 474 341 l 1,143,-1
 474 380 l 1,140,-1
474 65 m 1,144,-1
 484 65 l 1,145,-1
 484 25 l 1,146,-1
 474 25 l 1,147,-1
 474 65 l 1,144,-1
474 143 m 1,148,-1
 484 143 l 1,149,-1
 484 104 l 1,150,-1
 474 104 l 1,151,-1
 474 143 l 1,148,-1
474 459 m 1,152,-1
 484 459 l 1,153,-1
 484 419 l 1,154,-1
 474 419 l 1,155,-1
 474 459 l 1,152,-1
474 301 m 1,156,-1
 484 301 l 1,157,-1
 484 262 l 1,158,-1
 474 262 l 1,159,-1
 474 301 l 1,156,-1
474 222 m 1,160,-1
 484 222 l 1,161,-1
 484 183 l 1,162,-1
 474 183 l 1,163,-1
 474 222 l 1,160,-1
484 498 m 1,164,-1
 474 498 l 1,165,-1
 474 538 l 1,166,-1
 484 538 l 1,167,-1
 484 498 l 1,164,-1
EndSplineSet
EndChar

StartChar: less
Encoding: 60 60 14
Width: 775
GlyphClass: 2
Flags: W
LayerCount: 2
Fore
SplineSet
405 558 m 1,0,-1
 415 558 l 1,1,-1
 415 519 l 1,2,-1
 405 519 l 1,3,-1
 405 558 l 1,0,-1
405 401 m 1,4,-1
 415 401 l 1,5,-1
 415 361 l 1,6,-1
 405 361 l 1,7,-1
 405 401 l 1,4,-1
405 480 m 1,8,-1
 415 480 l 1,9,-1
 415 440 l 1,10,-1
 405 440 l 1,11,-1
 405 480 l 1,8,-1
405 243 m 1,12,-1
 415 243 l 1,13,-1
 415 204 l 1,14,-1
 405 204 l 1,15,-1
 405 243 l 1,12,-1
405 164 m 1,16,-1
 415 164 l 1,17,-1
 415 125 l 1,18,-1
 405 125 l 1,19,-1
 405 164 l 1,16,-1
405 322 m 1,20,-1
 415 322 l 1,21,-1
 415 282 l 1,22,-1
 405 282 l 1,23,-1
 405 322 l 1,20,-1
791 20 m 1,24,-1
 807 14 l 1,25,-1
 806 -4 l 1,26,-1
 787 -4 l 1,27,28
 785 -20 785 -20 776.5 -28 c 128,-1,29
 768 -36 768 -36 757 -41 c 256,30,31
 746 -46 746 -46 732 -50.5 c 128,-1,32
 718 -55 718 -55 701 -58 c 0,33,34
 696 -60 696 -60 689.5 -60.5 c 128,-1,35
 683 -61 683 -61 677 -63 c 1,36,37
 666 -111 666 -111 640 -141.5 c 128,-1,38
 614 -172 614 -172 579 -187 c 0,39,40
 541 -204 541 -204 497.5 -207.5 c 128,-1,41
 454 -211 454 -211 406 -211 c 2,42,-1
 329 -211 l 1,43,-1
 318 -211 l 1,44,-1
 315 -211 l 2,45,46
 227 -212 227 -212 171.5 -194 c 128,-1,47
 116 -176 116 -176 84.5 -147.5 c 128,-1,48
 53 -119 53 -119 41 -85 c 128,-1,49
 29 -51 29 -51 28 -21 c 0,50,51
 25 51 25 51 23.5 102.5 c 128,-1,52
 22 154 22 154 22 198 c 0,53,54
 22 238 22 238 21 275.5 c 128,-1,55
 20 313 20 313 19.5 356 c 128,-1,56
 19 399 19 399 19.5 451.5 c 128,-1,57
 20 504 20 504 23 573 c 1,58,-1
 43 572 l 1,59,-1
 23 573 l 2,60,61
 23 574 23 574 24 583 c 128,-1,62
 25 592 25 592 29 606.5 c 128,-1,63
 33 621 33 621 41 639.5 c 128,-1,64
 49 658 49 658 63 677 c 0,65,66
 77 697 77 697 97.5 715.5 c 128,-1,67
 118 734 118 734 147 748.5 c 128,-1,68
 176 763 176 763 214 772 c 128,-1,69
 252 781 252 781 300 781 c 0,70,71
 332 781 332 781 368 783 c 128,-1,72
 404 785 404 785 442 785 c 0,73,74
 479 785 479 785 516 781 c 128,-1,75
 553 777 553 777 585 765 c 128,-1,76
 617 753 617 753 642.5 730.5 c 128,-1,77
 668 708 668 708 682 671 c 0,78,79
 682 669 682 669 682.5 667.5 c 128,-1,80
 683 666 683 666 683 664 c 0,81,82
 697 660 697 660 710 657 c 128,-1,83
 723 654 723 654 735 649 c 0,84,85
 765 636 765 636 787.5 619 c 128,-1,86
 810 602 810 602 816 576 c 1,87,-1
 791 579 l 1,88,-1
 791 552 l 1,89,-1
 781 552 l 1,90,-1
 781 580 l 1,91,-1
 770 581 l 1,92,93
 763 589 763 589 751 597 c 128,-1,94
 739 605 739 605 720 612 c 0,95,96
 691 623 691 623 650.5 630.5 c 128,-1,97
 610 638 610 638 564 637 c 2,98,-1
 542 637 l 2,99,100
 507 635 507 635 474.5 630.5 c 128,-1,101
 442 626 442 626 415 618 c 1,102,-1
 415 598 l 1,103,-1
 405 598 l 1,104,-1
 405 615 l 1,105,106
 397 613 397 613 390 610.5 c 128,-1,107
 383 608 383 608 376 605 c 0,108,109
 344 592 344 592 330 577.5 c 128,-1,110
 316 563 316 563 317 555 c 2,111,-1
 318 553 l 1,112,-1
 316 408 l 2,113,114
 318 418 318 418 320 414 c 0,115,116
 324 409 324 409 322 397 c 0,117,118
 320 386 320 386 317 389 c 0,119,120
 317 390 317 390 316.5 391 c 128,-1,121
 316 392 316 392 316 394 c 2,122,-1
 312 37 l 2,123,124
 313 38 313 38 315 38 c 0,125,126
 317 49 317 49 320 47 c 0,127,128
 319 45 319 45 318 43 c 128,-1,129
 317 41 317 41 316 39 c 1,130,131
 334 45 334 45 358 51 c 0,132,133
 369 53 369 53 380.5 54.5 c 128,-1,134
 392 56 392 56 405 58 c 1,135,-1
 405 85 l 1,136,-1
 415 85 l 1,137,-1
 415 59 l 1,138,139
 441 62 441 62 469.5 64 c 128,-1,140
 498 66 498 66 530 66 c 0,141,142
 590 65 590 65 640 60 c 128,-1,143
 690 55 690 55 725 45 c 2,144,-1
 759 32 l 2,145,146
 762 31 762 31 768 27 c 1,147,-1
 768 29 l 1,148,-1
 781 24 l 1,149,-1
 781 39 l 1,150,-1
 791 39 l 1,151,-1
 791 20 l 1,24,-1
361 641 m 0,152,153
 375 647 375 647 391 652 c 1,154,155
 374 652 374 652 357.5 651.5 c 128,-1,156
 341 651 341 651 325 651 c 2,157,-1
 320 651 l 1,158,-1
 317 651 l 2,159,160
 259 650 259 650 229 630 c 128,-1,161
 199 610 199 610 184 585 c 0,162,163
 176 573 176 573 171.5 561 c 128,-1,164
 167 549 167 549 165 540 c 0,165,166
 162 529 162 529 162 520 c 0,167,168
 160 464 160 464 158 422 c 128,-1,169
 156 380 156 380 154.5 345.5 c 128,-1,170
 153 311 153 311 152.5 281 c 128,-1,171
 152 251 152 251 152 219 c 0,172,173
 152 184 152 184 153 143 c 128,-1,174
 154 102 154 102 156 46 c 0,175,176
 158 26 158 26 164 5.5 c 128,-1,177
 170 -15 170 -15 188 -33 c 128,-1,178
 206 -51 206 -51 240.5 -63 c 128,-1,179
 275 -75 275 -75 333 -76 c 0,180,181
 339 -76 339 -76 345 -76.5 c 128,-1,182
 351 -77 351 -77 356 -77 c 1,183,-1
 356 -76 l 1,184,-1
 388 -64 l 1,185,186
 361 -59 361 -59 339 -54 c 128,-1,187
 317 -49 317 -49 302 -41 c 0,188,189
 292 -36 292 -36 283 -28 c 128,-1,190
 274 -20 274 -20 273 -4 c 2,191,-1
 275 263 l 1,192,-1
 275 271 l 1,193,-1
 275 272 l 1,194,-1
 277 441 l 1,195,-1
 276 441 l 1,196,197
 273 446 273 446 275 457 c 0,198,199
 275 463 275 463 277 465 c 2,200,-1
 278 552 l 1,201,-1
 278 555 l 2,202,203
 280 586 280 586 303 606.5 c 128,-1,204
 326 627 326 627 361 641 c 0,152,153
563 -151 m 0,205,206
 588 -140 588 -140 606 -121 c 128,-1,207
 624 -102 624 -102 635 -68 c 1,208,209
 615 -70 615 -70 594 -71.5 c 128,-1,210
 573 -73 573 -73 550 -73 c 1,211,212
 525 -99 525 -99 491 -108 c 128,-1,213
 457 -117 457 -117 421 -117 c 2,214,-1
 408 -117 l 2,215,216
 389 -117 389 -117 370.5 -116.5 c 128,-1,217
 352 -116 352 -116 332 -116 c 0,218,219
 269 -116 269 -116 227.5 -100.5 c 128,-1,220
 186 -85 186 -85 161.5 -61 c 128,-1,221
 137 -37 137 -37 127 -9 c 128,-1,222
 117 19 117 19 117 44 c 0,223,224
 115 101 115 101 114 142.5 c 128,-1,225
 113 184 113 184 113 219 c 0,226,227
 113 251 113 251 113.5 281.5 c 128,-1,228
 114 312 114 312 115.5 346.5 c 128,-1,229
 117 381 117 381 118.5 423.5 c 128,-1,230
 120 466 120 466 122 522 c 0,231,232
 122 524 122 524 126 549 c 128,-1,233
 130 574 130 574 150 606 c 0,234,235
 159 622 159 622 174 637 c 128,-1,236
 189 652 189 652 209.5 664 c 128,-1,237
 230 676 230 676 256.5 683 c 128,-1,238
 283 690 283 690 317 690 c 2,239,-1
 320 690 l 1,240,-1
 321 690 l 1,241,-1
 489 699 l 2,242,243
 499 703 499 703 510 705.5 c 128,-1,244
 521 708 521 708 534 708 c 0,245,246
 561 708 561 708 582 698.5 c 128,-1,247
 603 689 603 689 608 675 c 1,248,-1
 638 672 l 1,249,250
 627 694 627 694 607.5 708 c 128,-1,251
 588 722 588 722 562.5 730.5 c 128,-1,252
 537 739 537 739 506.5 742 c 128,-1,253
 476 745 476 745 442 745 c 0,254,255
 406 745 406 745 370 743.5 c 128,-1,256
 334 742 334 742 300 741 c 0,257,258
 234 740 234 740 191.5 724 c 128,-1,259
 149 708 149 708 123.5 685.5 c 128,-1,260
 98 663 98 663 85.5 638.5 c 128,-1,261
 73 614 73 614 68 596 c 0,262,263
 66 590 66 590 65.5 585 c 128,-1,264
 65 580 65 580 64 577 c 0,265,266
 63 573 63 573 63 571 c 0,267,268
 60 501 60 501 59.5 449 c 128,-1,269
 59 397 59 397 59 354 c 128,-1,270
 59 311 59 311 60 274 c 128,-1,271
 61 237 61 237 61 198 c 0,272,273
 61 154 61 154 62.5 103 c 128,-1,274
 64 52 64 52 68 -19 c 0,275,276
 70 -43 70 -43 77.5 -69.5 c 128,-1,277
 85 -96 85 -96 109.5 -118.5 c 128,-1,278
 134 -141 134 -141 182.5 -156 c 128,-1,279
 231 -171 231 -171 315 -172 c 2,280,-1
 317 -172 l 1,281,-1
 319 -172 l 1,282,-1
 329 -172 l 1,283,-1
 406 -172 l 2,284,285
 454 -172 454 -172 494 -168.5 c 128,-1,286
 534 -165 534 -165 563 -151 c 0,205,206
677 -23 m 0,287,288
 700 -19 700 -19 717.5 -13.5 c 128,-1,289
 735 -8 735 -8 743 -4 c 1,290,291
 743 -4 743 -4 739 -2 c 0,292,293
 725 6 725 6 693 12 c 0,294,295
 662 19 662 19 620 22.5 c 128,-1,296
 578 26 578 26 530 26 c 0,297,298
 487 26 487 26 449.5 23 c 128,-1,299
 412 20 412 20 382 15 c 0,300,301
 359 11 359 11 341.5 6 c 128,-1,302
 324 1 324 1 316 -4 c 1,303,304
 318 -4 318 -4 320 -6 c 0,305,306
 327 -9 327 -9 338.5 -13 c 128,-1,307
 350 -17 350 -17 366 -20 c 0,308,309
 408 -29 408 -29 471 -32 c 1,310,-1
 492 -24 l 1,311,312
 460 -21 460 -21 439.5 -15.5 c 128,-1,313
 419 -10 419 -10 419 -2 c 0,314,315
 419 3 419 3 428.5 7.5 c 128,-1,316
 438 12 438 12 454.5 15 c 128,-1,317
 471 18 471 18 493 20 c 128,-1,318
 515 22 515 22 540 22 c 256,319,320
 565 22 565 22 586.5 20 c 128,-1,321
 608 18 608 18 624.5 15 c 128,-1,322
 641 12 641 12 650.5 7.5 c 128,-1,323
 660 3 660 3 660 -2 c 0,324,325
 660 -8 660 -8 645 -13.5 c 128,-1,326
 630 -19 630 -19 605 -22 c 1,327,-1
 605 -23 l 1,328,-1
 580 -33 l 1,329,330
 607 -31 607 -31 632 -29 c 128,-1,331
 657 -27 657 -27 677 -23 c 0,287,288
781 118 m 1,332,-1
 791 118 l 1,333,-1
 791 79 l 1,334,-1
 781 79 l 1,335,-1
 781 118 l 1,332,-1
781 197 m 1,336,-1
 791 197 l 1,337,-1
 791 157 l 1,338,-1
 781 157 l 1,339,-1
 781 197 l 1,336,-1
781 355 m 1,340,-1
 791 355 l 1,341,-1
 791 315 l 1,342,-1
 781 315 l 1,343,-1
 781 355 l 1,340,-1
781 276 m 1,344,-1
 791 276 l 1,345,-1
 791 236 l 1,346,-1
 781 236 l 1,347,-1
 781 276 l 1,344,-1
781 512 m 1,348,-1
 791 512 l 1,349,-1
 791 473 l 1,350,-1
 781 473 l 1,351,-1
 781 512 l 1,348,-1
781 433 m 1,352,-1
 791 433 l 1,353,-1
 791 394 l 1,354,-1
 781 394 l 1,355,-1
 781 433 l 1,352,-1
261 -20 m 0,356,357
 262 -15 262 -15 263.5 -12.5 c 128,-1,358
 265 -10 265 -10 266 -12 c 0,359,360
 270 -16 270 -16 268 -28 c 0,361,362
 266 -39 266 -39 263 -36 c 0,363,364
 261 -34 261 -34 261 -29.5 c 128,-1,365
 261 -25 261 -25 261 -20 c 0,356,357
221 32 m 256,366,367
 223 43 223 43 226 40 c 0,368,369
 229 35 229 35 227 24 c 0,370,371
 227 19 227 19 225.5 16.5 c 128,-1,372
 224 14 224 14 222 16 c 0,373,374
 219 21 219 21 221 32 c 256,366,367
328 143 m 0,375,376
 329 150 329 150 331 153 c 128,-1,377
 333 156 333 156 335 153 c 0,378,379
 339 147 339 147 337 132 c 0,380,381
 336 124 336 124 334 121 c 128,-1,382
 332 118 332 118 330 121 c 0,383,384
 326 127 326 127 328 143 c 0,375,376
342 249 m 0,385,386
 343 256 343 256 344.5 259 c 128,-1,387
 346 262 346 262 348 260 c 0,388,389
 354 254 354 254 350 238 c 0,390,391
 349 231 349 231 347.5 228 c 128,-1,392
 346 225 346 225 344 227 c 0,393,394
 340 233 340 233 342 249 c 0,385,386
355 355 m 0,395,396
 356 362 356 362 358 365 c 1,397,398
 359 357 359 357 359 349.5 c 128,-1,399
 359 342 359 342 359 334 c 1,400,401
 359 334 359 334 357 333 c 0,402,403
 353 340 353 340 355 355 c 0,395,396
315 221 m 256,404,405
 316 227 316 227 317.5 229.5 c 128,-1,406
 319 232 319 232 321 230 c 256,407,408
 323 228 323 228 323.5 222.5 c 128,-1,409
 324 217 324 217 323 211 c 256,410,411
 322 205 322 205 320.5 202.5 c 128,-1,412
 319 200 319 200 317 202 c 256,413,414
 315 204 315 204 314.5 209.5 c 128,-1,415
 314 215 314 215 315 221 c 256,404,405
336 318 m 256,416,417
 334 305 334 305 331 308 c 0,418,419
 327 314 327 314 329 327 c 0,420,421
 330 333 330 333 331 336 c 128,-1,422
 332 339 332 339 334 337 c 0,423,424
 338 331 338 331 336 318 c 256,416,417
350 424 m 0,425,426
 349 418 349 418 347.5 415.5 c 128,-1,427
 346 413 346 413 344 415 c 256,428,429
 342 417 342 417 341.5 422.5 c 128,-1,430
 341 428 341 428 342 434 c 256,431,432
 343 440 343 440 344.5 442.5 c 128,-1,433
 346 445 346 445 348 443 c 0,434,435
 352 437 352 437 350 424 c 0,425,426
335 502 m 0,436,437
 334 498 334 498 333 496 c 128,-1,438
 332 494 332 494 331 496 c 0,439,440
 327 500 327 500 329 512 c 0,441,442
 329 514 329 514 329.5 514.5 c 128,-1,443
 330 515 330 515 330 517 c 1,444,445
 334 507 334 507 335 502 c 0,436,437
248 59 m 0,446,447
 250 68 250 68 252 66 c 0,448,449
 256 60 256 60 254 52 c 0,450,451
 252 41 252 41 250 45 c 0,452,453
 248 47 248 47 248 50.5 c 128,-1,454
 248 54 248 54 248 59 c 0,446,447
262 165 m 256,455,456
 264 174 264 174 266 172 c 0,457,458
 268 167 268 167 267 158 c 0,459,460
 267 147 267 147 263 151 c 0,461,462
 260 156 260 156 262 165 c 256,455,456
198 202 m 1,463,464
 198 202 198 202 199 202 c 0,465,466
 203 196 203 196 201 180 c 0,467,468
 201 179 201 179 200.5 178.5 c 128,-1,469
 200 178 200 178 200 177 c 1,470,471
 199 183 199 183 199 189 c 128,-1,472
 199 195 199 195 198 202 c 1,463,464
206 298 m 0,473,474
 207 305 207 305 208.5 308 c 128,-1,475
 210 311 210 311 212 309 c 256,476,477
 214 307 214 307 215 300.5 c 128,-1,478
 216 294 216 294 215 287 c 0,479,480
 212 272 212 272 208 276 c 0,481,482
 204 282 204 282 206 298 c 0,473,474
219 404 m 0,483,484
 221 420 221 420 226 415 c 0,485,486
 230 409 230 409 228 393 c 0,487,488
 227 386 227 386 225.5 383 c 128,-1,489
 224 380 224 380 222 382 c 256,490,491
 220 384 220 384 219 390.5 c 128,-1,492
 218 397 218 397 219 404 c 0,483,484
242 499 m 0,493,494
 240 484 240 484 235 489 c 0,495,496
 234 490 234 490 234 492 c 128,-1,497
 234 494 234 494 233 496 c 0,498,499
 235 501 235 501 237 505.5 c 128,-1,500
 239 510 239 510 241 515 c 1,501,502
 242 512 242 512 242 508 c 128,-1,503
 242 504 242 504 242 499 c 0,493,494
207 114 m 0,504,505
 209 124 209 124 212 121 c 0,506,507
 216 115 216 115 214 102 c 0,508,509
 214 96 214 96 211 93 c 1,510,511
 210 98 210 98 209 103.5 c 128,-1,512
 208 109 208 109 207 114 c 0,504,505
220 218 m 0,513,514
 222 232 222 232 226 228 c 0,515,516
 230 222 230 222 228 208 c 0,517,518
 227 202 227 202 225.5 199.5 c 128,-1,519
 224 197 224 197 222 199 c 0,520,521
 218 205 218 205 220 218 c 0,513,514
234 325 m 0,522,523
 235 330 235 330 236 333 c 128,-1,524
 237 336 237 336 239 334 c 0,525,526
 243 328 243 328 241 315 c 256,527,528
 239 302 239 302 236 305 c 0,529,530
 232 309 232 309 234 325 c 0,522,523
247 431 m 256,531,532
 248 437 248 437 249.5 439.5 c 128,-1,533
 251 442 251 442 253 440 c 256,534,535
 255 438 255 438 255.5 432.5 c 128,-1,536
 256 427 256 427 255 421 c 256,537,538
 254 415 254 415 252.5 412.5 c 128,-1,539
 251 410 251 410 249 412 c 256,540,541
 247 414 247 414 246.5 419.5 c 128,-1,542
 246 425 246 425 247 431 c 256,531,532
261 537 m 0,543,544
 263 551 263 551 266 546 c 0,545,546
 268 544 268 544 268.5 538.5 c 128,-1,547
 269 533 269 533 268 527 c 0,548,549
 267 522 267 522 266 519 c 128,-1,550
 265 516 265 516 263 518 c 256,551,552
 261 520 261 520 260.5 525.5 c 128,-1,553
 260 531 260 531 261 537 c 0,543,544
234 138 m 0,554,555
 236 150 236 150 239 147 c 0,556,557
 243 142 243 142 241 130 c 0,558,559
 239 119 239 119 236 122 c 0,560,561
 234 124 234 124 233.5 128.5 c 128,-1,562
 233 133 233 133 234 138 c 0,554,555
248 245 m 0,563,564
 250 256 250 256 253 253 c 0,565,566
 256 248 256 248 254 236 c 0,567,568
 252 225 252 225 249 228 c 0,569,570
 247 235 247 235 248 245 c 0,563,564
266 359 m 0,571,572
 268 357 268 357 268.5 352.5 c 128,-1,573
 269 348 269 348 268 343 c 0,574,575
 266 330 266 330 263 335 c 0,576,577
 259 339 259 339 261 351 c 0,578,579
 263 362 263 362 266 359 c 0,571,572
EndSplineSet
Validated: 37
EndChar

StartChar: greater
Encoding: 62 62 15
Width: 501
GlyphClass: 2
Flags: W
LayerCount: 2
Fore
SplineSet
455 -5 m 2,0,1
 455 -21 455 -21 439 -25 c 0,2,3
 437 -25 437 -25 387 -31 c 128,-1,4
 337 -37 337 -37 238 -37 c 0,5,6
 189 -37 189 -37 128.5 -34.5 c 128,-1,7
 68 -32 68 -32 -4 -25 c 0,8,9
 -12 -24 -12 -24 -17.5 -18 c 128,-1,10
 -23 -12 -23 -12 -22 -4 c 256,11,12
 -21 4 -21 4 -15.5 9 c 128,-1,13
 -10 14 -10 14 -2 14 c 2,14,-1
 0 14 l 1,15,16
 71 7 71 7 130.5 4.5 c 128,-1,17
 190 2 190 2 238 2 c 0,18,19
 307 2 307 2 351 5.5 c 128,-1,20
 395 9 395 9 415 12 c 1,21,-1
 413 575 l 1,22,23
 358 575 358 575 313 576.5 c 128,-1,24
 268 578 268 578 230 579.5 c 128,-1,25
 192 581 192 581 159.5 582.5 c 128,-1,26
 127 584 127 584 98 584 c 0,27,28
 51 584 51 584 0 578 c 1,29,-1
 -2 578 l 2,30,31
 -10 578 -10 578 -15.5 582.5 c 128,-1,32
 -21 587 -21 587 -22 595 c 256,33,34
 -23 603 -23 603 -18 609.5 c 128,-1,35
 -13 616 -13 616 -5 617 c 0,36,37
 22 621 22 621 47 622 c 128,-1,38
 72 623 72 623 98 623 c 0,39,40
 128 623 128 623 160.5 621.5 c 128,-1,41
 193 620 193 620 231 618.5 c 128,-1,42
 269 617 269 617 313.5 616 c 128,-1,43
 358 615 358 615 413 615 c 2,44,-1
 432 615 l 2,45,46
 440 615 440 615 446 609 c 128,-1,47
 452 603 452 603 452 595 c 2,48,-1
 455 -5 l 2,0,1
EndSplineSet
Validated: 1
EndChar

StartChar: A
Encoding: 65 65 16
Width: 486
GlyphClass: 2
Flags: W
LayerCount: 2
Fore
SplineSet
276 513 m 0,0,1
 321 511 321 511 348.5 487.5 c 128,-1,2
 376 464 376 464 391 427 c 128,-1,3
 406 390 406 390 411 343.5 c 128,-1,4
 416 297 416 297 415.5 249 c 128,-1,5
 415 201 415 201 412.5 155.5 c 128,-1,6
 410 110 410 110 410 76 c 0,7,8
 410 69 410 69 405.5 65.5 c 128,-1,9
 401 62 401 62 395 62 c 128,-1,10
 389 62 389 62 384.5 65.5 c 128,-1,11
 380 69 380 69 380 76 c 0,12,13
 380 98 380 98 382.5 130.5 c 128,-1,14
 385 163 385 163 387 201 c 1,15,16
 312 201 312 201 238 201 c 128,-1,17
 164 201 164 201 89 200 c 1,18,19
 90 167 90 167 91 135.5 c 128,-1,20
 92 104 92 104 92 76 c 0,21,22
 92 69 92 69 87.5 65.5 c 128,-1,23
 83 62 83 62 77.5 62 c 128,-1,24
 72 62 72 62 67.5 65.5 c 128,-1,25
 63 69 63 69 63 76 c 0,26,27
 63 115 63 115 60.5 163.5 c 128,-1,28
 58 212 58 212 59.5 261.5 c 128,-1,29
 61 311 61 311 70 357.5 c 128,-1,30
 79 404 79 404 103 439.5 c 128,-1,31
 127 475 127 475 168.5 495 c 128,-1,32
 210 515 210 515 276 513 c 0,0,1
387 231 m 1,33,34
 388 273 388 273 385.5 315.5 c 128,-1,35
 383 358 383 358 372.5 393 c 128,-1,36
 362 428 362 428 342 452 c 128,-1,37
 322 476 322 476 289 481 c 0,38,39
 223 491 223 491 183.5 472.5 c 128,-1,40
 144 454 144 454 123 417.5 c 128,-1,41
 102 381 102 381 95.5 331.5 c 128,-1,42
 89 282 89 282 89 230 c 1,43,44
 164 230 164 230 238 230.5 c 128,-1,45
 312 231 312 231 387 231 c 1,33,34
474 8 m 0,46,47
 482 9 482 9 488.5 3.5 c 128,-1,48
 495 -2 495 -2 495 -10 c 0,49,50
 496 -18 496 -18 490.5 -24.5 c 128,-1,51
 485 -31 485 -31 477 -32 c 0,52,53
 439 -33 439 -33 396 -34 c 0,54,55
 359 -35 359 -35 312 -35.5 c 128,-1,56
 265 -36 265 -36 214 -36 c 0,57,58
 156 -36 156 -36 100 -36 c 128,-1,59
 44 -36 44 -36 0 -28 c 0,60,61
 -8 -26 -8 -26 -13 -19.5 c 128,-1,62
 -18 -13 -18 -13 -16 -5 c 256,63,64
 -14 3 -14 3 -7.5 8 c 128,-1,65
 -1 13 -1 13 7 11 c 0,66,67
 48 4 48 4 102.5 3.5 c 128,-1,68
 157 3 157 3 214 3 c 0,69,70
 264 3 264 3 310 3.5 c 128,-1,71
 356 4 356 4 393 5 c 0,72,73
 435 6 435 6 474 8 c 0,46,47
486 614 m 0,74,75
 505 614 505 614 507 595 c 0,76,77
 507 587 507 587 501.5 581 c 128,-1,78
 496 575 496 575 488 575 c 2,79,-1
 486 575 l 1,80,-1
 486 571 l 1,81,-1
 477 571 l 1,82,-1
 477 574 l 1,83,84
 406 572 406 572 351.5 571 c 128,-1,85
 297 570 297 570 255.5 570 c 128,-1,86
 214 570 214 570 183 570 c 128,-1,87
 152 570 152 570 127 570 c 0,88,89
 89 570 89 570 59 569 c 128,-1,90
 29 568 29 568 -6 575 c 0,91,92
 -14 577 -14 577 -19 583.5 c 128,-1,93
 -24 590 -24 590 -22 598 c 256,94,95
 -20 606 -20 606 -13.5 611 c 128,-1,96
 -7 616 -7 616 1 614 c 0,97,98
 35 607 35 607 63 608 c 128,-1,99
 91 609 91 609 127 609 c 0,100,101
 152 609 152 609 183.5 609 c 128,-1,102
 215 609 215 609 257.5 609.5 c 128,-1,103
 300 610 300 610 356 611 c 128,-1,104
 412 612 412 612 486 614 c 0,74,75
477 137 m 1,105,-1
 486 137 l 1,106,-1
 486 98 l 1,107,-1
 477 98 l 1,108,-1
 477 137 l 1,105,-1
477 216 m 1,109,-1
 486 216 l 1,110,-1
 486 177 l 1,111,-1
 477 177 l 1,112,-1
 477 216 l 1,109,-1
477 58 m 1,113,-1
 486 58 l 1,114,-1
 486 19 l 1,115,-1
 477 19 l 1,116,-1
 477 58 l 1,113,-1
477 295 m 1,117,-1
 486 295 l 1,118,-1
 486 255 l 1,119,-1
 477 255 l 1,120,-1
 477 295 l 1,117,-1
477 374 m 1,121,-1
 486 374 l 1,122,-1
 486 334 l 1,123,-1
 477 334 l 1,124,-1
 477 374 l 1,121,-1
477 453 m 1,125,-1
 486 453 l 1,126,-1
 486 413 l 1,127,-1
 477 413 l 1,128,-1
 477 453 l 1,125,-1
486 492 m 1,129,-1
 477 492 l 1,130,-1
 477 531 l 1,131,-1
 486 531 l 1,132,-1
 486 492 l 1,129,-1
EndSplineSet
Validated: 33
EndChar

StartChar: B
Encoding: 66 66 17
Width: 479
GlyphClass: 2
Flags: W
LayerCount: 2
Fore
SplineSet
299 351 m 1,0,1
 326 346 326 346 349.5 336 c 128,-1,2
 373 326 373 326 390 309 c 128,-1,3
 407 292 407 292 416 266 c 128,-1,4
 425 240 425 240 424 203 c 0,5,6
 422 160 422 160 405 133 c 128,-1,7
 388 106 388 106 361 90.5 c 128,-1,8
 334 75 334 75 299 69 c 128,-1,9
 264 63 264 63 227.5 62 c 128,-1,10
 191 61 191 61 154.5 63 c 128,-1,11
 118 65 118 65 87 65 c 0,12,13
 81 65 81 65 79 67 c 0,14,15
 71 71 71 71 71 79 c 0,16,17
 72 182 72 182 72 284.5 c 128,-1,18
 72 387 72 387 73 490 c 0,19,20
 73 497 73 497 77.5 500.5 c 128,-1,21
 82 504 82 504 87.5 504 c 128,-1,22
 93 504 93 504 97.5 500.5 c 128,-1,23
 102 497 102 497 102 490 c 2,24,-1
 102 488 l 1,25,26
 127 498 127 498 157.5 507.5 c 128,-1,27
 188 517 188 517 218.5 518.5 c 128,-1,28
 249 520 249 520 276 511 c 128,-1,29
 303 502 303 502 320 477 c 0,30,31
 331 460 331 460 334.5 442.5 c 128,-1,32
 338 425 338 425 334.5 408.5 c 128,-1,33
 331 392 331 392 321.5 377 c 128,-1,34
 312 362 312 362 299 351 c 1,0,1
102 354 m 1,35,36
 133 355 133 355 168.5 357 c 128,-1,37
 204 359 204 359 240 357 c 2,38,-1
 241 357 l 2,39,40
 263 360 263 360 281 371.5 c 128,-1,41
 299 383 299 383 303 407 c 0,42,43
 308 431 308 431 300.5 451.5 c 128,-1,44
 293 472 293 472 267 480 c 0,45,46
 225 493 225 493 182.5 483 c 128,-1,47
 140 473 140 473 102 456 c 1,48,-1
 102 354 l 1,35,36
101 94 m 1,49,50
 126 93 126 93 157.5 91.5 c 128,-1,51
 189 90 189 90 222 91 c 128,-1,52
 255 92 255 92 286.5 97 c 128,-1,53
 318 102 318 102 342.5 114 c 128,-1,54
 367 126 367 126 381 147.5 c 128,-1,55
 395 169 395 169 394 203 c 0,56,57
 393 239 393 239 381 263 c 128,-1,58
 369 287 369 287 349.5 301 c 128,-1,59
 330 315 330 315 304.5 321 c 128,-1,60
 279 327 279 327 251 329 c 2,61,-1
 249 329 l 2,62,63
 245 328 245 328 241 330 c 0,64,65
 206 331 206 331 170 328.5 c 128,-1,66
 134 326 134 326 102 324 c 1,67,68
 101 267 101 267 101 209.5 c 128,-1,69
 101 152 101 152 101 94 c 1,49,50
473 11 m 0,70,71
 481 11 481 11 487 5 c 128,-1,72
 493 -1 493 -1 493 -9 c 256,73,74
 493 -17 493 -17 487 -23 c 128,-1,75
 481 -29 481 -29 473 -29 c 2,76,77
 473 -29 473 -29 452 -28.5 c 128,-1,78
 431 -28 431 -28 397 -28 c 128,-1,79
 363 -28 363 -28 318.5 -27.5 c 128,-1,80
 274 -27 274 -27 226 -27 c 0,81,82
 165 -27 165 -27 105.5 -27.5 c 128,-1,83
 46 -28 46 -28 1 -30 c 2,84,-1
 0 -30 l 2,85,86
 -8 -30 -8 -30 -13.5 -24.5 c 128,-1,87
 -19 -19 -19 -19 -19 -11 c 0,88,89
 -20 -3 -20 -3 -14 3 c 128,-1,90
 -8 9 -8 9 0 10 c 0,91,92
 45 12 45 12 105 12.5 c 128,-1,93
 165 13 165 13 226 13 c 0,94,95
 274 13 274 13 318 12.5 c 128,-1,96
 362 12 362 12 397 12 c 0,97,98
 437 11 437 11 473 11 c 0,70,71
484 617 m 0,99,100
 492 617 492 617 498 611.5 c 128,-1,101
 504 606 504 606 504 598 c 256,102,103
 504 590 504 590 498.5 584 c 128,-1,104
 493 578 493 578 485 578 c 0,105,106
 484 578 484 578 484 577 c 2,107,-1
 474 577 l 2,108,109
 403 575 403 575 348.5 573.5 c 128,-1,110
 294 572 294 572 252.5 571.5 c 128,-1,111
 211 571 211 571 180 570.5 c 128,-1,112
 149 570 149 570 124 570 c 0,113,114
 86 570 86 570 56.5 570.5 c 128,-1,115
 27 571 27 571 -9 578 c 0,116,117
 -17 580 -17 580 -22 586.5 c 128,-1,118
 -27 593 -27 593 -25 601 c 256,119,120
 -23 609 -23 609 -16.5 614 c 128,-1,121
 -10 619 -10 619 -2 617 c 0,122,123
 33 611 33 611 60.5 610.5 c 128,-1,124
 88 610 88 610 124 610 c 0,125,126
 149 610 149 610 180.5 610 c 128,-1,127
 212 610 212 610 254.5 611 c 128,-1,128
 297 612 297 612 353.5 613.5 c 128,-1,129
 410 615 410 615 484 617 c 0,99,100
474 380 m 1,130,-1
 484 380 l 1,131,-1
 484 341 l 1,132,-1
 474 341 l 1,133,-1
 474 380 l 1,130,-1
474 65 m 1,134,-1
 484 65 l 1,135,-1
 484 25 l 1,136,-1
 474 25 l 1,137,-1
 474 65 l 1,134,-1
474 143 m 1,138,-1
 484 143 l 1,139,-1
 484 104 l 1,140,-1
 474 104 l 1,141,-1
 474 143 l 1,138,-1
474 459 m 1,142,-1
 484 459 l 1,143,-1
 484 419 l 1,144,-1
 474 419 l 1,145,-1
 474 459 l 1,142,-1
474 301 m 1,146,-1
 484 301 l 1,147,-1
 484 262 l 1,148,-1
 474 262 l 1,149,-1
 474 301 l 1,146,-1
474 222 m 1,150,-1
 484 222 l 1,151,-1
 484 183 l 1,152,-1
 474 183 l 1,153,-1
 474 222 l 1,150,-1
484 498 m 1,154,-1
 474 498 l 1,155,-1
 474 538 l 1,156,-1
 484 538 l 1,157,-1
 484 498 l 1,154,-1
EndSplineSet
Validated: 33
EndChar

StartChar: C
Encoding: 67 67 18
Width: 479
GlyphClass: 2
Flags: W
LayerCount: 2
Fore
SplineSet
379 194 m 0,0,1
 382 201 382 201 387 202 c 128,-1,2
 392 203 392 203 397 200 c 128,-1,3
 402 197 402 197 404.5 191.5 c 128,-1,4
 407 186 407 186 404 179 c 0,5,6
 382 128 382 128 346.5 100 c 128,-1,7
 311 72 311 72 271 64.5 c 128,-1,8
 231 57 231 57 190 68 c 128,-1,9
 149 79 149 79 116 106.5 c 128,-1,10
 83 134 83 134 63 175.5 c 128,-1,11
 43 217 43 217 45 271 c 0,12,13
 43 315 43 315 54.5 357.5 c 128,-1,14
 66 400 66 400 89 434 c 128,-1,15
 112 468 112 468 146.5 489 c 128,-1,16
 181 510 181 510 227 512 c 0,17,18
 305 514 305 514 351.5 478.5 c 128,-1,19
 398 443 398 443 403 372 c 0,20,21
 403 365 403 365 398.5 361.5 c 128,-1,22
 394 358 394 358 388.5 358 c 128,-1,23
 383 358 383 358 378 361.5 c 128,-1,24
 373 365 373 365 373 372 c 0,25,26
 371 403 371 403 354 427.5 c 128,-1,27
 337 452 337 452 311.5 466 c 128,-1,28
 286 480 286 480 255 483.5 c 128,-1,29
 224 487 224 487 196 476 c 0,30,31
 159 462 159 462 132.5 432.5 c 128,-1,32
 106 403 106 403 91 366.5 c 128,-1,33
 76 330 76 330 73.5 289.5 c 128,-1,34
 71 249 71 249 82 213 c 0,35,36
 100 155 100 155 139.5 124 c 128,-1,37
 179 93 179 93 224.5 90 c 128,-1,38
 270 87 270 87 312.5 112.5 c 128,-1,39
 355 138 355 138 379 194 c 0,0,1
472 8 m 0,40,41
 480 9 480 9 486 3.5 c 128,-1,42
 492 -2 492 -2 494 -10 c 0,43,44
 495 -18 495 -18 489.5 -24 c 128,-1,45
 484 -30 484 -30 476 -31 c 0,46,47
 447 -34 447 -34 414 -37 c 0,48,49
 385 -39 385 -39 347 -40.5 c 128,-1,50
 309 -42 309 -42 267 -42 c 2,51,-1
 263 -42 l 2,52,53
 200 -42 200 -42 136.5 -37 c 128,-1,54
 73 -32 73 -32 23 -32 c 0,55,56
 18 -32 18 -32 12.5 -32 c 128,-1,57
 7 -32 7 -32 2 -33 c 0,58,59
 -6 -33 -6 -33 -12 -27.5 c 128,-1,60
 -18 -22 -18 -22 -18 -14 c 0,61,62
 -19 -6 -19 -6 -13.5 0 c 128,-1,63
 -8 6 -8 6 0 7 c 2,64,-1
 23 7 l 2,65,66
 75 7 75 7 139 2 c 128,-1,67
 203 -3 203 -3 263 -3 c 2,68,-1
 267 -3 l 2,69,70
 309 -3 309 -3 346 -1.5 c 128,-1,71
 383 0 383 0 411 2 c 0,72,73
 444 5 444 5 472 8 c 0,40,41
485 614 m 0,74,75
 493 614 493 614 499 608.5 c 128,-1,76
 505 603 505 603 505 595 c 0,77,78
 505 576 505 576 486 574 c 2,79,-1
 485 574 l 1,80,-1
 475 574 l 2,81,82
 424 572 424 572 382 572 c 128,-1,83
 340 572 340 572 305 572 c 0,84,85
 256 572 256 572 220 573 c 128,-1,86
 184 574 184 574 156.5 574.5 c 128,-1,87
 129 575 129 575 106.5 576 c 128,-1,88
 84 577 84 577 63 577 c 0,89,90
 48 577 48 577 32 576.5 c 128,-1,91
 16 576 16 576 -3 575 c 0,92,93
 -11 574 -11 574 -17 579.5 c 128,-1,94
 -23 585 -23 585 -24 593 c 256,95,96
 -25 601 -25 601 -19.5 607 c 128,-1,97
 -14 613 -14 613 -6 614 c 0,98,99
 33 617 33 617 63 617 c 0,100,101
 85 617 85 617 107.5 616 c 128,-1,102
 130 615 130 615 158 614 c 128,-1,103
 186 613 186 613 221.5 612 c 128,-1,104
 257 611 257 611 305 611 c 0,105,106
 341 611 341 611 385 611.5 c 128,-1,107
 429 612 429 612 485 614 c 0,74,75
475 298 m 1,108,-1
 485 298 l 1,109,-1
 485 259 l 1,110,-1
 475 259 l 1,111,-1
 475 298 l 1,108,-1
475 140 m 1,112,-1
 485 140 l 1,113,-1
 485 101 l 1,114,-1
 475 101 l 1,115,-1
 475 140 l 1,112,-1
475 62 m 1,116,-1
 485 62 l 1,117,-1
 485 22 l 1,118,-1
 475 22 l 1,119,-1
 475 62 l 1,116,-1
475 377 m 1,120,-1
 485 377 l 1,121,-1
 485 338 l 1,122,-1
 475 338 l 1,123,-1
 475 377 l 1,120,-1
485 495 m 1,124,-1
 475 495 l 1,125,-1
 475 535 l 1,126,-1
 485 535 l 1,127,-1
 485 495 l 1,124,-1
475 219 m 1,128,-1
 485 219 l 1,129,-1
 485 180 l 1,130,-1
 475 180 l 1,131,-1
 475 219 l 1,128,-1
475 456 m 1,132,-1
 485 456 l 1,133,-1
 485 416 l 1,134,-1
 475 416 l 1,135,-1
 475 456 l 1,132,-1
EndSplineSet
Validated: 33
EndChar

StartChar: D
Encoding: 68 68 19
Width: 482
GlyphClass: 2
Flags: W
LayerCount: 2
Fore
SplineSet
92 513 m 0,0,1
 132 514 132 514 168 514.5 c 128,-1,2
 204 515 204 515 236.5 509.5 c 128,-1,3
 269 504 269 504 299.5 488.5 c 128,-1,4
 330 473 330 473 359 442 c 0,5,6
 379 421 379 421 391.5 394 c 128,-1,7
 404 367 404 367 410 337.5 c 128,-1,8
 416 308 416 308 414.5 278 c 128,-1,9
 413 248 413 248 405 220 c 0,10,11
 387 160 387 160 354.5 128.5 c 128,-1,12
 322 97 322 97 280 82.5 c 128,-1,13
 238 68 238 68 188 65.5 c 128,-1,14
 138 63 138 63 85 62 c 0,15,16
 81 62 81 62 79 63 c 0,17,18
 78 63 78 63 78 63.5 c 128,-1,19
 78 64 78 64 77 64 c 0,20,21
 70 67 70 67 70 76 c 2,22,-1
 70 498 l 2,23,24
 70 507 70 507 76 510.5 c 128,-1,25
 82 514 82 514 89 512 c 0,26,27
 90 512 90 512 90.5 512.5 c 128,-1,28
 91 513 91 513 92 513 c 0,0,1
370 207 m 0,29,30
 379 237 379 237 382 268.5 c 128,-1,31
 385 300 385 300 380 330.5 c 128,-1,32
 375 361 375 361 361 388.5 c 128,-1,33
 347 416 347 416 322 438 c 256,34,35
 297 460 297 460 270.5 470 c 128,-1,36
 244 480 244 480 216.5 483 c 128,-1,37
 189 486 189 486 159.5 485 c 128,-1,38
 130 484 130 484 99 483 c 1,39,-1
 99 92 l 1,40,41
 138 92 138 92 180 93 c 128,-1,42
 222 94 222 94 259.5 103.5 c 128,-1,43
 297 113 297 113 326.5 136.5 c 128,-1,44
 356 160 356 160 370 207 c 0,29,30
474 8 m 0,45,46
 482 9 482 9 488.5 3.5 c 128,-1,47
 495 -2 495 -2 495 -10 c 0,48,49
 496 -18 496 -18 490.5 -24.5 c 128,-1,50
 485 -31 485 -31 477 -32 c 0,51,52
 439 -33 439 -33 396 -34 c 0,53,54
 359 -35 359 -35 312 -35.5 c 128,-1,55
 265 -36 265 -36 214 -36 c 0,56,57
 156 -36 156 -36 100 -36 c 128,-1,58
 44 -36 44 -36 0 -28 c 0,59,60
 -8 -26 -8 -26 -13 -19.5 c 128,-1,61
 -18 -13 -18 -13 -16 -5 c 256,62,63
 -14 3 -14 3 -7.5 8 c 128,-1,64
 -1 13 -1 13 7 11 c 0,65,66
 48 4 48 4 102.5 3.5 c 128,-1,67
 157 3 157 3 214 3 c 0,68,69
 264 3 264 3 310 3.5 c 128,-1,70
 356 4 356 4 393 5 c 0,71,72
 435 6 435 6 474 8 c 0,45,46
486 614 m 0,73,74
 505 614 505 614 507 595 c 0,75,76
 507 587 507 587 501.5 581 c 128,-1,77
 496 575 496 575 488 575 c 2,78,-1
 486 575 l 1,79,-1
 486 571 l 1,80,-1
 477 571 l 1,81,-1
 477 574 l 1,82,83
 406 572 406 572 351.5 571 c 128,-1,84
 297 570 297 570 255.5 570 c 128,-1,85
 214 570 214 570 183 570 c 128,-1,86
 152 570 152 570 127 570 c 0,87,88
 89 570 89 570 59 569 c 128,-1,89
 29 568 29 568 -6 575 c 0,90,91
 -14 577 -14 577 -19 583.5 c 128,-1,92
 -24 590 -24 590 -22 598 c 256,93,94
 -20 606 -20 606 -13.5 611 c 128,-1,95
 -7 616 -7 616 1 614 c 0,96,97
 35 607 35 607 63 608 c 128,-1,98
 91 609 91 609 127 609 c 0,99,100
 152 609 152 609 183.5 609 c 128,-1,101
 215 609 215 609 257.5 609.5 c 128,-1,102
 300 610 300 610 356 611 c 128,-1,103
 412 612 412 612 486 614 c 0,73,74
477 137 m 1,104,-1
 486 137 l 1,105,-1
 486 98 l 1,106,-1
 477 98 l 1,107,-1
 477 137 l 1,104,-1
477 216 m 1,108,-1
 486 216 l 1,109,-1
 486 177 l 1,110,-1
 477 177 l 1,111,-1
 477 216 l 1,108,-1
477 58 m 1,112,-1
 486 58 l 1,113,-1
 486 19 l 1,114,-1
 477 19 l 1,115,-1
 477 58 l 1,112,-1
477 295 m 1,116,-1
 486 295 l 1,117,-1
 486 255 l 1,118,-1
 477 255 l 1,119,-1
 477 295 l 1,116,-1
477 374 m 1,120,-1
 486 374 l 1,121,-1
 486 334 l 1,122,-1
 477 334 l 1,123,-1
 477 374 l 1,120,-1
477 453 m 1,124,-1
 486 453 l 1,125,-1
 486 413 l 1,126,-1
 477 413 l 1,127,-1
 477 453 l 1,124,-1
486 492 m 1,128,-1
 477 492 l 1,129,-1
 477 531 l 1,130,-1
 486 531 l 1,131,-1
 486 492 l 1,128,-1
EndSplineSet
Validated: 33
EndChar

StartChar: E
Encoding: 69 69 20
Width: 479
GlyphClass: 2
Flags: W
LayerCount: 2
Fore
SplineSet
385 199 m 0,0,1
 388 206 388 206 393.5 207.5 c 128,-1,2
 399 209 399 209 404.5 206 c 128,-1,3
 410 203 410 203 412.5 197.5 c 128,-1,4
 415 192 415 192 412 185 c 0,5,6
 393 143 393 143 360 113.5 c 128,-1,7
 327 84 327 84 287.5 71.5 c 128,-1,8
 248 59 248 59 205.5 66 c 128,-1,9
 163 73 163 73 125 104 c 0,10,11
 85 136 85 136 65.5 188.5 c 128,-1,12
 46 241 46 241 47 296.5 c 128,-1,13
 48 352 48 352 71 402 c 128,-1,14
 94 452 94 452 140 481 c 0,15,16
 176 503 176 503 218 510.5 c 128,-1,17
 260 518 260 518 298 509 c 128,-1,18
 336 500 336 500 366.5 473.5 c 128,-1,19
 397 447 397 447 409 401 c 0,20,21
 414 382 414 382 410.5 362 c 128,-1,22
 407 342 407 342 396.5 324 c 128,-1,23
 386 306 386 306 371 291.5 c 128,-1,24
 356 277 356 277 339 269 c 0,25,26
 288 246 288 246 237.5 253 c 128,-1,27
 187 260 187 260 139 288 c 0,28,29
 133 292 133 292 132.5 298 c 128,-1,30
 132 304 132 304 134.5 308.5 c 128,-1,31
 137 313 137 313 142.5 315 c 128,-1,32
 148 317 148 317 154 313 c 0,33,34
 175 301 175 301 201 292 c 128,-1,35
 227 283 227 283 254 281 c 128,-1,36
 281 279 281 279 306 286 c 128,-1,37
 331 293 331 293 350 314 c 0,38,39
 375 342 375 342 379.5 368.5 c 128,-1,40
 384 395 384 395 365 425 c 0,41,42
 340 462 340 462 302.5 476 c 128,-1,43
 265 490 265 490 226 484.5 c 128,-1,44
 187 479 187 479 153 455 c 128,-1,45
 119 431 119 431 101 392 c 0,46,47
 84 356 84 356 80.5 313.5 c 128,-1,48
 77 271 77 271 86.5 230.5 c 128,-1,49
 96 190 96 190 118.5 157 c 128,-1,50
 141 124 141 124 176 108 c 0,51,52
 209 93 209 93 240.5 94 c 128,-1,53
 272 95 272 95 299.5 107.5 c 128,-1,54
 327 120 327 120 349 143.5 c 128,-1,55
 371 167 371 167 385 199 c 0,0,1
473 11 m 0,56,57
 481 11 481 11 487 5 c 128,-1,58
 493 -1 493 -1 493 -9 c 256,59,60
 493 -17 493 -17 487 -23 c 128,-1,61
 481 -29 481 -29 473 -29 c 2,62,63
 473 -29 473 -29 452 -28.5 c 128,-1,64
 431 -28 431 -28 397 -28 c 128,-1,65
 363 -28 363 -28 318.5 -27.5 c 128,-1,66
 274 -27 274 -27 226 -27 c 0,67,68
 165 -27 165 -27 105.5 -27.5 c 128,-1,69
 46 -28 46 -28 1 -30 c 2,70,-1
 0 -30 l 2,71,72
 -8 -30 -8 -30 -13.5 -24.5 c 128,-1,73
 -19 -19 -19 -19 -19 -11 c 0,74,75
 -20 -3 -20 -3 -14 3 c 128,-1,76
 -8 9 -8 9 0 10 c 0,77,78
 45 12 45 12 105 12.5 c 128,-1,79
 165 13 165 13 226 13 c 0,80,81
 274 13 274 13 318 12.5 c 128,-1,82
 362 12 362 12 397 12 c 0,83,84
 437 11 437 11 473 11 c 0,56,57
484 617 m 0,85,86
 492 617 492 617 498 611.5 c 128,-1,87
 504 606 504 606 504 598 c 256,88,89
 504 590 504 590 498.5 584 c 128,-1,90
 493 578 493 578 485 578 c 0,91,92
 484 578 484 578 484 577 c 2,93,-1
 474 577 l 2,94,95
 403 575 403 575 348.5 573.5 c 128,-1,96
 294 572 294 572 252.5 571.5 c 128,-1,97
 211 571 211 571 180 570.5 c 128,-1,98
 149 570 149 570 124 570 c 0,99,100
 86 570 86 570 56.5 570.5 c 128,-1,101
 27 571 27 571 -9 578 c 0,102,103
 -17 580 -17 580 -22 586.5 c 128,-1,104
 -27 593 -27 593 -25 601 c 256,105,106
 -23 609 -23 609 -16.5 614 c 128,-1,107
 -10 619 -10 619 -2 617 c 0,108,109
 33 611 33 611 60.5 610.5 c 128,-1,110
 88 610 88 610 124 610 c 0,111,112
 149 610 149 610 180.5 610 c 128,-1,113
 212 610 212 610 254.5 611 c 128,-1,114
 297 612 297 612 353.5 613.5 c 128,-1,115
 410 615 410 615 484 617 c 0,85,86
474 380 m 1,116,-1
 484 380 l 1,117,-1
 484 341 l 1,118,-1
 474 341 l 1,119,-1
 474 380 l 1,116,-1
474 65 m 1,120,-1
 484 65 l 1,121,-1
 484 25 l 1,122,-1
 474 25 l 1,123,-1
 474 65 l 1,120,-1
474 143 m 1,124,-1
 484 143 l 1,125,-1
 484 104 l 1,126,-1
 474 104 l 1,127,-1
 474 143 l 1,124,-1
474 459 m 1,128,-1
 484 459 l 1,129,-1
 484 419 l 1,130,-1
 474 419 l 1,131,-1
 474 459 l 1,128,-1
474 301 m 1,132,-1
 484 301 l 1,133,-1
 484 262 l 1,134,-1
 474 262 l 1,135,-1
 474 301 l 1,132,-1
474 222 m 1,136,-1
 484 222 l 1,137,-1
 484 183 l 1,138,-1
 474 183 l 1,139,-1
 474 222 l 1,136,-1
484 498 m 1,140,-1
 474 498 l 1,141,-1
 474 538 l 1,142,-1
 484 538 l 1,143,-1
 484 498 l 1,140,-1
EndSplineSet
Validated: 33
EndChar

StartChar: F
Encoding: 70 70 21
Width: 479
GlyphClass: 2
Flags: W
LayerCount: 2
Fore
SplineSet
402 515 m 0,0,1
 409 515 409 515 413 510.5 c 128,-1,2
 417 506 417 506 417 500.5 c 128,-1,3
 417 495 417 495 413 490.5 c 128,-1,4
 409 486 409 486 402 486 c 0,5,6
 331 485 331 485 260.5 485 c 128,-1,7
 190 485 190 485 118 485 c 1,8,-1
 118 248 l 1,9,-1
 119 248 l 2,10,11
 163 248 163 248 206 248 c 128,-1,12
 249 248 249 248 293 247 c 0,13,14
 300 247 300 247 303.5 242.5 c 128,-1,15
 307 238 307 238 307 232.5 c 128,-1,16
 307 227 307 227 303.5 222.5 c 128,-1,17
 300 218 300 218 293 218 c 2,18,-1
 119 218 l 2,19,20
 118 218 118 218 118 219 c 2,21,-1
 118 76 l 2,22,23
 118 69 118 69 113.5 65.5 c 128,-1,24
 109 62 109 62 103 62 c 128,-1,25
 97 62 97 62 92.5 65.5 c 128,-1,26
 88 69 88 69 88 76 c 2,27,-1
 88 500 l 2,28,29
 88 509 88 509 95 512 c 128,-1,30
 102 515 102 515 109 513 c 0,31,32
 110 514 110 514 114 514 c 0,33,34
 186 515 186 515 258 515 c 128,-1,35
 330 515 330 515 402 515 c 0,0,1
472 8 m 0,36,37
 480 9 480 9 486 3.5 c 128,-1,38
 492 -2 492 -2 494 -10 c 0,39,40
 495 -18 495 -18 489.5 -24 c 128,-1,41
 484 -30 484 -30 476 -31 c 0,42,43
 447 -34 447 -34 414 -37 c 0,44,45
 385 -39 385 -39 347 -40.5 c 128,-1,46
 309 -42 309 -42 267 -42 c 2,47,-1
 263 -42 l 2,48,49
 200 -42 200 -42 136.5 -37 c 128,-1,50
 73 -32 73 -32 23 -32 c 0,51,52
 18 -32 18 -32 12.5 -32 c 128,-1,53
 7 -32 7 -32 2 -33 c 0,54,55
 -6 -33 -6 -33 -12 -27.5 c 128,-1,56
 -18 -22 -18 -22 -18 -14 c 0,57,58
 -19 -6 -19 -6 -13.5 0 c 128,-1,59
 -8 6 -8 6 0 7 c 2,60,-1
 23 7 l 2,61,62
 75 7 75 7 139 2 c 128,-1,63
 203 -3 203 -3 263 -3 c 2,64,-1
 267 -3 l 2,65,66
 309 -3 309 -3 346 -1.5 c 128,-1,67
 383 0 383 0 411 2 c 0,68,69
 444 5 444 5 472 8 c 0,36,37
485 614 m 0,70,71
 493 614 493 614 499 608.5 c 128,-1,72
 505 603 505 603 505 595 c 0,73,74
 505 576 505 576 486 574 c 2,75,-1
 485 574 l 1,76,-1
 475 574 l 2,77,78
 424 572 424 572 382 572 c 128,-1,79
 340 572 340 572 305 572 c 0,80,81
 256 572 256 572 220 573 c 128,-1,82
 184 574 184 574 156.5 574.5 c 128,-1,83
 129 575 129 575 106.5 576 c 128,-1,84
 84 577 84 577 63 577 c 0,85,86
 48 577 48 577 32 576.5 c 128,-1,87
 16 576 16 576 -3 575 c 0,88,89
 -11 574 -11 574 -17 579.5 c 128,-1,90
 -23 585 -23 585 -24 593 c 256,91,92
 -25 601 -25 601 -19.5 607 c 128,-1,93
 -14 613 -14 613 -6 614 c 0,94,95
 33 617 33 617 63 617 c 0,96,97
 85 617 85 617 107.5 616 c 128,-1,98
 130 615 130 615 158 614 c 128,-1,99
 186 613 186 613 221.5 612 c 128,-1,100
 257 611 257 611 305 611 c 0,101,102
 341 611 341 611 385 611.5 c 128,-1,103
 429 612 429 612 485 614 c 0,70,71
475 298 m 1,104,-1
 485 298 l 1,105,-1
 485 259 l 1,106,-1
 475 259 l 1,107,-1
 475 298 l 1,104,-1
475 140 m 1,108,-1
 485 140 l 1,109,-1
 485 101 l 1,110,-1
 475 101 l 1,111,-1
 475 140 l 1,108,-1
475 62 m 1,112,-1
 485 62 l 1,113,-1
 485 22 l 1,114,-1
 475 22 l 1,115,-1
 475 62 l 1,112,-1
475 377 m 1,116,-1
 485 377 l 1,117,-1
 485 338 l 1,118,-1
 475 338 l 1,119,-1
 475 377 l 1,116,-1
485 495 m 1,120,-1
 475 495 l 1,121,-1
 475 535 l 1,122,-1
 485 535 l 1,123,-1
 485 495 l 1,120,-1
475 219 m 1,124,-1
 485 219 l 1,125,-1
 485 180 l 1,126,-1
 475 180 l 1,127,-1
 475 219 l 1,124,-1
475 456 m 1,128,-1
 485 456 l 1,129,-1
 485 416 l 1,130,-1
 475 416 l 1,131,-1
 475 456 l 1,128,-1
EndSplineSet
Validated: 1
EndChar

StartChar: G
Encoding: 71 71 22
Width: 483
GlyphClass: 2
Flags: W
LayerCount: 2
Fore
SplineSet
302 244 m 0,0,1
 312 244 312 244 328.5 245 c 128,-1,2
 345 246 345 246 362.5 244.5 c 128,-1,3
 380 243 380 243 394 238 c 128,-1,4
 408 233 408 233 413 220 c 0,5,6
 419 205 419 205 417 187.5 c 128,-1,7
 415 170 415 170 407.5 153.5 c 128,-1,8
 400 137 400 137 388.5 122.5 c 128,-1,9
 377 108 377 108 365 99 c 0,10,11
 326 71 326 71 284.5 65 c 128,-1,12
 243 59 243 59 203.5 70.5 c 128,-1,13
 164 82 164 82 130.5 109.5 c 128,-1,14
 97 137 97 137 75 177 c 256,15,16
 53 217 53 217 53 267 c 128,-1,17
 53 317 53 317 70.5 365 c 128,-1,18
 88 413 88 413 120 451.5 c 128,-1,19
 152 490 152 490 195 507 c 0,20,21
 232 521 232 521 268.5 517 c 128,-1,22
 305 513 305 513 333.5 495 c 128,-1,23
 362 477 362 477 381 446 c 128,-1,24
 400 415 400 415 403 376 c 0,25,26
 403 369 403 369 398.5 365.5 c 128,-1,27
 394 362 394 362 388.5 362 c 128,-1,28
 383 362 383 362 378 365.5 c 128,-1,29
 373 369 373 369 373 376 c 0,30,31
 370 417 370 417 347.5 444 c 128,-1,32
 325 471 325 471 293.5 481.5 c 128,-1,33
 262 492 262 492 226.5 484.5 c 128,-1,34
 191 477 191 477 163 450 c 0,35,36
 140 429 140 429 122 400 c 128,-1,37
 104 371 104 371 93.5 338.5 c 128,-1,38
 83 306 83 306 82.5 272 c 128,-1,39
 82 238 82 238 94 208 c 256,40,41
 106 178 106 178 128 152.5 c 128,-1,42
 150 127 150 127 178 111 c 128,-1,43
 206 95 206 95 238.5 91 c 128,-1,44
 271 87 271 87 304 99 c 0,45,46
 318 105 318 105 333 113 c 128,-1,47
 348 121 348 121 359 133 c 0,48,49
 368 141 368 141 375.5 154 c 128,-1,50
 383 167 383 167 385.5 179 c 128,-1,51
 388 191 388 191 385.5 200.5 c 128,-1,52
 383 210 383 210 373 212 c 0,53,54
 355 214 355 214 337.5 214 c 128,-1,55
 320 214 320 214 302 214 c 0,56,57
 295 214 295 214 291.5 218.5 c 128,-1,58
 288 223 288 223 288 228.5 c 128,-1,59
 288 234 288 234 291.5 239 c 128,-1,60
 295 244 295 244 302 244 c 0,0,1
474 8 m 0,61,62
 482 9 482 9 488.5 3.5 c 128,-1,63
 495 -2 495 -2 495 -10 c 0,64,65
 496 -18 496 -18 490.5 -24.5 c 128,-1,66
 485 -31 485 -31 477 -32 c 0,67,68
 439 -33 439 -33 396 -34 c 0,69,70
 359 -35 359 -35 312 -35.5 c 128,-1,71
 265 -36 265 -36 214 -36 c 0,72,73
 156 -36 156 -36 100 -36 c 128,-1,74
 44 -36 44 -36 0 -28 c 0,75,76
 -8 -26 -8 -26 -13 -19.5 c 128,-1,77
 -18 -13 -18 -13 -16 -5 c 256,78,79
 -14 3 -14 3 -7.5 8 c 128,-1,80
 -1 13 -1 13 7 11 c 0,81,82
 48 4 48 4 102.5 3.5 c 128,-1,83
 157 3 157 3 214 3 c 0,84,85
 264 3 264 3 310 3.5 c 128,-1,86
 356 4 356 4 393 5 c 0,87,88
 435 6 435 6 474 8 c 0,61,62
486 614 m 0,89,90
 505 614 505 614 507 595 c 0,91,92
 507 587 507 587 501.5 581 c 128,-1,93
 496 575 496 575 488 575 c 2,94,-1
 486 575 l 1,95,-1
 486 571 l 1,96,-1
 477 571 l 1,97,-1
 477 574 l 1,98,99
 406 572 406 572 351.5 571 c 128,-1,100
 297 570 297 570 255.5 570 c 128,-1,101
 214 570 214 570 183 570 c 128,-1,102
 152 570 152 570 127 570 c 0,103,104
 89 570 89 570 59 569 c 128,-1,105
 29 568 29 568 -6 575 c 0,106,107
 -14 577 -14 577 -19 583.5 c 128,-1,108
 -24 590 -24 590 -22 598 c 256,109,110
 -20 606 -20 606 -13.5 611 c 128,-1,111
 -7 616 -7 616 1 614 c 0,112,113
 35 607 35 607 63 608 c 128,-1,114
 91 609 91 609 127 609 c 0,115,116
 152 609 152 609 183.5 609 c 128,-1,117
 215 609 215 609 257.5 609.5 c 128,-1,118
 300 610 300 610 356 611 c 128,-1,119
 412 612 412 612 486 614 c 0,89,90
477 137 m 1,120,-1
 486 137 l 1,121,-1
 486 98 l 1,122,-1
 477 98 l 1,123,-1
 477 137 l 1,120,-1
477 216 m 1,124,-1
 486 216 l 1,125,-1
 486 177 l 1,126,-1
 477 177 l 1,127,-1
 477 216 l 1,124,-1
477 58 m 1,128,-1
 486 58 l 1,129,-1
 486 19 l 1,130,-1
 477 19 l 1,131,-1
 477 58 l 1,128,-1
477 295 m 1,132,-1
 486 295 l 1,133,-1
 486 255 l 1,134,-1
 477 255 l 1,135,-1
 477 295 l 1,132,-1
477 374 m 1,136,-1
 486 374 l 1,137,-1
 486 334 l 1,138,-1
 477 334 l 1,139,-1
 477 374 l 1,136,-1
477 453 m 1,140,-1
 486 453 l 1,141,-1
 486 413 l 1,142,-1
 477 413 l 1,143,-1
 477 453 l 1,140,-1
486 492 m 1,144,-1
 477 492 l 1,145,-1
 477 531 l 1,146,-1
 486 531 l 1,147,-1
 486 492 l 1,144,-1
EndSplineSet
Validated: 33
EndChar

StartChar: H
Encoding: 72 72 23
Width: 480
GlyphClass: 2
Flags: W
LayerCount: 2
Fore
SplineSet
379 488 m 2,0,1
 379 495 379 495 383.5 498.5 c 128,-1,2
 388 502 388 502 394 502 c 128,-1,3
 400 502 400 502 404.5 498.5 c 128,-1,4
 409 495 409 495 409 488 c 2,5,-1
 409 78 l 2,6,7
 409 71 409 71 404.5 67.5 c 128,-1,8
 400 64 400 64 394 64 c 128,-1,9
 388 64 388 64 383.5 67.5 c 128,-1,10
 379 71 379 71 379 78 c 2,11,-1
 379 205 l 1,12,-1
 95 205 l 1,13,-1
 95 78 l 2,14,15
 95 71 95 71 90.5 67.5 c 128,-1,16
 86 64 86 64 80 64 c 128,-1,17
 74 64 74 64 69.5 67.5 c 128,-1,18
 65 71 65 71 65 78 c 2,19,-1
 65 488 l 2,20,21
 65 495 65 495 69.5 498.5 c 128,-1,22
 74 502 74 502 80 502 c 128,-1,23
 86 502 86 502 90.5 498.5 c 128,-1,24
 95 495 95 495 95 488 c 2,25,-1
 95 235 l 1,26,-1
 379 235 l 1,27,-1
 379 488 l 2,0,1
473 11 m 0,28,29
 481 11 481 11 487 5 c 128,-1,30
 493 -1 493 -1 493 -9 c 256,31,32
 493 -17 493 -17 487 -23 c 128,-1,33
 481 -29 481 -29 473 -29 c 2,34,35
 473 -29 473 -29 452 -28.5 c 128,-1,36
 431 -28 431 -28 397 -28 c 128,-1,37
 363 -28 363 -28 318.5 -27.5 c 128,-1,38
 274 -27 274 -27 226 -27 c 0,39,40
 165 -27 165 -27 105.5 -27.5 c 128,-1,41
 46 -28 46 -28 1 -30 c 2,42,-1
 0 -30 l 2,43,44
 -8 -30 -8 -30 -13.5 -24.5 c 128,-1,45
 -19 -19 -19 -19 -19 -11 c 0,46,47
 -20 -3 -20 -3 -14 3 c 128,-1,48
 -8 9 -8 9 0 10 c 0,49,50
 45 12 45 12 105 12.5 c 128,-1,51
 165 13 165 13 226 13 c 0,52,53
 274 13 274 13 318 12.5 c 128,-1,54
 362 12 362 12 397 12 c 0,55,56
 437 11 437 11 473 11 c 0,28,29
484 617 m 0,57,58
 492 617 492 617 498 611.5 c 128,-1,59
 504 606 504 606 504 598 c 256,60,61
 504 590 504 590 498.5 584 c 128,-1,62
 493 578 493 578 485 578 c 0,63,64
 484 578 484 578 484 577 c 2,65,-1
 474 577 l 2,66,67
 403 575 403 575 348.5 573.5 c 128,-1,68
 294 572 294 572 252.5 571.5 c 128,-1,69
 211 571 211 571 180 570.5 c 128,-1,70
 149 570 149 570 124 570 c 0,71,72
 86 570 86 570 56.5 570.5 c 128,-1,73
 27 571 27 571 -9 578 c 0,74,75
 -17 580 -17 580 -22 586.5 c 128,-1,76
 -27 593 -27 593 -25 601 c 256,77,78
 -23 609 -23 609 -16.5 614 c 128,-1,79
 -10 619 -10 619 -2 617 c 0,80,81
 33 611 33 611 60.5 610.5 c 128,-1,82
 88 610 88 610 124 610 c 0,83,84
 149 610 149 610 180.5 610 c 128,-1,85
 212 610 212 610 254.5 611 c 128,-1,86
 297 612 297 612 353.5 613.5 c 128,-1,87
 410 615 410 615 484 617 c 0,57,58
474 380 m 1,88,-1
 484 380 l 1,89,-1
 484 341 l 1,90,-1
 474 341 l 1,91,-1
 474 380 l 1,88,-1
474 65 m 1,92,-1
 484 65 l 1,93,-1
 484 25 l 1,94,-1
 474 25 l 1,95,-1
 474 65 l 1,92,-1
474 143 m 1,96,-1
 484 143 l 1,97,-1
 484 104 l 1,98,-1
 474 104 l 1,99,-1
 474 143 l 1,96,-1
474 459 m 1,100,-1
 484 459 l 1,101,-1
 484 419 l 1,102,-1
 474 419 l 1,103,-1
 474 459 l 1,100,-1
474 301 m 1,104,-1
 484 301 l 1,105,-1
 484 262 l 1,106,-1
 474 262 l 1,107,-1
 474 301 l 1,104,-1
474 222 m 1,108,-1
 484 222 l 1,109,-1
 484 183 l 1,110,-1
 474 183 l 1,111,-1
 474 222 l 1,108,-1
484 498 m 1,112,-1
 474 498 l 1,113,-1
 474 538 l 1,114,-1
 484 538 l 1,115,-1
 484 498 l 1,112,-1
EndSplineSet
Validated: 1
EndChar

StartChar: I
Encoding: 73 73 24
Width: 479
GlyphClass: 2
Flags: W
LayerCount: 2
Fore
SplineSet
241 528 m 0,0,1
 255 529 255 529 268 521 c 128,-1,2
 281 513 281 513 280 497 c 0,3,4
 280 486 280 486 271 477 c 0,5,6
 270 475 270 475 267 472 c 0,7,8
 260 467 260 467 253.5 466 c 128,-1,9
 247 465 247 465 240 465 c 2,10,-1
 238 465 l 2,11,12
 229 466 229 466 221.5 471 c 128,-1,13
 214 476 214 476 210 486 c 0,14,15
 204 502 204 502 214.5 514 c 128,-1,16
 225 526 225 526 241 528 c 0,0,1
241 495 m 0,17,18
 246 496 246 496 249.5 498 c 128,-1,19
 253 500 253 500 245 499 c 0,20,21
 239 498 239 498 239 496.5 c 128,-1,22
 239 495 239 495 241 495 c 0,17,18
225 423 m 2,23,24
 225 430 225 430 229.5 433.5 c 128,-1,25
 234 437 234 437 240 437 c 128,-1,26
 246 437 246 437 250.5 433.5 c 128,-1,27
 255 430 255 430 255 423 c 2,28,-1
 255 75 l 2,29,30
 255 68 255 68 250.5 64.5 c 128,-1,31
 246 61 246 61 240 61 c 128,-1,32
 234 61 234 61 229.5 64.5 c 128,-1,33
 225 68 225 68 225 75 c 2,34,-1
 225 423 l 2,23,24
472 8 m 0,35,36
 480 9 480 9 486 3.5 c 128,-1,37
 492 -2 492 -2 494 -10 c 0,38,39
 495 -18 495 -18 489.5 -24 c 128,-1,40
 484 -30 484 -30 476 -31 c 0,41,42
 447 -34 447 -34 414 -37 c 0,43,44
 385 -39 385 -39 347 -40.5 c 128,-1,45
 309 -42 309 -42 267 -42 c 2,46,-1
 263 -42 l 2,47,48
 200 -42 200 -42 136.5 -37 c 128,-1,49
 73 -32 73 -32 23 -32 c 0,50,51
 18 -32 18 -32 12.5 -32 c 128,-1,52
 7 -32 7 -32 2 -33 c 0,53,54
 -6 -33 -6 -33 -12 -27.5 c 128,-1,55
 -18 -22 -18 -22 -18 -14 c 0,56,57
 -19 -6 -19 -6 -13.5 0 c 128,-1,58
 -8 6 -8 6 0 7 c 2,59,-1
 23 7 l 2,60,61
 75 7 75 7 139 2 c 128,-1,62
 203 -3 203 -3 263 -3 c 2,63,-1
 267 -3 l 2,64,65
 309 -3 309 -3 346 -1.5 c 128,-1,66
 383 0 383 0 411 2 c 0,67,68
 444 5 444 5 472 8 c 0,35,36
485 614 m 0,69,70
 493 614 493 614 499 608.5 c 128,-1,71
 505 603 505 603 505 595 c 0,72,73
 505 576 505 576 486 574 c 2,74,-1
 485 574 l 1,75,-1
 475 574 l 2,76,77
 424 572 424 572 382 572 c 128,-1,78
 340 572 340 572 305 572 c 0,79,80
 256 572 256 572 220 573 c 128,-1,81
 184 574 184 574 156.5 574.5 c 128,-1,82
 129 575 129 575 106.5 576 c 128,-1,83
 84 577 84 577 63 577 c 0,84,85
 48 577 48 577 32 576.5 c 128,-1,86
 16 576 16 576 -3 575 c 0,87,88
 -11 574 -11 574 -17 579.5 c 128,-1,89
 -23 585 -23 585 -24 593 c 256,90,91
 -25 601 -25 601 -19.5 607 c 128,-1,92
 -14 613 -14 613 -6 614 c 0,93,94
 33 617 33 617 63 617 c 0,95,96
 85 617 85 617 107.5 616 c 128,-1,97
 130 615 130 615 158 614 c 128,-1,98
 186 613 186 613 221.5 612 c 128,-1,99
 257 611 257 611 305 611 c 0,100,101
 341 611 341 611 385 611.5 c 128,-1,102
 429 612 429 612 485 614 c 0,69,70
475 298 m 1,103,-1
 485 298 l 1,104,-1
 485 259 l 1,105,-1
 475 259 l 1,106,-1
 475 298 l 1,103,-1
475 140 m 1,107,-1
 485 140 l 1,108,-1
 485 101 l 1,109,-1
 475 101 l 1,110,-1
 475 140 l 1,107,-1
475 62 m 1,111,-1
 485 62 l 1,112,-1
 485 22 l 1,113,-1
 475 22 l 1,114,-1
 475 62 l 1,111,-1
475 377 m 1,115,-1
 485 377 l 1,116,-1
 485 338 l 1,117,-1
 475 338 l 1,118,-1
 475 377 l 1,115,-1
485 495 m 1,119,-1
 475 495 l 1,120,-1
 475 535 l 1,121,-1
 485 535 l 1,122,-1
 485 495 l 1,119,-1
475 219 m 1,123,-1
 485 219 l 1,124,-1
 485 180 l 1,125,-1
 475 180 l 1,126,-1
 475 219 l 1,123,-1
475 456 m 1,127,-1
 485 456 l 1,128,-1
 485 416 l 1,129,-1
 475 416 l 1,130,-1
 475 456 l 1,127,-1
EndSplineSet
Validated: 1
EndChar

StartChar: J
Encoding: 74 74 25
Width: 482
GlyphClass: 2
Flags: W
LayerCount: 2
Fore
SplineSet
412 504 m 2,0,1
 419 504 419 504 422.5 499.5 c 128,-1,2
 426 495 426 495 426 489 c 0,3,4
 426 484 426 484 422.5 479.5 c 128,-1,5
 419 475 419 475 412 475 c 2,6,-1
 271 475 l 1,7,8
 270 426 270 426 270 377.5 c 128,-1,9
 270 329 270 329 270 280 c 1,10,11
 282 278 282 278 282 266 c 0,12,13
 282 253 282 253 270 252 c 1,14,15
 270 235 270 235 271 214 c 128,-1,16
 272 193 272 193 272 167 c 0,17,18
 272 146 272 146 266 126.5 c 128,-1,19
 260 107 260 107 250 92 c 128,-1,20
 240 77 240 77 226.5 68.5 c 128,-1,21
 213 60 213 60 198 60 c 0,22,23
 176 60 176 60 156 69 c 128,-1,24
 136 78 136 78 120.5 93 c 128,-1,25
 105 108 105 108 96 128.5 c 128,-1,26
 87 149 87 149 87 172 c 0,27,28
 87 205 87 205 101.5 225 c 128,-1,29
 116 245 116 245 138.5 257 c 128,-1,30
 161 269 161 269 188 273.5 c 128,-1,31
 215 278 215 278 241 280 c 1,32,-1
 241 475 l 1,33,-1
 74 475 l 2,34,35
 66 475 66 475 63 479.5 c 128,-1,36
 60 484 60 484 60 489 c 0,37,38
 60 495 60 495 63 499.5 c 128,-1,39
 66 504 66 504 74 504 c 2,40,-1
 412 504 l 2,0,1
138 116 m 0,41,42
 164 93 164 93 187 93 c 0,43,44
 213 93 213 93 227 118.5 c 128,-1,45
 241 144 241 144 241 178 c 2,46,-1
 241 251 l 1,47,48
 220 250 220 250 197.5 246.5 c 128,-1,49
 175 243 175 243 156.5 234.5 c 128,-1,50
 138 226 138 226 126.5 210 c 128,-1,51
 115 194 115 194 115 169 c 0,52,53
 115 137 115 137 138 116 c 0,41,42
474 8 m 0,54,55
 482 9 482 9 488.5 3.5 c 128,-1,56
 495 -2 495 -2 495 -10 c 0,57,58
 496 -18 496 -18 490.5 -24.5 c 128,-1,59
 485 -31 485 -31 477 -32 c 0,60,61
 439 -33 439 -33 396 -34 c 0,62,63
 359 -35 359 -35 312 -35.5 c 128,-1,64
 265 -36 265 -36 214 -36 c 0,65,66
 156 -36 156 -36 100 -36 c 128,-1,67
 44 -36 44 -36 0 -28 c 0,68,69
 -8 -26 -8 -26 -13 -19.5 c 128,-1,70
 -18 -13 -18 -13 -16 -5 c 256,71,72
 -14 3 -14 3 -7.5 8 c 128,-1,73
 -1 13 -1 13 7 11 c 0,74,75
 48 4 48 4 102.5 3.5 c 128,-1,76
 157 3 157 3 214 3 c 0,77,78
 264 3 264 3 310 3.5 c 128,-1,79
 356 4 356 4 393 5 c 0,80,81
 435 6 435 6 474 8 c 0,54,55
486 614 m 0,82,83
 505 614 505 614 507 595 c 0,84,85
 507 587 507 587 501.5 581 c 128,-1,86
 496 575 496 575 488 575 c 2,87,-1
 486 575 l 1,88,-1
 486 571 l 1,89,-1
 477 571 l 1,90,-1
 477 574 l 1,91,92
 406 572 406 572 351.5 571 c 128,-1,93
 297 570 297 570 255.5 570 c 128,-1,94
 214 570 214 570 183 570 c 128,-1,95
 152 570 152 570 127 570 c 0,96,97
 89 570 89 570 59 569 c 128,-1,98
 29 568 29 568 -6 575 c 0,99,100
 -14 577 -14 577 -19 583.5 c 128,-1,101
 -24 590 -24 590 -22 598 c 256,102,103
 -20 606 -20 606 -13.5 611 c 128,-1,104
 -7 616 -7 616 1 614 c 0,105,106
 35 607 35 607 63 608 c 128,-1,107
 91 609 91 609 127 609 c 0,108,109
 152 609 152 609 183.5 609 c 128,-1,110
 215 609 215 609 257.5 609.5 c 128,-1,111
 300 610 300 610 356 611 c 128,-1,112
 412 612 412 612 486 614 c 0,82,83
477 137 m 1,113,-1
 486 137 l 1,114,-1
 486 98 l 1,115,-1
 477 98 l 1,116,-1
 477 137 l 1,113,-1
477 216 m 1,117,-1
 486 216 l 1,118,-1
 486 177 l 1,119,-1
 477 177 l 1,120,-1
 477 216 l 1,117,-1
477 58 m 1,121,-1
 486 58 l 1,122,-1
 486 19 l 1,123,-1
 477 19 l 1,124,-1
 477 58 l 1,121,-1
477 295 m 1,125,-1
 486 295 l 1,126,-1
 486 255 l 1,127,-1
 477 255 l 1,128,-1
 477 295 l 1,125,-1
477 374 m 1,129,-1
 486 374 l 1,130,-1
 486 334 l 1,131,-1
 477 334 l 1,132,-1
 477 374 l 1,129,-1
477 453 m 1,133,-1
 486 453 l 1,134,-1
 486 413 l 1,135,-1
 477 413 l 1,136,-1
 477 453 l 1,133,-1
486 492 m 1,137,-1
 477 492 l 1,138,-1
 477 531 l 1,139,-1
 486 531 l 1,140,-1
 486 492 l 1,137,-1
EndSplineSet
Validated: 33
EndChar

StartChar: K
Encoding: 75 75 26
Width: 481
GlyphClass: 2
Flags: W
LayerCount: 2
Fore
SplineSet
187 246 m 1,0,1
 246 209 246 209 304 170.5 c 128,-1,2
 362 132 362 132 416 87 c 0,3,4
 422 82 422 82 421 76.5 c 128,-1,5
 420 71 420 71 416 67.5 c 128,-1,6
 412 64 412 64 406 62.5 c 128,-1,7
 400 61 400 61 395 66 c 0,8,9
 339 113 339 113 276.5 156.5 c 128,-1,10
 214 200 214 200 149 235 c 1,11,12
 142 233 142 233 135.5 232 c 128,-1,13
 129 231 129 231 122 230 c 1,14,-1
 122 76 l 2,15,16
 122 69 122 69 117.5 65.5 c 128,-1,17
 113 62 113 62 107.5 62 c 128,-1,18
 102 62 102 62 97.5 65.5 c 128,-1,19
 93 69 93 69 93 76 c 2,20,-1
 93 232 l 1,21,22
 79 235 79 235 69.5 245 c 128,-1,23
 60 255 60 255 60 274 c 0,24,25
 60 290 60 290 69.5 293.5 c 128,-1,26
 79 297 79 297 93 294 c 1,27,-1
 93 500 l 2,28,29
 93 507 93 507 97.5 510.5 c 128,-1,30
 102 514 102 514 107.5 514 c 128,-1,31
 113 514 113 514 117.5 510.5 c 128,-1,32
 122 507 122 507 122 500 c 2,33,-1
 122 283 l 1,34,35
 131 279 131 279 139.5 274.5 c 128,-1,36
 148 270 148 270 156 265 c 1,37,38
 179 273 179 273 199.5 283.5 c 128,-1,39
 220 294 220 294 239 308 c 0,40,41
 262 324 262 324 285.5 344.5 c 128,-1,42
 309 365 309 365 328.5 389 c 128,-1,43
 348 413 348 413 361 440 c 128,-1,44
 374 467 374 467 376 497 c 0,45,46
 376 504 376 504 381 507.5 c 128,-1,47
 386 511 386 511 391.5 511 c 128,-1,48
 397 511 397 511 401.5 507.5 c 128,-1,49
 406 504 406 504 405 497 c 0,50,51
 403 458 403 458 384.5 421.5 c 128,-1,52
 366 385 366 385 338 353.5 c 128,-1,53
 310 322 310 322 276 296.5 c 128,-1,54
 242 271 242 271 209 255 c 0,55,56
 205 253 205 253 199.5 250.5 c 128,-1,57
 194 248 194 248 187 246 c 1,0,1
472 8 m 0,58,59
 480 9 480 9 486 3.5 c 128,-1,60
 492 -2 492 -2 494 -10 c 0,61,62
 495 -18 495 -18 489.5 -24 c 128,-1,63
 484 -30 484 -30 476 -31 c 0,64,65
 447 -34 447 -34 414 -37 c 0,66,67
 385 -39 385 -39 347 -40.5 c 128,-1,68
 309 -42 309 -42 267 -42 c 2,69,-1
 263 -42 l 2,70,71
 200 -42 200 -42 136.5 -37 c 128,-1,72
 73 -32 73 -32 23 -32 c 0,73,74
 18 -32 18 -32 12.5 -32 c 128,-1,75
 7 -32 7 -32 2 -33 c 0,76,77
 -6 -33 -6 -33 -12 -27.5 c 128,-1,78
 -18 -22 -18 -22 -18 -14 c 0,79,80
 -19 -6 -19 -6 -13.5 0 c 128,-1,81
 -8 6 -8 6 0 7 c 2,82,-1
 23 7 l 2,83,84
 75 7 75 7 139 2 c 128,-1,85
 203 -3 203 -3 263 -3 c 2,86,-1
 267 -3 l 2,87,88
 309 -3 309 -3 346 -1.5 c 128,-1,89
 383 0 383 0 411 2 c 0,90,91
 444 5 444 5 472 8 c 0,58,59
485 614 m 0,92,93
 493 614 493 614 499 608.5 c 128,-1,94
 505 603 505 603 505 595 c 0,95,96
 505 576 505 576 486 574 c 2,97,-1
 485 574 l 1,98,-1
 475 574 l 2,99,100
 424 572 424 572 382 572 c 128,-1,101
 340 572 340 572 305 572 c 0,102,103
 256 572 256 572 220 573 c 128,-1,104
 184 574 184 574 156.5 574.5 c 128,-1,105
 129 575 129 575 106.5 576 c 128,-1,106
 84 577 84 577 63 577 c 0,107,108
 48 577 48 577 32 576.5 c 128,-1,109
 16 576 16 576 -3 575 c 0,110,111
 -11 574 -11 574 -17 579.5 c 128,-1,112
 -23 585 -23 585 -24 593 c 256,113,114
 -25 601 -25 601 -19.5 607 c 128,-1,115
 -14 613 -14 613 -6 614 c 0,116,117
 33 617 33 617 63 617 c 0,118,119
 85 617 85 617 107.5 616 c 128,-1,120
 130 615 130 615 158 614 c 128,-1,121
 186 613 186 613 221.5 612 c 128,-1,122
 257 611 257 611 305 611 c 0,123,124
 341 611 341 611 385 611.5 c 128,-1,125
 429 612 429 612 485 614 c 0,92,93
475 298 m 1,126,-1
 485 298 l 1,127,-1
 485 259 l 1,128,-1
 475 259 l 1,129,-1
 475 298 l 1,126,-1
475 140 m 1,130,-1
 485 140 l 1,131,-1
 485 101 l 1,132,-1
 475 101 l 1,133,-1
 475 140 l 1,130,-1
475 62 m 1,134,-1
 485 62 l 1,135,-1
 485 22 l 1,136,-1
 475 22 l 1,137,-1
 475 62 l 1,134,-1
475 377 m 1,138,-1
 485 377 l 1,139,-1
 485 338 l 1,140,-1
 475 338 l 1,141,-1
 475 377 l 1,138,-1
485 495 m 1,142,-1
 475 495 l 1,143,-1
 475 535 l 1,144,-1
 485 535 l 1,145,-1
 485 495 l 1,142,-1
475 219 m 1,146,-1
 485 219 l 1,147,-1
 485 180 l 1,148,-1
 475 180 l 1,149,-1
 475 219 l 1,146,-1
475 456 m 1,150,-1
 485 456 l 1,151,-1
 485 416 l 1,152,-1
 475 416 l 1,153,-1
 475 456 l 1,150,-1
EndSplineSet
Validated: 1
EndChar

StartChar: L
Encoding: 76 76 27
Width: 480
GlyphClass: 2
Flags: W
LayerCount: 2
Fore
SplineSet
390 93 m 2,0,1
 397 93 397 93 400.5 88.5 c 128,-1,2
 404 84 404 84 404 78 c 128,-1,3
 404 72 404 72 400.5 67.5 c 128,-1,4
 397 63 397 63 390 63 c 2,5,-1
 94 63 l 2,6,7
 89 63 89 63 85 67 c 0,8,9
 84 67 84 67 84 68 c 1,10,11
 83 68 83 68 83 69 c 0,12,13
 79 73 79 73 79 78 c 2,14,-1
 79 502 l 2,15,16
 79 509 79 509 83.5 512.5 c 128,-1,17
 88 516 88 516 94 516 c 128,-1,18
 100 516 100 516 104.5 512.5 c 128,-1,19
 109 509 109 509 109 502 c 2,20,-1
 109 93 l 1,21,-1
 390 93 l 2,0,1
472 8 m 0,22,23
 480 9 480 9 486 3.5 c 128,-1,24
 492 -2 492 -2 494 -10 c 0,25,26
 495 -18 495 -18 489.5 -24 c 128,-1,27
 484 -30 484 -30 476 -31 c 0,28,29
 447 -34 447 -34 414 -37 c 0,30,31
 385 -39 385 -39 347 -40.5 c 128,-1,32
 309 -42 309 -42 267 -42 c 2,33,-1
 263 -42 l 2,34,35
 200 -42 200 -42 136.5 -37 c 128,-1,36
 73 -32 73 -32 23 -32 c 0,37,38
 18 -32 18 -32 12.5 -32 c 128,-1,39
 7 -32 7 -32 2 -33 c 0,40,41
 -6 -33 -6 -33 -12 -27.5 c 128,-1,42
 -18 -22 -18 -22 -18 -14 c 0,43,44
 -19 -6 -19 -6 -13.5 0 c 128,-1,45
 -8 6 -8 6 0 7 c 2,46,-1
 23 7 l 2,47,48
 75 7 75 7 139 2 c 128,-1,49
 203 -3 203 -3 263 -3 c 2,50,-1
 267 -3 l 2,51,52
 309 -3 309 -3 346 -1.5 c 128,-1,53
 383 0 383 0 411 2 c 0,54,55
 444 5 444 5 472 8 c 0,22,23
485 614 m 0,56,57
 493 614 493 614 499 608.5 c 128,-1,58
 505 603 505 603 505 595 c 0,59,60
 505 576 505 576 486 574 c 2,61,-1
 485 574 l 1,62,-1
 475 574 l 2,63,64
 424 572 424 572 382 572 c 128,-1,65
 340 572 340 572 305 572 c 0,66,67
 256 572 256 572 220 573 c 128,-1,68
 184 574 184 574 156.5 574.5 c 128,-1,69
 129 575 129 575 106.5 576 c 128,-1,70
 84 577 84 577 63 577 c 0,71,72
 48 577 48 577 32 576.5 c 128,-1,73
 16 576 16 576 -3 575 c 0,74,75
 -11 574 -11 574 -17 579.5 c 128,-1,76
 -23 585 -23 585 -24 593 c 256,77,78
 -25 601 -25 601 -19.5 607 c 128,-1,79
 -14 613 -14 613 -6 614 c 0,80,81
 33 617 33 617 63 617 c 0,82,83
 85 617 85 617 107.5 616 c 128,-1,84
 130 615 130 615 158 614 c 128,-1,85
 186 613 186 613 221.5 612 c 128,-1,86
 257 611 257 611 305 611 c 0,87,88
 341 611 341 611 385 611.5 c 128,-1,89
 429 612 429 612 485 614 c 0,56,57
475 298 m 1,90,-1
 485 298 l 1,91,-1
 485 259 l 1,92,-1
 475 259 l 1,93,-1
 475 298 l 1,90,-1
475 140 m 1,94,-1
 485 140 l 1,95,-1
 485 101 l 1,96,-1
 475 101 l 1,97,-1
 475 140 l 1,94,-1
475 62 m 1,98,-1
 485 62 l 1,99,-1
 485 22 l 1,100,-1
 475 22 l 1,101,-1
 475 62 l 1,98,-1
475 377 m 1,102,-1
 485 377 l 1,103,-1
 485 338 l 1,104,-1
 475 338 l 1,105,-1
 475 377 l 1,102,-1
485 495 m 1,106,-1
 475 495 l 1,107,-1
 475 535 l 1,108,-1
 485 535 l 1,109,-1
 485 495 l 1,106,-1
475 219 m 1,110,-1
 485 219 l 1,111,-1
 485 180 l 1,112,-1
 475 180 l 1,113,-1
 475 219 l 1,110,-1
475 456 m 1,114,-1
 485 456 l 1,115,-1
 485 416 l 1,116,-1
 475 416 l 1,117,-1
 475 456 l 1,114,-1
EndSplineSet
Validated: 1
EndChar

StartChar: M
Encoding: 77 77 28
Width: 644
GlyphClass: 2
Flags: W
LayerCount: 2
Fore
SplineSet
419 509 m 0,0,1
 455 519 455 519 487 511.5 c 128,-1,2
 519 504 519 504 539 470 c 0,3,4
 563 428 563 428 574.5 379.5 c 128,-1,5
 586 331 586 331 590 279.5 c 128,-1,6
 594 228 594 228 592 176.5 c 128,-1,7
 590 125 590 125 588 79 c 0,8,9
 588 72 588 72 583 68.5 c 128,-1,10
 578 65 578 65 572.5 65 c 128,-1,11
 567 65 567 65 562.5 68.5 c 128,-1,12
 558 72 558 72 558 79 c 0,13,14
 561 139 561 139 561 198 c 128,-1,15
 561 257 561 257 553 317 c 0,16,17
 551 335 551 335 548 356.5 c 128,-1,18
 545 378 545 378 539 399 c 128,-1,19
 533 420 533 420 524 439 c 128,-1,20
 515 458 515 458 501 471 c 0,21,22
 472 496 472 496 445 489.5 c 128,-1,23
 418 483 418 483 396.5 460 c 128,-1,24
 375 437 375 437 361 405 c 128,-1,25
 347 373 347 373 344 348 c 1,26,27
 354 281 354 281 348.5 211.5 c 128,-1,28
 343 142 343 142 339 77 c 0,29,30
 339 70 339 70 334 66.5 c 128,-1,31
 329 63 329 63 323.5 63 c 128,-1,32
 318 63 318 63 313.5 66.5 c 128,-1,33
 309 70 309 70 310 77 c 0,34,35
 313 135 313 135 317.5 192.5 c 128,-1,36
 322 250 322 250 317 307 c 0,37,38
 316 315 316 315 315.5 322.5 c 128,-1,39
 315 330 315 330 314 338 c 0,40,41
 314 340 314 340 313.5 340.5 c 128,-1,42
 313 341 313 341 313 343 c 2,43,-1
 313 344 l 2,44,45
 310 376 310 376 301 409.5 c 128,-1,46
 292 443 292 443 269 463 c 0,47,48
 238 492 238 492 206.5 488 c 128,-1,49
 175 484 175 484 149 462 c 128,-1,50
 123 440 123 440 106 406.5 c 128,-1,51
 89 373 89 373 86 343 c 0,52,53
 86 339 86 339 84 335 c 2,54,-1
 84 77 l 2,55,56
 84 70 84 70 79.5 66.5 c 128,-1,57
 75 63 75 63 69 63 c 128,-1,58
 63 63 63 63 58.5 66.5 c 128,-1,59
 54 70 54 70 54 77 c 2,60,-1
 54 501 l 2,61,62
 54 508 54 508 58.5 511.5 c 128,-1,63
 63 515 63 515 69 515 c 128,-1,64
 75 515 75 515 79.5 511.5 c 128,-1,65
 84 508 84 508 84 501 c 2,66,-1
 84 420 l 1,67,68
 103 453 103 453 131.5 479 c 128,-1,69
 160 505 160 505 191.5 515 c 128,-1,70
 223 525 223 525 253.5 514 c 128,-1,71
 284 503 284 503 307 461 c 0,72,73
 314 450 314 450 319 437.5 c 128,-1,74
 324 425 324 425 329 412 c 1,75,76
 341 445 341 445 363.5 472 c 128,-1,77
 386 499 386 499 419 509 c 0,0,1
638 11 m 0,78,79
 646 11 646 11 652 5 c 128,-1,80
 658 -1 658 -1 658 -9 c 256,81,82
 658 -17 658 -17 652 -23 c 128,-1,83
 646 -29 646 -29 638 -29 c 2,84,85
 638 -29 638 -29 617 -28.5 c 128,-1,86
 596 -28 596 -28 562 -28 c 128,-1,87
 528 -28 528 -28 483.5 -27.5 c 128,-1,88
 439 -27 439 -27 391 -27 c 0,89,90
 371 -27 371 -27 338 -27 c 128,-1,91
 305 -27 305 -27 267 -27 c 128,-1,92
 229 -27 229 -27 188 -27.5 c 128,-1,93
 147 -28 147 -28 110.5 -28 c 128,-1,94
 74 -28 74 -28 45 -28.5 c 128,-1,95
 16 -29 16 -29 1 -30 c 2,96,-1
 0 -30 l 2,97,98
 -8 -30 -8 -30 -13.5 -24.5 c 128,-1,99
 -19 -19 -19 -19 -19 -11 c 0,100,101
 -20 -3 -20 -3 -14 3 c 128,-1,102
 -8 9 -8 9 0 10 c 0,103,104
 15 10 15 10 44 10.5 c 128,-1,105
 73 11 73 11 110 11.5 c 128,-1,106
 147 12 147 12 188 12 c 128,-1,107
 229 12 229 12 267 12.5 c 128,-1,108
 305 13 305 13 338 13 c 128,-1,109
 371 13 371 13 391 13 c 0,110,111
 439 13 439 13 483 12.5 c 128,-1,112
 527 12 527 12 562 12 c 0,113,114
 602 11 602 11 638 11 c 0,78,79
649 617 m 0,115,116
 657 617 657 617 663 611.5 c 128,-1,117
 669 606 669 606 669 598 c 256,118,119
 669 590 669 590 663.5 584 c 128,-1,120
 658 578 658 578 650 578 c 0,121,122
 649 578 649 578 649 577 c 2,123,-1
 639 577 l 2,124,125
 568 575 568 575 488 573.5 c 128,-1,126
 408 572 408 572 335.5 571.5 c 128,-1,127
 263 571 263 571 206 570.5 c 128,-1,128
 149 570 149 570 124 570 c 0,129,130
 86 570 86 570 56.5 570.5 c 128,-1,131
 27 571 27 571 -9 578 c 0,132,133
 -17 580 -17 580 -22 586.5 c 128,-1,134
 -27 593 -27 593 -25 601 c 256,135,136
 -23 609 -23 609 -16.5 614 c 128,-1,137
 -10 619 -10 619 -2 617 c 0,138,139
 33 611 33 611 60.5 610.5 c 128,-1,140
 88 610 88 610 124 610 c 0,141,142
 149 610 149 610 206 610 c 128,-1,143
 263 610 263 610 337 611 c 128,-1,144
 411 612 411 612 493 613.5 c 128,-1,145
 575 615 575 615 649 617 c 0,115,116
639 380 m 1,146,-1
 649 380 l 1,147,-1
 649 341 l 1,148,-1
 639 341 l 1,149,-1
 639 380 l 1,146,-1
639 65 m 1,150,-1
 649 65 l 1,151,-1
 649 25 l 1,152,-1
 639 25 l 1,153,-1
 639 65 l 1,150,-1
639 143 m 1,154,-1
 649 143 l 1,155,-1
 649 104 l 1,156,-1
 639 104 l 1,157,-1
 639 143 l 1,154,-1
639 459 m 1,158,-1
 649 459 l 1,159,-1
 649 419 l 1,160,-1
 639 419 l 1,161,-1
 639 459 l 1,158,-1
639 301 m 1,162,-1
 649 301 l 1,163,-1
 649 262 l 1,164,-1
 639 262 l 1,165,-1
 639 301 l 1,162,-1
639 222 m 1,166,-1
 649 222 l 1,167,-1
 649 183 l 1,168,-1
 639 183 l 1,169,-1
 639 222 l 1,166,-1
649 498 m 1,170,-1
 639 498 l 1,171,-1
 639 538 l 1,172,-1
 649 538 l 1,173,-1
 649 498 l 1,170,-1
EndSplineSet
Validated: 33
EndChar

StartChar: N
Encoding: 78 78 29
Width: 481
GlyphClass: 2
Flags: W
LayerCount: 2
Fore
SplineSet
97 418 m 1,0,1
 108 454 108 454 140 480.5 c 128,-1,2
 172 507 172 507 211 516.5 c 128,-1,3
 250 526 250 526 290 514.5 c 128,-1,4
 330 503 330 503 357 464 c 0,5,6
 385 423 385 423 396 374.5 c 128,-1,7
 407 326 407 326 407.5 275.5 c 128,-1,8
 408 225 408 225 403 174 c 128,-1,9
 398 123 398 123 395 77 c 0,10,11
 395 70 395 70 390 66.5 c 128,-1,12
 385 63 385 63 379.5 63 c 128,-1,13
 374 63 374 63 369.5 66.5 c 128,-1,14
 365 70 365 70 366 77 c 0,15,16
 370 137 370 137 375 196.5 c 128,-1,17
 380 256 380 256 373 316 c 0,18,19
 371 335 371 335 367.5 357.5 c 128,-1,20
 364 380 364 380 357 401.5 c 128,-1,21
 350 423 350 423 338.5 441 c 128,-1,22
 327 459 327 459 309 470 c 0,23,24
 275 490 275 490 239 486.5 c 128,-1,25
 203 483 203 483 173 463 c 128,-1,26
 143 443 143 443 123 411 c 128,-1,27
 103 379 103 379 100 343 c 0,28,29
 100 338 100 338 97 335 c 2,30,-1
 97 77 l 2,31,32
 97 70 97 70 92.5 66.5 c 128,-1,33
 88 63 88 63 82.5 63 c 128,-1,34
 77 63 77 63 72.5 66.5 c 128,-1,35
 68 70 68 70 68 77 c 2,36,-1
 68 501 l 2,37,38
 68 508 68 508 72.5 511.5 c 128,-1,39
 77 515 77 515 82.5 515 c 128,-1,40
 88 515 88 515 92.5 511.5 c 128,-1,41
 97 508 97 508 97 501 c 2,42,-1
 97 418 l 1,0,1
472 8 m 0,43,44
 480 9 480 9 486 3.5 c 128,-1,45
 492 -2 492 -2 494 -10 c 0,46,47
 495 -18 495 -18 489.5 -24 c 128,-1,48
 484 -30 484 -30 476 -31 c 0,49,50
 447 -34 447 -34 414 -37 c 0,51,52
 385 -39 385 -39 347 -40.5 c 128,-1,53
 309 -42 309 -42 267 -42 c 2,54,-1
 263 -42 l 2,55,56
 200 -42 200 -42 136.5 -37 c 128,-1,57
 73 -32 73 -32 23 -32 c 0,58,59
 18 -32 18 -32 12.5 -32 c 128,-1,60
 7 -32 7 -32 2 -33 c 0,61,62
 -6 -33 -6 -33 -12 -27.5 c 128,-1,63
 -18 -22 -18 -22 -18 -14 c 0,64,65
 -19 -6 -19 -6 -13.5 0 c 128,-1,66
 -8 6 -8 6 0 7 c 2,67,-1
 23 7 l 2,68,69
 75 7 75 7 139 2 c 128,-1,70
 203 -3 203 -3 263 -3 c 2,71,-1
 267 -3 l 2,72,73
 309 -3 309 -3 346 -1.5 c 128,-1,74
 383 0 383 0 411 2 c 0,75,76
 444 5 444 5 472 8 c 0,43,44
485 614 m 0,77,78
 493 614 493 614 499 608.5 c 128,-1,79
 505 603 505 603 505 595 c 0,80,81
 505 576 505 576 486 574 c 2,82,-1
 485 574 l 1,83,-1
 475 574 l 2,84,85
 424 572 424 572 382 572 c 128,-1,86
 340 572 340 572 305 572 c 0,87,88
 256 572 256 572 220 573 c 128,-1,89
 184 574 184 574 156.5 574.5 c 128,-1,90
 129 575 129 575 106.5 576 c 128,-1,91
 84 577 84 577 63 577 c 0,92,93
 48 577 48 577 32 576.5 c 128,-1,94
 16 576 16 576 -3 575 c 0,95,96
 -11 574 -11 574 -17 579.5 c 128,-1,97
 -23 585 -23 585 -24 593 c 256,98,99
 -25 601 -25 601 -19.5 607 c 128,-1,100
 -14 613 -14 613 -6 614 c 0,101,102
 33 617 33 617 63 617 c 0,103,104
 85 617 85 617 107.5 616 c 128,-1,105
 130 615 130 615 158 614 c 128,-1,106
 186 613 186 613 221.5 612 c 128,-1,107
 257 611 257 611 305 611 c 0,108,109
 341 611 341 611 385 611.5 c 128,-1,110
 429 612 429 612 485 614 c 0,77,78
475 298 m 1,111,-1
 485 298 l 1,112,-1
 485 259 l 1,113,-1
 475 259 l 1,114,-1
 475 298 l 1,111,-1
475 140 m 1,115,-1
 485 140 l 1,116,-1
 485 101 l 1,117,-1
 475 101 l 1,118,-1
 475 140 l 1,115,-1
475 62 m 1,119,-1
 485 62 l 1,120,-1
 485 22 l 1,121,-1
 475 22 l 1,122,-1
 475 62 l 1,119,-1
475 377 m 1,123,-1
 485 377 l 1,124,-1
 485 338 l 1,125,-1
 475 338 l 1,126,-1
 475 377 l 1,123,-1
485 495 m 1,127,-1
 475 495 l 1,128,-1
 475 535 l 1,129,-1
 485 535 l 1,130,-1
 485 495 l 1,127,-1
475 219 m 1,131,-1
 485 219 l 1,132,-1
 485 180 l 1,133,-1
 475 180 l 1,134,-1
 475 219 l 1,131,-1
475 456 m 1,135,-1
 485 456 l 1,136,-1
 485 416 l 1,137,-1
 475 416 l 1,138,-1
 475 456 l 1,135,-1
EndSplineSet
Validated: 33
EndChar

StartChar: O
Encoding: 79 79 30
Width: 483
GlyphClass: 2
Flags: W
LayerCount: 2
Fore
SplineSet
474 8 m 0,0,1
 482 9 482 9 488.5 3.5 c 128,-1,2
 495 -2 495 -2 495 -10 c 0,3,4
 496 -18 496 -18 490.5 -24.5 c 128,-1,5
 485 -31 485 -31 477 -32 c 0,6,7
 439 -33 439 -33 396 -34 c 0,8,9
 359 -35 359 -35 312 -35.5 c 128,-1,10
 265 -36 265 -36 214 -36 c 0,11,12
 156 -36 156 -36 100 -36 c 128,-1,13
 44 -36 44 -36 0 -28 c 0,14,15
 -8 -26 -8 -26 -13 -19.5 c 128,-1,16
 -18 -13 -18 -13 -16 -5 c 256,17,18
 -14 3 -14 3 -7.5 8 c 128,-1,19
 -1 13 -1 13 7 11 c 0,20,21
 48 4 48 4 102.5 3.5 c 128,-1,22
 157 3 157 3 214 3 c 0,23,24
 264 3 264 3 310 3.5 c 128,-1,25
 356 4 356 4 393 5 c 0,26,27
 435 6 435 6 474 8 c 0,0,1
486 614 m 0,28,29
 505 614 505 614 507 595 c 0,30,31
 507 587 507 587 501.5 581 c 128,-1,32
 496 575 496 575 488 575 c 2,33,-1
 486 575 l 1,34,-1
 486 571 l 1,35,-1
 477 571 l 1,36,-1
 477 574 l 1,37,38
 406 572 406 572 351.5 571 c 128,-1,39
 297 570 297 570 255.5 570 c 128,-1,40
 214 570 214 570 183 570 c 128,-1,41
 152 570 152 570 127 570 c 0,42,43
 89 570 89 570 59 569 c 128,-1,44
 29 568 29 568 -6 575 c 0,45,46
 -14 577 -14 577 -19 583.5 c 128,-1,47
 -24 590 -24 590 -22 598 c 256,48,49
 -20 606 -20 606 -13.5 611 c 128,-1,50
 -7 616 -7 616 1 614 c 0,51,52
 35 607 35 607 63 608 c 128,-1,53
 91 609 91 609 127 609 c 0,54,55
 152 609 152 609 183.5 609 c 128,-1,56
 215 609 215 609 257.5 609.5 c 128,-1,57
 300 610 300 610 356 611 c 128,-1,58
 412 612 412 612 486 614 c 0,28,29
477 137 m 1,59,-1
 486 137 l 1,60,-1
 486 98 l 1,61,-1
 477 98 l 1,62,-1
 477 137 l 1,59,-1
477 216 m 1,63,-1
 486 216 l 1,64,-1
 486 177 l 1,65,-1
 477 177 l 1,66,-1
 477 216 l 1,63,-1
477 58 m 1,67,-1
 486 58 l 1,68,-1
 486 19 l 1,69,-1
 477 19 l 1,70,-1
 477 58 l 1,67,-1
477 295 m 1,71,-1
 486 295 l 1,72,-1
 486 255 l 1,73,-1
 477 255 l 1,74,-1
 477 295 l 1,71,-1
477 374 m 1,75,-1
 486 374 l 1,76,-1
 486 334 l 1,77,-1
 477 334 l 1,78,-1
 477 374 l 1,75,-1
477 453 m 1,79,-1
 486 453 l 1,80,-1
 486 413 l 1,81,-1
 477 413 l 1,82,-1
 477 453 l 1,79,-1
486 492 m 1,83,-1
 477 492 l 1,84,-1
 477 531 l 1,85,-1
 486 531 l 1,86,-1
 486 492 l 1,83,-1
310 496 m 0,87,88
 333 482 333 482 352 457 c 128,-1,89
 371 432 371 432 384.5 403 c 128,-1,90
 398 374 398 374 405.5 342.5 c 128,-1,91
 413 311 413 311 412 284 c 0,92,93
 411 242 411 242 400 202 c 128,-1,94
 389 162 389 162 367.5 130.5 c 128,-1,95
 346 99 346 99 312 80.5 c 128,-1,96
 278 62 278 62 230 62 c 0,97,98
 176 62 176 62 139.5 88.5 c 128,-1,99
 103 115 103 115 82.5 156.5 c 128,-1,100
 62 198 62 198 56.5 248.5 c 128,-1,101
 51 299 51 299 59.5 347 c 128,-1,102
 68 395 68 395 89 435.5 c 128,-1,103
 110 476 110 476 143 498 c 0,104,105
 145 500 145 500 147.5 500.5 c 128,-1,106
 150 501 150 501 152 503 c 256,107,108
 154 505 154 505 156.5 505.5 c 128,-1,109
 159 506 159 506 161 508 c 0,110,111
 164 509 164 509 167 510 c 128,-1,112
 170 511 170 511 172 512 c 256,113,114
 174 513 174 513 175.5 513 c 128,-1,115
 177 513 177 513 179 514 c 0,116,117
 212 522 212 522 248 517.5 c 128,-1,118
 284 513 284 513 310 496 c 0,87,88
224 92 m 0,119,120
 275 91 275 91 316 118.5 c 128,-1,121
 357 146 357 146 371 198 c 0,122,123
 385 255 385 255 379 310 c 128,-1,124
 373 365 373 365 341 416 c 0,125,126
 328 436 328 436 305.5 454 c 128,-1,127
 283 472 283 472 257 482 c 1,128,129
 251 478 251 478 244 480 c 0,130,131
 198 496 198 496 163.5 473.5 c 128,-1,132
 129 451 129 451 109 408 c 128,-1,133
 89 365 89 365 84 310.5 c 128,-1,134
 79 256 79 256 92.5 207.5 c 128,-1,135
 106 159 106 159 138 125.5 c 128,-1,136
 170 92 170 92 224 92 c 0,119,120
EndSplineSet
Validated: 33
EndChar

StartChar: P
Encoding: 80 80 31
Width: 477
GlyphClass: 2
Flags: W
LayerCount: 2
Fore
SplineSet
331 504 m 0,0,1
 376 482 376 482 396 438 c 128,-1,2
 416 394 416 394 409 346 c 0,3,4
 402 291 402 291 369.5 264.5 c 128,-1,5
 337 238 337 238 292 229 c 128,-1,6
 247 220 247 220 196.5 221.5 c 128,-1,7
 146 223 146 223 103 224 c 1,8,-1
 103 76 l 2,9,10
 103 69 103 69 98.5 65.5 c 128,-1,11
 94 62 94 62 88 62 c 128,-1,12
 82 62 82 62 77.5 65.5 c 128,-1,13
 73 69 73 69 73 76 c 2,14,-1
 73 231 l 1,15,16
 68 239 68 239 73 247 c 1,17,-1
 73 491 l 2,18,19
 70 497 70 497 72 504 c 128,-1,20
 74 511 74 511 82 513 c 0,21,22
 84 514 84 514 90 514 c 0,23,24
 118 514 118 514 149.5 517 c 128,-1,25
 181 520 181 520 212.5 521 c 128,-1,26
 244 522 244 522 274.5 519 c 128,-1,27
 305 516 305 516 331 504 c 0,0,1
103 254 m 1,28,29
 128 253 128 253 158.5 251.5 c 128,-1,30
 189 250 189 250 220 251 c 128,-1,31
 251 252 251 252 280.5 257 c 128,-1,32
 310 262 310 262 332.5 274.5 c 128,-1,33
 355 287 355 287 368 308 c 128,-1,34
 381 329 381 329 380 363 c 0,35,36
 378 421 378 421 350.5 448 c 128,-1,37
 323 475 323 475 282.5 483.5 c 128,-1,38
 242 492 242 492 194 488.5 c 128,-1,39
 146 485 146 485 103 484 c 1,40,-1
 103 254 l 1,28,29
473 11 m 0,41,42
 481 11 481 11 487 5 c 128,-1,43
 493 -1 493 -1 493 -9 c 256,44,45
 493 -17 493 -17 487 -23 c 128,-1,46
 481 -29 481 -29 473 -29 c 2,47,48
 473 -29 473 -29 452 -28.5 c 128,-1,49
 431 -28 431 -28 397 -28 c 128,-1,50
 363 -28 363 -28 318.5 -27.5 c 128,-1,51
 274 -27 274 -27 226 -27 c 0,52,53
 165 -27 165 -27 105.5 -27.5 c 128,-1,54
 46 -28 46 -28 1 -30 c 2,55,-1
 0 -30 l 2,56,57
 -8 -30 -8 -30 -13.5 -24.5 c 128,-1,58
 -19 -19 -19 -19 -19 -11 c 0,59,60
 -20 -3 -20 -3 -14 3 c 128,-1,61
 -8 9 -8 9 0 10 c 0,62,63
 45 12 45 12 105 12.5 c 128,-1,64
 165 13 165 13 226 13 c 0,65,66
 274 13 274 13 318 12.5 c 128,-1,67
 362 12 362 12 397 12 c 0,68,69
 437 11 437 11 473 11 c 0,41,42
484 617 m 0,70,71
 492 617 492 617 498 611.5 c 128,-1,72
 504 606 504 606 504 598 c 256,73,74
 504 590 504 590 498.5 584 c 128,-1,75
 493 578 493 578 485 578 c 0,76,77
 484 578 484 578 484 577 c 2,78,-1
 474 577 l 2,79,80
 403 575 403 575 348.5 573.5 c 128,-1,81
 294 572 294 572 252.5 571.5 c 128,-1,82
 211 571 211 571 180 570.5 c 128,-1,83
 149 570 149 570 124 570 c 0,84,85
 86 570 86 570 56.5 570.5 c 128,-1,86
 27 571 27 571 -9 578 c 0,87,88
 -17 580 -17 580 -22 586.5 c 128,-1,89
 -27 593 -27 593 -25 601 c 256,90,91
 -23 609 -23 609 -16.5 614 c 128,-1,92
 -10 619 -10 619 -2 617 c 0,93,94
 33 611 33 611 60.5 610.5 c 128,-1,95
 88 610 88 610 124 610 c 0,96,97
 149 610 149 610 180.5 610 c 128,-1,98
 212 610 212 610 254.5 611 c 128,-1,99
 297 612 297 612 353.5 613.5 c 128,-1,100
 410 615 410 615 484 617 c 0,70,71
474 380 m 1,101,-1
 484 380 l 1,102,-1
 484 341 l 1,103,-1
 474 341 l 1,104,-1
 474 380 l 1,101,-1
474 65 m 1,105,-1
 484 65 l 1,106,-1
 484 25 l 1,107,-1
 474 25 l 1,108,-1
 474 65 l 1,105,-1
474 143 m 1,109,-1
 484 143 l 1,110,-1
 484 104 l 1,111,-1
 474 104 l 1,112,-1
 474 143 l 1,109,-1
474 459 m 1,113,-1
 484 459 l 1,114,-1
 484 419 l 1,115,-1
 474 419 l 1,116,-1
 474 459 l 1,113,-1
474 301 m 1,117,-1
 484 301 l 1,118,-1
 484 262 l 1,119,-1
 474 262 l 1,120,-1
 474 301 l 1,117,-1
474 222 m 1,121,-1
 484 222 l 1,122,-1
 484 183 l 1,123,-1
 474 183 l 1,124,-1
 474 222 l 1,121,-1
484 498 m 1,125,-1
 474 498 l 1,126,-1
 474 538 l 1,127,-1
 484 538 l 1,128,-1
 484 498 l 1,125,-1
EndSplineSet
Validated: 33
EndChar

StartChar: Q
Encoding: 81 81 32
Width: 480
GlyphClass: 2
Flags: W
LayerCount: 2
Fore
SplineSet
381 121 m 1,0,1
 393 113 393 113 400.5 101 c 128,-1,2
 408 89 408 89 407 71 c 0,3,4
 407 64 407 64 402 60.5 c 128,-1,5
 397 57 397 57 391.5 57 c 128,-1,6
 386 57 386 57 381.5 60.5 c 128,-1,7
 377 64 377 64 377 71 c 0,8,9
 378 84 378 84 368 94 c 1,10,11
 346 62 346 62 308.5 56 c 128,-1,12
 271 50 271 50 238 67 c 1,13,14
 193 59 193 59 159 76 c 128,-1,15
 125 93 125 93 102 124.5 c 128,-1,16
 79 156 79 156 67 198.5 c 128,-1,17
 55 241 55 241 54 285 c 128,-1,18
 53 329 53 329 63 370.5 c 128,-1,19
 73 412 73 412 93 442 c 0,20,21
 114 473 114 473 149.5 491 c 128,-1,22
 185 509 185 509 223 511 c 128,-1,23
 261 513 261 513 296.5 498.5 c 128,-1,24
 332 484 332 484 355 450 c 0,25,26
 376 418 376 418 387 376 c 128,-1,27
 398 334 398 334 400.5 289.5 c 128,-1,28
 403 245 403 245 397.5 201 c 128,-1,29
 392 157 392 157 381 121 c 1,0,1
264 85 m 1,30,31
 317 82 317 82 341 109 c 1,32,33
 316 117 316 117 287 116.5 c 128,-1,34
 258 116 258 116 244 113 c 0,35,36
 221 110 221 110 241 97 c 0,37,38
 243 98 243 98 246 98 c 0,39,40
 254 100 254 100 258.5 95.5 c 128,-1,41
 263 91 263 91 264 85 c 1,30,31
358 148 m 0,42,43
 363 174 363 174 365 200.5 c 128,-1,44
 367 227 367 227 367 253 c 0,45,46
 366 286 366 286 362.5 325 c 128,-1,47
 359 364 359 364 346.5 398.5 c 128,-1,48
 334 433 334 433 309 456 c 128,-1,49
 284 479 284 479 241 481 c 0,50,51
 190 483 190 483 156 456 c 128,-1,52
 122 429 122 429 104 388 c 128,-1,53
 86 347 86 347 84 297.5 c 128,-1,54
 82 248 82 248 94.5 204.5 c 128,-1,55
 107 161 107 161 134 130.5 c 128,-1,56
 161 100 161 100 201 95 c 1,57,58
 189 110 189 110 196.5 120 c 128,-1,59
 204 130 204 130 219.5 135.5 c 128,-1,60
 235 141 235 141 252.5 143 c 128,-1,61
 270 145 270 145 277 145 c 0,62,63
 294 145 294 145 314.5 142.5 c 128,-1,64
 335 140 335 140 355 134 c 1,65,66
 356 138 356 138 358 148 c 0,42,43
472 8 m 0,67,68
 480 9 480 9 486 3.5 c 128,-1,69
 492 -2 492 -2 494 -10 c 0,70,71
 495 -18 495 -18 489.5 -24 c 128,-1,72
 484 -30 484 -30 476 -31 c 0,73,74
 447 -34 447 -34 414 -37 c 0,75,76
 385 -39 385 -39 347 -40.5 c 128,-1,77
 309 -42 309 -42 267 -42 c 2,78,-1
 263 -42 l 2,79,80
 200 -42 200 -42 136.5 -37 c 128,-1,81
 73 -32 73 -32 23 -32 c 0,82,83
 18 -32 18 -32 12.5 -32 c 128,-1,84
 7 -32 7 -32 2 -33 c 0,85,86
 -6 -33 -6 -33 -12 -27.5 c 128,-1,87
 -18 -22 -18 -22 -18 -14 c 0,88,89
 -19 -6 -19 -6 -13.5 0 c 128,-1,90
 -8 6 -8 6 0 7 c 2,91,-1
 23 7 l 2,92,93
 75 7 75 7 139 2 c 128,-1,94
 203 -3 203 -3 263 -3 c 2,95,-1
 267 -3 l 2,96,97
 309 -3 309 -3 346 -1.5 c 128,-1,98
 383 0 383 0 411 2 c 0,99,100
 444 5 444 5 472 8 c 0,67,68
485 614 m 0,101,102
 493 614 493 614 499 608.5 c 128,-1,103
 505 603 505 603 505 595 c 0,104,105
 505 576 505 576 486 574 c 2,106,-1
 485 574 l 1,107,-1
 475 574 l 2,108,109
 424 572 424 572 382 572 c 128,-1,110
 340 572 340 572 305 572 c 0,111,112
 256 572 256 572 220 573 c 128,-1,113
 184 574 184 574 156.5 574.5 c 128,-1,114
 129 575 129 575 106.5 576 c 128,-1,115
 84 577 84 577 63 577 c 0,116,117
 48 577 48 577 32 576.5 c 128,-1,118
 16 576 16 576 -3 575 c 0,119,120
 -11 574 -11 574 -17 579.5 c 128,-1,121
 -23 585 -23 585 -24 593 c 256,122,123
 -25 601 -25 601 -19.5 607 c 128,-1,124
 -14 613 -14 613 -6 614 c 0,125,126
 33 617 33 617 63 617 c 0,127,128
 85 617 85 617 107.5 616 c 128,-1,129
 130 615 130 615 158 614 c 128,-1,130
 186 613 186 613 221.5 612 c 128,-1,131
 257 611 257 611 305 611 c 0,132,133
 341 611 341 611 385 611.5 c 128,-1,134
 429 612 429 612 485 614 c 0,101,102
475 298 m 1,135,-1
 485 298 l 1,136,-1
 485 259 l 1,137,-1
 475 259 l 1,138,-1
 475 298 l 1,135,-1
475 140 m 1,139,-1
 485 140 l 1,140,-1
 485 101 l 1,141,-1
 475 101 l 1,142,-1
 475 140 l 1,139,-1
475 62 m 1,143,-1
 485 62 l 1,144,-1
 485 22 l 1,145,-1
 475 22 l 1,146,-1
 475 62 l 1,143,-1
475 377 m 1,147,-1
 485 377 l 1,148,-1
 485 338 l 1,149,-1
 475 338 l 1,150,-1
 475 377 l 1,147,-1
485 495 m 1,151,-1
 475 495 l 1,152,-1
 475 535 l 1,153,-1
 485 535 l 1,154,-1
 485 495 l 1,151,-1
475 219 m 1,155,-1
 485 219 l 1,156,-1
 485 180 l 1,157,-1
 475 180 l 1,158,-1
 475 219 l 1,155,-1
475 456 m 1,159,-1
 485 456 l 1,160,-1
 485 416 l 1,161,-1
 475 416 l 1,162,-1
 475 456 l 1,159,-1
EndSplineSet
Validated: 33
EndChar

StartChar: R
Encoding: 82 82 33
Width: 482
GlyphClass: 2
Flags: W
LayerCount: 2
Fore
SplineSet
412 361 m 4,0,1
 409 306 409 306 383 276.5 c 132,-1,2
 357 247 357 247 318.5 234.5 c 132,-1,3
 280 222 280 222 233 221 c 132,-1,4
 186 220 186 220 141 221 c 5,5,6
 202 188 202 188 263 154.5 c 132,-1,7
 324 121 324 121 385 87 c 4,8,9
 391 84 391 84 392 78 c 132,-1,10
 393 72 393 72 390 67 c 132,-1,11
 387 62 387 62 381.5 60 c 132,-1,12
 376 58 376 58 370 61 c 4,13,14
 302 99 302 99 234.5 136 c 132,-1,15
 167 173 167 173 99 211 c 5,16,-1
 99 74 l 6,17,18
 99 67 99 67 94.5 63.5 c 132,-1,19
 90 60 90 60 84 60 c 132,-1,20
 78 60 78 60 73.5 63.5 c 132,-1,21
 69 67 69 67 69 74 c 6,22,-1
 69 230 l 6,23,24
 66 236 66 236 69 244 c 6,25,-1
 69 490 l 6,26,27
 67 495 67 495 69 501.5 c 132,-1,28
 71 508 71 508 78 510 c 4,29,30
 81 512 81 512 87 512 c 4,31,32
 117 512 117 512 154 514 c 132,-1,33
 191 516 191 516 228 515 c 132,-1,34
 265 514 265 514 299.5 507 c 132,-1,35
 334 500 334 500 360 483.5 c 132,-1,36
 386 467 386 467 400.5 437.5 c 132,-1,37
 415 408 415 408 412 361 c 4,0,1
99 252 m 5,38,39
 136 251 136 251 185.5 249 c 132,-1,40
 235 247 235 247 280 255 c 132,-1,41
 325 263 325 263 355 287 c 132,-1,42
 385 311 385 311 383 361 c 4,43,44
 380 420 380 420 351.5 447 c 132,-1,45
 323 474 323 474 281 482.5 c 132,-1,46
 239 491 239 491 190.5 487.5 c 132,-1,47
 142 484 142 484 99 482 c 5,48,-1
 99 252 l 5,38,39
474 8 m 0,49,50
 482 9 482 9 488.5 3.5 c 128,-1,51
 495 -2 495 -2 495 -10 c 0,52,53
 496 -18 496 -18 490.5 -24.5 c 128,-1,54
 485 -31 485 -31 477 -32 c 0,55,56
 439 -33 439 -33 396 -34 c 0,57,58
 359 -35 359 -35 312 -35.5 c 128,-1,59
 265 -36 265 -36 214 -36 c 0,60,61
 156 -36 156 -36 100 -36 c 128,-1,62
 44 -36 44 -36 0 -28 c 0,63,64
 -8 -26 -8 -26 -13 -19.5 c 128,-1,65
 -18 -13 -18 -13 -16 -5 c 256,66,67
 -14 3 -14 3 -7.5 8 c 128,-1,68
 -1 13 -1 13 7 11 c 0,69,70
 48 4 48 4 102.5 3.5 c 128,-1,71
 157 3 157 3 214 3 c 0,72,73
 264 3 264 3 310 3.5 c 128,-1,74
 356 4 356 4 393 5 c 0,75,76
 435 6 435 6 474 8 c 0,49,50
486 614 m 0,77,78
 505 614 505 614 507 595 c 0,79,80
 507 587 507 587 501.5 581 c 128,-1,81
 496 575 496 575 488 575 c 2,82,-1
 486 575 l 1,83,-1
 486 571 l 1,84,-1
 477 571 l 1,85,-1
 477 574 l 1,86,87
 406 572 406 572 351.5 571 c 128,-1,88
 297 570 297 570 255.5 570 c 128,-1,89
 214 570 214 570 183 570 c 128,-1,90
 152 570 152 570 127 570 c 0,91,92
 89 570 89 570 59 569 c 128,-1,93
 29 568 29 568 -6 575 c 0,94,95
 -14 577 -14 577 -19 583.5 c 128,-1,96
 -24 590 -24 590 -22 598 c 256,97,98
 -20 606 -20 606 -13.5 611 c 128,-1,99
 -7 616 -7 616 1 614 c 0,100,101
 35 607 35 607 63 608 c 128,-1,102
 91 609 91 609 127 609 c 0,103,104
 152 609 152 609 183.5 609 c 128,-1,105
 215 609 215 609 257.5 609.5 c 128,-1,106
 300 610 300 610 356 611 c 128,-1,107
 412 612 412 612 486 614 c 0,77,78
477 137 m 1,108,-1
 486 137 l 1,109,-1
 486 98 l 1,110,-1
 477 98 l 1,111,-1
 477 137 l 1,108,-1
477 216 m 1,112,-1
 486 216 l 1,113,-1
 486 177 l 1,114,-1
 477 177 l 1,115,-1
 477 216 l 1,112,-1
477 58 m 1,116,-1
 486 58 l 1,117,-1
 486 19 l 1,118,-1
 477 19 l 1,119,-1
 477 58 l 1,116,-1
477 295 m 1,120,-1
 486 295 l 1,121,-1
 486 255 l 1,122,-1
 477 255 l 1,123,-1
 477 295 l 1,120,-1
477 374 m 1,124,-1
 486 374 l 1,125,-1
 486 334 l 1,126,-1
 477 334 l 1,127,-1
 477 374 l 1,124,-1
477 453 m 1,128,-1
 486 453 l 1,129,-1
 486 413 l 1,130,-1
 477 413 l 1,131,-1
 477 453 l 1,128,-1
486 492 m 1,132,-1
 477 492 l 1,133,-1
 477 531 l 1,134,-1
 486 531 l 1,135,-1
 486 492 l 1,132,-1
EndSplineSet
Validated: 33
EndChar

StartChar: S
Encoding: 83 83 34
Width: 481
GlyphClass: 2
Flags: W
LayerCount: 2
Fore
SplineSet
338 255 m 0,0,1
 365 246 365 246 380.5 228.5 c 128,-1,2
 396 211 396 211 400.5 189.5 c 128,-1,3
 405 168 405 168 398.5 145 c 128,-1,4
 392 122 392 122 373 102 c 0,5,6
 362 90 362 90 340.5 80.5 c 128,-1,7
 319 71 319 71 293 65.5 c 128,-1,8
 267 60 267 60 239 58.5 c 128,-1,9
 211 57 211 57 185 60.5 c 128,-1,10
 159 64 159 64 138.5 73 c 128,-1,11
 118 82 118 82 108 98 c 0,12,13
 95 118 95 118 96.5 126.5 c 128,-1,14
 98 135 98 135 104 138 c 128,-1,15
 110 141 110 141 116.5 140 c 128,-1,16
 123 139 123 139 120 139 c 1,17,18
 126 115 126 115 149 103.5 c 128,-1,19
 172 92 172 92 201 89.5 c 128,-1,20
 230 87 230 87 261 91 c 128,-1,21
 292 95 292 95 314 103 c 0,22,23
 332 109 332 109 348 124.5 c 128,-1,24
 364 140 364 140 371 158 c 128,-1,25
 378 176 378 176 372 193.5 c 128,-1,26
 366 211 366 211 341 222 c 0,27,28
 315 233 315 233 287 239.5 c 128,-1,29
 259 246 259 246 231 252 c 0,30,31
 199 259 199 259 164 270 c 128,-1,32
 129 281 129 281 104.5 299.5 c 128,-1,33
 80 318 80 318 70.5 346 c 128,-1,34
 61 374 61 374 80 416 c 0,35,36
 96 453 96 453 127.5 476.5 c 128,-1,37
 159 500 159 500 196.5 509 c 128,-1,38
 234 518 234 518 273 511.5 c 128,-1,39
 312 505 312 505 345 483 c 0,40,41
 365 469 365 469 377.5 448 c 128,-1,42
 390 427 390 427 391.5 405 c 128,-1,43
 393 383 393 383 381.5 365 c 128,-1,44
 370 347 370 347 342 339 c 0,45,46
 335 337 335 337 330.5 340.5 c 128,-1,47
 326 344 326 344 324.5 349.5 c 128,-1,48
 323 355 323 355 325 360.5 c 128,-1,49
 327 366 327 366 334 368 c 0,50,51
 358 374 358 374 361.5 389 c 128,-1,52
 365 404 365 404 358.5 419.5 c 128,-1,53
 352 435 352 435 339 448.5 c 128,-1,54
 326 462 326 462 316 467 c 0,55,56
 260 493 260 493 196 477 c 0,57,58
 184 474 184 474 169 464.5 c 128,-1,59
 154 455 154 455 140 441 c 128,-1,60
 126 427 126 427 115.5 410.5 c 128,-1,61
 105 394 105 394 102 377 c 128,-1,62
 99 360 99 360 106 343.5 c 128,-1,63
 113 327 113 327 134 315 c 0,64,65
 156 302 156 302 181 294.5 c 128,-1,66
 206 287 206 287 232 281.5 c 128,-1,67
 258 276 258 276 285 270 c 128,-1,68
 312 264 312 264 338 255 c 0,0,1
473 11 m 0,69,70
 481 11 481 11 487 5 c 128,-1,71
 493 -1 493 -1 493 -9 c 256,72,73
 493 -17 493 -17 487 -23 c 128,-1,74
 481 -29 481 -29 473 -29 c 2,75,76
 473 -29 473 -29 452 -28.5 c 128,-1,77
 431 -28 431 -28 397 -28 c 128,-1,78
 363 -28 363 -28 318.5 -27.5 c 128,-1,79
 274 -27 274 -27 226 -27 c 0,80,81
 165 -27 165 -27 105.5 -27.5 c 128,-1,82
 46 -28 46 -28 1 -30 c 2,83,-1
 0 -30 l 2,84,85
 -8 -30 -8 -30 -13.5 -24.5 c 128,-1,86
 -19 -19 -19 -19 -19 -11 c 0,87,88
 -20 -3 -20 -3 -14 3 c 128,-1,89
 -8 9 -8 9 0 10 c 0,90,91
 45 12 45 12 105 12.5 c 128,-1,92
 165 13 165 13 226 13 c 0,93,94
 274 13 274 13 318 12.5 c 128,-1,95
 362 12 362 12 397 12 c 0,96,97
 437 11 437 11 473 11 c 0,69,70
484 617 m 0,98,99
 492 617 492 617 498 611.5 c 128,-1,100
 504 606 504 606 504 598 c 256,101,102
 504 590 504 590 498.5 584 c 128,-1,103
 493 578 493 578 485 578 c 0,104,105
 484 578 484 578 484 577 c 2,106,-1
 474 577 l 2,107,108
 403 575 403 575 348.5 573.5 c 128,-1,109
 294 572 294 572 252.5 571.5 c 128,-1,110
 211 571 211 571 180 570.5 c 128,-1,111
 149 570 149 570 124 570 c 0,112,113
 86 570 86 570 56.5 570.5 c 128,-1,114
 27 571 27 571 -9 578 c 0,115,116
 -17 580 -17 580 -22 586.5 c 128,-1,117
 -27 593 -27 593 -25 601 c 256,118,119
 -23 609 -23 609 -16.5 614 c 128,-1,120
 -10 619 -10 619 -2 617 c 0,121,122
 33 611 33 611 60.5 610.5 c 128,-1,123
 88 610 88 610 124 610 c 0,124,125
 149 610 149 610 180.5 610 c 128,-1,126
 212 610 212 610 254.5 611 c 128,-1,127
 297 612 297 612 353.5 613.5 c 128,-1,128
 410 615 410 615 484 617 c 0,98,99
474 380 m 1,129,-1
 484 380 l 1,130,-1
 484 341 l 1,131,-1
 474 341 l 1,132,-1
 474 380 l 1,129,-1
474 65 m 1,133,-1
 484 65 l 1,134,-1
 484 25 l 1,135,-1
 474 25 l 1,136,-1
 474 65 l 1,133,-1
474 143 m 1,137,-1
 484 143 l 1,138,-1
 484 104 l 1,139,-1
 474 104 l 1,140,-1
 474 143 l 1,137,-1
474 459 m 1,141,-1
 484 459 l 1,142,-1
 484 419 l 1,143,-1
 474 419 l 1,144,-1
 474 459 l 1,141,-1
474 301 m 1,145,-1
 484 301 l 1,146,-1
 484 262 l 1,147,-1
 474 262 l 1,148,-1
 474 301 l 1,145,-1
474 222 m 1,149,-1
 484 222 l 1,150,-1
 484 183 l 1,151,-1
 474 183 l 1,152,-1
 474 222 l 1,149,-1
484 498 m 1,153,-1
 474 498 l 1,154,-1
 474 538 l 1,155,-1
 484 538 l 1,156,-1
 484 498 l 1,153,-1
EndSplineSet
Validated: 33
EndChar

StartChar: T
Encoding: 84 84 35
Width: 481
GlyphClass: 2
Flags: W
LayerCount: 2
Fore
SplineSet
408 508 m 2,0,1
 415 508 415 508 419 503.5 c 128,-1,2
 423 499 423 499 423 493.5 c 128,-1,3
 423 488 423 488 419 483.5 c 128,-1,4
 415 479 415 479 408 479 c 2,5,-1
 254 479 l 1,6,-1
 254 76 l 2,7,8
 254 69 254 69 249.5 65.5 c 128,-1,9
 245 62 245 62 239 62 c 128,-1,10
 233 62 233 62 228.5 65.5 c 128,-1,11
 224 69 224 69 224 76 c 2,12,-1
 224 479 l 1,13,14
 186 478 186 478 147 478 c 128,-1,15
 108 478 108 478 70 478 c 0,16,17
 63 478 63 478 59.5 482.5 c 128,-1,18
 56 487 56 487 56 493 c 128,-1,19
 56 499 56 499 59.5 503.5 c 128,-1,20
 63 508 63 508 70 508 c 0,21,22
 115 508 115 508 162.5 508.5 c 128,-1,23
 210 509 210 509 251 508 c 2,24,-1
 408 508 l 2,0,1
472 8 m 0,25,26
 480 9 480 9 486 3.5 c 128,-1,27
 492 -2 492 -2 494 -10 c 0,28,29
 495 -18 495 -18 489.5 -24 c 128,-1,30
 484 -30 484 -30 476 -31 c 0,31,32
 447 -34 447 -34 414 -37 c 0,33,34
 385 -39 385 -39 347 -40.5 c 128,-1,35
 309 -42 309 -42 267 -42 c 2,36,-1
 263 -42 l 2,37,38
 200 -42 200 -42 136.5 -37 c 128,-1,39
 73 -32 73 -32 23 -32 c 0,40,41
 18 -32 18 -32 12.5 -32 c 128,-1,42
 7 -32 7 -32 2 -33 c 0,43,44
 -6 -33 -6 -33 -12 -27.5 c 128,-1,45
 -18 -22 -18 -22 -18 -14 c 0,46,47
 -19 -6 -19 -6 -13.5 0 c 128,-1,48
 -8 6 -8 6 0 7 c 2,49,-1
 23 7 l 2,50,51
 75 7 75 7 139 2 c 128,-1,52
 203 -3 203 -3 263 -3 c 2,53,-1
 267 -3 l 2,54,55
 309 -3 309 -3 346 -1.5 c 128,-1,56
 383 0 383 0 411 2 c 0,57,58
 444 5 444 5 472 8 c 0,25,26
485 614 m 0,59,60
 493 614 493 614 499 608.5 c 128,-1,61
 505 603 505 603 505 595 c 0,62,63
 505 576 505 576 486 574 c 2,64,-1
 485 574 l 1,65,-1
 475 574 l 2,66,67
 424 572 424 572 382 572 c 128,-1,68
 340 572 340 572 305 572 c 0,69,70
 256 572 256 572 220 573 c 128,-1,71
 184 574 184 574 156.5 574.5 c 128,-1,72
 129 575 129 575 106.5 576 c 128,-1,73
 84 577 84 577 63 577 c 0,74,75
 48 577 48 577 32 576.5 c 128,-1,76
 16 576 16 576 -3 575 c 0,77,78
 -11 574 -11 574 -17 579.5 c 128,-1,79
 -23 585 -23 585 -24 593 c 256,80,81
 -25 601 -25 601 -19.5 607 c 128,-1,82
 -14 613 -14 613 -6 614 c 0,83,84
 33 617 33 617 63 617 c 0,85,86
 85 617 85 617 107.5 616 c 128,-1,87
 130 615 130 615 158 614 c 128,-1,88
 186 613 186 613 221.5 612 c 128,-1,89
 257 611 257 611 305 611 c 0,90,91
 341 611 341 611 385 611.5 c 128,-1,92
 429 612 429 612 485 614 c 0,59,60
475 298 m 1,93,-1
 485 298 l 1,94,-1
 485 259 l 1,95,-1
 475 259 l 1,96,-1
 475 298 l 1,93,-1
475 140 m 1,97,-1
 485 140 l 1,98,-1
 485 101 l 1,99,-1
 475 101 l 1,100,-1
 475 140 l 1,97,-1
475 62 m 1,101,-1
 485 62 l 1,102,-1
 485 22 l 1,103,-1
 475 22 l 1,104,-1
 475 62 l 1,101,-1
475 377 m 1,105,-1
 485 377 l 1,106,-1
 485 338 l 1,107,-1
 475 338 l 1,108,-1
 475 377 l 1,105,-1
485 495 m 1,109,-1
 475 495 l 1,110,-1
 475 535 l 1,111,-1
 485 535 l 1,112,-1
 485 495 l 1,109,-1
475 219 m 1,113,-1
 485 219 l 1,114,-1
 485 180 l 1,115,-1
 475 180 l 1,116,-1
 475 219 l 1,113,-1
475 456 m 1,117,-1
 485 456 l 1,118,-1
 485 416 l 1,119,-1
 475 416 l 1,120,-1
 475 456 l 1,117,-1
EndSplineSet
Validated: 33
EndChar

StartChar: U
Encoding: 85 85 36
Width: 484
GlyphClass: 2
Flags: W
LayerCount: 2
Fore
SplineSet
365 504 m 2,0,1
 365 511 365 511 369.5 514.5 c 128,-1,2
 374 518 374 518 379.5 518 c 128,-1,3
 385 518 385 518 389.5 514.5 c 128,-1,4
 394 511 394 511 394 504 c 2,5,-1
 394 75 l 2,6,7
 394 68 394 68 389.5 64.5 c 128,-1,8
 385 61 385 61 379.5 61 c 128,-1,9
 374 61 374 61 369.5 64.5 c 128,-1,10
 365 68 365 68 365 75 c 2,11,-1
 365 164 l 1,12,13
 344 129 344 129 310.5 103 c 128,-1,14
 277 77 277 77 240.5 67 c 128,-1,15
 204 57 204 57 168 68 c 128,-1,16
 132 79 132 79 105 118 c 0,17,18
 77 159 77 159 66 207 c 128,-1,19
 55 255 55 255 54.5 305.5 c 128,-1,20
 54 356 54 356 59 406.5 c 128,-1,21
 64 457 64 457 67 504 c 0,22,23
 67 511 67 511 72 514.5 c 128,-1,24
 77 518 77 518 82.5 518 c 128,-1,25
 88 518 88 518 92.5 514.5 c 128,-1,26
 97 511 97 511 96 504 c 0,27,28
 92 444 92 444 87 385 c 128,-1,29
 82 326 82 326 89 266 c 0,30,31
 91 247 91 247 94.5 224.5 c 128,-1,32
 98 202 98 202 105 180.5 c 128,-1,33
 112 159 112 159 123.5 140.5 c 128,-1,34
 135 122 135 122 153 111 c 0,35,36
 187 91 187 91 223 95 c 128,-1,37
 259 99 259 99 288.5 119 c 128,-1,38
 318 139 318 139 338 171 c 128,-1,39
 358 203 358 203 361 239 c 0,40,41
 362 243 362 243 365 247 c 2,42,-1
 365 504 l 2,0,1
474 8 m 0,43,44
 482 9 482 9 488.5 3.5 c 128,-1,45
 495 -2 495 -2 495 -10 c 0,46,47
 496 -18 496 -18 490.5 -24.5 c 128,-1,48
 485 -31 485 -31 477 -32 c 0,49,50
 439 -33 439 -33 396 -34 c 0,51,52
 359 -35 359 -35 312 -35.5 c 128,-1,53
 265 -36 265 -36 214 -36 c 0,54,55
 156 -36 156 -36 100 -36 c 128,-1,56
 44 -36 44 -36 0 -28 c 0,57,58
 -8 -26 -8 -26 -13 -19.5 c 128,-1,59
 -18 -13 -18 -13 -16 -5 c 256,60,61
 -14 3 -14 3 -7.5 8 c 128,-1,62
 -1 13 -1 13 7 11 c 0,63,64
 48 4 48 4 102.5 3.5 c 128,-1,65
 157 3 157 3 214 3 c 0,66,67
 264 3 264 3 310 3.5 c 128,-1,68
 356 4 356 4 393 5 c 0,69,70
 435 6 435 6 474 8 c 0,43,44
486 614 m 0,71,72
 505 614 505 614 507 595 c 0,73,74
 507 587 507 587 501.5 581 c 128,-1,75
 496 575 496 575 488 575 c 2,76,-1
 486 575 l 1,77,-1
 486 571 l 1,78,-1
 477 571 l 1,79,-1
 477 574 l 1,80,81
 406 572 406 572 351.5 571 c 128,-1,82
 297 570 297 570 255.5 570 c 128,-1,83
 214 570 214 570 183 570 c 128,-1,84
 152 570 152 570 127 570 c 0,85,86
 89 570 89 570 59 569 c 128,-1,87
 29 568 29 568 -6 575 c 0,88,89
 -14 577 -14 577 -19 583.5 c 128,-1,90
 -24 590 -24 590 -22 598 c 256,91,92
 -20 606 -20 606 -13.5 611 c 128,-1,93
 -7 616 -7 616 1 614 c 0,94,95
 35 607 35 607 63 608 c 128,-1,96
 91 609 91 609 127 609 c 0,97,98
 152 609 152 609 183.5 609 c 128,-1,99
 215 609 215 609 257.5 609.5 c 128,-1,100
 300 610 300 610 356 611 c 128,-1,101
 412 612 412 612 486 614 c 0,71,72
477 137 m 1,102,-1
 486 137 l 1,103,-1
 486 98 l 1,104,-1
 477 98 l 1,105,-1
 477 137 l 1,102,-1
477 216 m 1,106,-1
 486 216 l 1,107,-1
 486 177 l 1,108,-1
 477 177 l 1,109,-1
 477 216 l 1,106,-1
477 58 m 1,110,-1
 486 58 l 1,111,-1
 486 19 l 1,112,-1
 477 19 l 1,113,-1
 477 58 l 1,110,-1
477 295 m 1,114,-1
 486 295 l 1,115,-1
 486 255 l 1,116,-1
 477 255 l 1,117,-1
 477 295 l 1,114,-1
477 374 m 1,118,-1
 486 374 l 1,119,-1
 486 334 l 1,120,-1
 477 334 l 1,121,-1
 477 374 l 1,118,-1
477 453 m 1,122,-1
 486 453 l 1,123,-1
 486 413 l 1,124,-1
 477 413 l 1,125,-1
 477 453 l 1,122,-1
486 492 m 1,126,-1
 477 492 l 1,127,-1
 477 531 l 1,128,-1
 486 531 l 1,129,-1
 486 492 l 1,126,-1
EndSplineSet
Validated: 33
EndChar

StartChar: V
Encoding: 86 86 37
Width: 479
GlyphClass: 2
Flags: W
LayerCount: 2
Fore
SplineSet
379 503 m 0,0,1
 379 510 379 510 383.5 513.5 c 128,-1,2
 388 517 388 517 393.5 517 c 128,-1,3
 399 517 399 517 403.5 513.5 c 128,-1,4
 408 510 408 510 408 503 c 0,5,6
 407 456 407 456 402 407 c 128,-1,7
 397 358 397 358 386 310 c 128,-1,8
 375 262 375 262 356 217 c 128,-1,9
 337 172 337 172 308 134 c 0,10,11
 299 123 299 123 286.5 107.5 c 128,-1,12
 274 92 274 92 258.5 80.5 c 128,-1,13
 243 69 243 69 226 64.5 c 128,-1,14
 209 60 209 60 192 71 c 0,15,16
 165 87 165 87 145.5 117.5 c 128,-1,17
 126 148 126 148 111.5 186 c 128,-1,18
 97 224 97 224 87 267.5 c 128,-1,19
 77 311 77 311 71 353.5 c 128,-1,20
 65 396 65 396 62.5 433.5 c 128,-1,21
 60 471 60 471 59 499 c 0,22,23
 59 506 59 506 63.5 509.5 c 128,-1,24
 68 513 68 513 73.5 513 c 128,-1,25
 79 513 79 513 83.5 509.5 c 128,-1,26
 88 506 88 506 88 499 c 0,27,28
 89 456 89 456 94 407 c 128,-1,29
 99 358 99 358 109.5 308.5 c 128,-1,30
 120 259 120 259 136.5 213 c 128,-1,31
 153 167 153 167 176 130 c 0,32,33
 194 101 194 101 214 100 c 128,-1,34
 234 99 234 99 252 113.5 c 128,-1,35
 270 128 270 128 285 151.5 c 128,-1,36
 300 175 300 175 310 194 c 0,37,38
 346 267 346 267 361.5 344.5 c 128,-1,39
 377 422 377 422 379 503 c 0,0,1
473 11 m 0,40,41
 481 11 481 11 487 5 c 128,-1,42
 493 -1 493 -1 493 -9 c 256,43,44
 493 -17 493 -17 487 -23 c 128,-1,45
 481 -29 481 -29 473 -29 c 2,46,47
 473 -29 473 -29 452 -28.5 c 128,-1,48
 431 -28 431 -28 397 -28 c 128,-1,49
 363 -28 363 -28 318.5 -27.5 c 128,-1,50
 274 -27 274 -27 226 -27 c 0,51,52
 165 -27 165 -27 105.5 -27.5 c 128,-1,53
 46 -28 46 -28 1 -30 c 2,54,-1
 0 -30 l 2,55,56
 -8 -30 -8 -30 -13.5 -24.5 c 128,-1,57
 -19 -19 -19 -19 -19 -11 c 0,58,59
 -20 -3 -20 -3 -14 3 c 128,-1,60
 -8 9 -8 9 0 10 c 0,61,62
 45 12 45 12 105 12.5 c 128,-1,63
 165 13 165 13 226 13 c 0,64,65
 274 13 274 13 318 12.5 c 128,-1,66
 362 12 362 12 397 12 c 0,67,68
 437 11 437 11 473 11 c 0,40,41
484 617 m 0,69,70
 492 617 492 617 498 611.5 c 128,-1,71
 504 606 504 606 504 598 c 256,72,73
 504 590 504 590 498.5 584 c 128,-1,74
 493 578 493 578 485 578 c 0,75,76
 484 578 484 578 484 577 c 2,77,-1
 474 577 l 2,78,79
 403 575 403 575 348.5 573.5 c 128,-1,80
 294 572 294 572 252.5 571.5 c 128,-1,81
 211 571 211 571 180 570.5 c 128,-1,82
 149 570 149 570 124 570 c 0,83,84
 86 570 86 570 56.5 570.5 c 128,-1,85
 27 571 27 571 -9 578 c 0,86,87
 -17 580 -17 580 -22 586.5 c 128,-1,88
 -27 593 -27 593 -25 601 c 256,89,90
 -23 609 -23 609 -16.5 614 c 128,-1,91
 -10 619 -10 619 -2 617 c 0,92,93
 33 611 33 611 60.5 610.5 c 128,-1,94
 88 610 88 610 124 610 c 0,95,96
 149 610 149 610 180.5 610 c 128,-1,97
 212 610 212 610 254.5 611 c 128,-1,98
 297 612 297 612 353.5 613.5 c 128,-1,99
 410 615 410 615 484 617 c 0,69,70
474 380 m 1,100,-1
 484 380 l 1,101,-1
 484 341 l 1,102,-1
 474 341 l 1,103,-1
 474 380 l 1,100,-1
474 65 m 1,104,-1
 484 65 l 1,105,-1
 484 25 l 1,106,-1
 474 25 l 1,107,-1
 474 65 l 1,104,-1
474 143 m 1,108,-1
 484 143 l 1,109,-1
 484 104 l 1,110,-1
 474 104 l 1,111,-1
 474 143 l 1,108,-1
474 459 m 1,112,-1
 484 459 l 1,113,-1
 484 419 l 1,114,-1
 474 419 l 1,115,-1
 474 459 l 1,112,-1
474 301 m 1,116,-1
 484 301 l 1,117,-1
 484 262 l 1,118,-1
 474 262 l 1,119,-1
 474 301 l 1,116,-1
474 222 m 1,120,-1
 484 222 l 1,121,-1
 484 183 l 1,122,-1
 474 183 l 1,123,-1
 474 222 l 1,120,-1
484 498 m 1,124,-1
 474 498 l 1,125,-1
 474 538 l 1,126,-1
 484 538 l 1,127,-1
 484 498 l 1,124,-1
EndSplineSet
Validated: 33
EndChar

StartChar: W
Encoding: 87 87 38
Width: 596
GlyphClass: 2
Flags: W
LayerCount: 2
Fore
SplineSet
535 502 m 0,0,1
 535 509 535 509 539.5 512.5 c 128,-1,2
 544 516 544 516 549.5 516 c 128,-1,3
 555 516 555 516 559.5 512.5 c 128,-1,4
 564 509 564 509 564 502 c 0,5,6
 564 488 564 488 560.5 446 c 128,-1,7
 557 404 557 404 549.5 350.5 c 128,-1,8
 542 297 542 297 529 240.5 c 128,-1,9
 516 184 516 184 497 140.5 c 128,-1,10
 478 97 478 97 451.5 75.5 c 128,-1,11
 425 54 425 54 391 70 c 0,12,13
 371 79 371 79 358.5 102.5 c 128,-1,14
 346 126 346 126 337.5 154.5 c 128,-1,15
 329 183 329 183 324 211 c 128,-1,16
 319 239 319 239 316 256 c 0,17,18
 312 279 312 279 308 301 c 128,-1,19
 304 323 304 323 301 346 c 1,20,21
 293 293 293 293 280 237 c 128,-1,22
 267 181 267 181 247.5 138.5 c 128,-1,23
 228 96 228 96 202.5 75 c 128,-1,24
 177 54 177 54 143 70 c 0,25,26
 120 81 120 81 103 111 c 128,-1,27
 86 141 86 141 74.5 181.5 c 128,-1,28
 63 222 63 222 56 268.5 c 128,-1,29
 49 315 49 315 45 359 c 128,-1,30
 41 403 41 403 39.5 440 c 128,-1,31
 38 477 38 477 38 498 c 0,32,33
 38 505 38 505 42.5 508.5 c 128,-1,34
 47 512 47 512 52.5 512 c 128,-1,35
 58 512 58 512 63 508.5 c 128,-1,36
 68 505 68 505 68 498 c 0,37,38
 68 454 68 454 71.5 406 c 128,-1,39
 75 358 75 358 82.5 309.5 c 128,-1,40
 90 261 90 261 102.5 214.5 c 128,-1,41
 115 168 115 168 135 129 c 0,42,43
 150 99 150 99 165 100 c 128,-1,44
 180 101 180 101 194 117.5 c 128,-1,45
 208 134 208 134 219 158 c 128,-1,46
 230 182 230 182 236 199 c 0,47,48
 262 271 262 271 273 344.5 c 128,-1,49
 284 418 284 418 286 493 c 2,50,-1
 286 498 l 2,51,52
 286 500 286 500 287 501 c 2,53,-1
 287 502 l 2,54,55
 287 509 287 509 291.5 512.5 c 128,-1,56
 296 516 296 516 301.5 516 c 128,-1,57
 307 516 307 516 311.5 512.5 c 128,-1,58
 316 509 316 509 316 502 c 2,59,-1
 316 491 l 2,60,61
 317 448 317 448 320.5 400.5 c 128,-1,62
 324 353 324 353 331.5 305.5 c 128,-1,63
 339 258 339 258 351.5 213 c 128,-1,64
 364 168 364 168 383 129 c 0,65,66
 398 99 398 99 413 100 c 128,-1,67
 428 101 428 101 442 117.5 c 128,-1,68
 456 134 456 134 467 158 c 128,-1,69
 478 182 478 182 484 199 c 0,70,71
 511 272 511 272 522 348 c 128,-1,72
 533 424 533 424 535 502 c 0,0,1
589 13 m 0,73,74
 597 14 597 14 603 8.5 c 128,-1,75
 609 3 609 3 611 -5 c 0,76,77
 612 -13 612 -13 606.5 -19 c 128,-1,78
 601 -25 601 -25 593 -26 c 0,79,80
 564 -29 564 -29 531 -32 c 0,81,82
 502 -34 502 -34 464 -35.5 c 128,-1,83
 426 -37 426 -37 384 -37 c 2,84,-1
 380 -37 l 2,85,86
 349 -37 349 -37 298.5 -35.5 c 128,-1,87
 248 -34 248 -34 195 -32 c 128,-1,88
 142 -30 142 -30 95 -28.5 c 128,-1,89
 48 -27 48 -27 23 -27 c 0,90,91
 18 -27 18 -27 12.5 -27 c 128,-1,92
 7 -27 7 -27 2 -28 c 0,93,94
 -6 -28 -6 -28 -12 -22.5 c 128,-1,95
 -18 -17 -18 -17 -18 -9 c 0,96,97
 -19 -1 -19 -1 -13.5 5 c 128,-1,98
 -8 11 -8 11 0 12 c 2,99,-1
 23 12 l 2,100,101
 49 12 49 12 96.5 10.5 c 128,-1,102
 144 9 144 9 197 7 c 128,-1,103
 250 5 250 5 300 3.5 c 128,-1,104
 350 2 350 2 380 2 c 2,105,-1
 384 2 l 2,106,107
 426 2 426 2 463 3.5 c 128,-1,108
 500 5 500 5 528 7 c 0,109,110
 561 10 561 10 589 13 c 0,73,74
602 619 m 0,111,112
 610 619 610 619 616 613.5 c 128,-1,113
 622 608 622 608 622 600 c 0,114,115
 622 581 622 581 603 579 c 2,116,-1
 602 579 l 1,117,-1
 592 579 l 2,118,119
 541 577 541 577 499 577 c 128,-1,120
 457 577 457 577 422 577 c 0,121,122
 373 577 373 577 319 578 c 128,-1,123
 265 579 265 579 215 579.5 c 128,-1,124
 165 580 165 580 124.5 581 c 128,-1,125
 84 582 84 582 63 582 c 0,126,127
 48 582 48 582 32 581.5 c 128,-1,128
 16 581 16 581 -3 580 c 0,129,130
 -11 579 -11 579 -17 584.5 c 128,-1,131
 -23 590 -23 590 -24 598 c 256,132,133
 -25 606 -25 606 -19.5 612 c 128,-1,134
 -14 618 -14 618 -6 619 c 0,135,136
 33 622 33 622 63 622 c 0,137,138
 85 622 85 622 126 621 c 128,-1,139
 167 620 167 620 216.5 619 c 128,-1,140
 266 618 266 618 320 617 c 128,-1,141
 374 616 374 616 422 616 c 0,142,143
 458 616 458 616 502 616.5 c 128,-1,144
 546 617 546 617 602 619 c 0,111,112
592 303 m 1,145,-1
 602 303 l 1,146,-1
 602 264 l 1,147,-1
 592 264 l 1,148,-1
 592 303 l 1,145,-1
592 145 m 1,149,-1
 602 145 l 1,150,-1
 602 106 l 1,151,-1
 592 106 l 1,152,-1
 592 145 l 1,149,-1
592 67 m 1,153,-1
 602 67 l 1,154,-1
 602 27 l 1,155,-1
 592 27 l 1,156,-1
 592 67 l 1,153,-1
592 382 m 1,157,-1
 602 382 l 1,158,-1
 602 343 l 1,159,-1
 592 343 l 1,160,-1
 592 382 l 1,157,-1
602 500 m 1,161,-1
 592 500 l 1,162,-1
 592 540 l 1,163,-1
 602 540 l 1,164,-1
 602 500 l 1,161,-1
592 224 m 1,165,-1
 602 224 l 1,166,-1
 602 185 l 1,167,-1
 592 185 l 1,168,-1
 592 224 l 1,165,-1
592 461 m 1,169,-1
 602 461 l 1,170,-1
 602 421 l 1,171,-1
 592 421 l 1,172,-1
 592 461 l 1,169,-1
EndSplineSet
Validated: 33
EndChar

StartChar: X
Encoding: 88 88 39
Width: 484
GlyphClass: 2
Flags: W
LayerCount: 2
Fore
SplineSet
387 507 m 0,0,1
 391 513 391 513 397 514 c 128,-1,2
 403 515 403 515 407.5 512 c 128,-1,3
 412 509 412 509 414.5 503.5 c 128,-1,4
 417 498 417 498 413 492 c 0,5,6
 371 428 371 428 333 362 c 128,-1,7
 295 296 295 296 256 230 c 1,8,9
 279 194 279 194 302.5 156.5 c 128,-1,10
 326 119 326 119 348 81 c 0,11,12
 352 75 352 75 349.5 69.5 c 128,-1,13
 347 64 347 64 342.5 61 c 128,-1,14
 338 58 338 58 332 59 c 128,-1,15
 326 60 326 60 322 67 c 0,16,17
 281 134 281 134 238 202 c 1,18,19
 217 167 217 167 195 133.5 c 128,-1,20
 173 100 173 100 149 67 c 0,21,22
 145 61 145 61 139 60.5 c 128,-1,23
 133 60 133 60 128.5 63 c 128,-1,24
 124 66 124 66 122 71 c 128,-1,25
 120 76 120 76 124 82 c 0,26,27
 150 119 150 119 173.5 156 c 128,-1,28
 197 193 197 193 220 230 c 1,29,30
 179 296 179 296 139 360 c 128,-1,31
 99 424 99 424 64 493 c 0,32,33
 61 499 61 499 63 505 c 128,-1,34
 65 511 65 511 70 514 c 128,-1,35
 75 517 75 517 81 516 c 128,-1,36
 87 515 87 515 90 508 c 0,37,38
 123 443 123 443 161 381.5 c 128,-1,39
 199 320 199 320 237 260 c 1,40,41
 275 322 275 322 311.5 384 c 128,-1,42
 348 446 348 446 387 507 c 0,0,1
472 8 m 0,43,44
 480 9 480 9 486 3.5 c 128,-1,45
 492 -2 492 -2 494 -10 c 0,46,47
 495 -18 495 -18 489.5 -24 c 128,-1,48
 484 -30 484 -30 476 -31 c 0,49,50
 447 -34 447 -34 414 -37 c 0,51,52
 385 -39 385 -39 347 -40.5 c 128,-1,53
 309 -42 309 -42 267 -42 c 2,54,-1
 263 -42 l 2,55,56
 200 -42 200 -42 136.5 -37 c 128,-1,57
 73 -32 73 -32 23 -32 c 0,58,59
 18 -32 18 -32 12.5 -32 c 128,-1,60
 7 -32 7 -32 2 -33 c 0,61,62
 -6 -33 -6 -33 -12 -27.5 c 128,-1,63
 -18 -22 -18 -22 -18 -14 c 0,64,65
 -19 -6 -19 -6 -13.5 0 c 128,-1,66
 -8 6 -8 6 0 7 c 2,67,-1
 23 7 l 2,68,69
 75 7 75 7 139 2 c 128,-1,70
 203 -3 203 -3 263 -3 c 2,71,-1
 267 -3 l 2,72,73
 309 -3 309 -3 346 -1.5 c 128,-1,74
 383 0 383 0 411 2 c 0,75,76
 444 5 444 5 472 8 c 0,43,44
485 614 m 0,77,78
 493 614 493 614 499 608.5 c 128,-1,79
 505 603 505 603 505 595 c 0,80,81
 505 576 505 576 486 574 c 2,82,-1
 485 574 l 1,83,-1
 475 574 l 2,84,85
 424 572 424 572 382 572 c 128,-1,86
 340 572 340 572 305 572 c 0,87,88
 256 572 256 572 220 573 c 128,-1,89
 184 574 184 574 156.5 574.5 c 128,-1,90
 129 575 129 575 106.5 576 c 128,-1,91
 84 577 84 577 63 577 c 0,92,93
 48 577 48 577 32 576.5 c 128,-1,94
 16 576 16 576 -3 575 c 0,95,96
 -11 574 -11 574 -17 579.5 c 128,-1,97
 -23 585 -23 585 -24 593 c 256,98,99
 -25 601 -25 601 -19.5 607 c 128,-1,100
 -14 613 -14 613 -6 614 c 0,101,102
 33 617 33 617 63 617 c 0,103,104
 85 617 85 617 107.5 616 c 128,-1,105
 130 615 130 615 158 614 c 128,-1,106
 186 613 186 613 221.5 612 c 128,-1,107
 257 611 257 611 305 611 c 0,108,109
 341 611 341 611 385 611.5 c 128,-1,110
 429 612 429 612 485 614 c 0,77,78
475 298 m 1,111,-1
 485 298 l 1,112,-1
 485 259 l 1,113,-1
 475 259 l 1,114,-1
 475 298 l 1,111,-1
475 140 m 1,115,-1
 485 140 l 1,116,-1
 485 101 l 1,117,-1
 475 101 l 1,118,-1
 475 140 l 1,115,-1
475 62 m 1,119,-1
 485 62 l 1,120,-1
 485 22 l 1,121,-1
 475 22 l 1,122,-1
 475 62 l 1,119,-1
475 377 m 1,123,-1
 485 377 l 1,124,-1
 485 338 l 1,125,-1
 475 338 l 1,126,-1
 475 377 l 1,123,-1
485 495 m 1,127,-1
 475 495 l 1,128,-1
 475 535 l 1,129,-1
 485 535 l 1,130,-1
 485 495 l 1,127,-1
475 219 m 1,131,-1
 485 219 l 1,132,-1
 485 180 l 1,133,-1
 475 180 l 1,134,-1
 475 219 l 1,131,-1
475 456 m 1,135,-1
 485 456 l 1,136,-1
 485 416 l 1,137,-1
 475 416 l 1,138,-1
 475 456 l 1,135,-1
EndSplineSet
Validated: 1
EndChar

StartChar: Y
Encoding: 89 89 40
Width: 481
GlyphClass: 2
Flags: W
LayerCount: 2
Fore
SplineSet
374 494 m 0,0,1
 377 500 377 500 382.5 502 c 128,-1,2
 388 504 388 504 393 502.5 c 128,-1,3
 398 501 398 501 401.5 496.5 c 128,-1,4
 405 492 405 492 402 486 c 0,5,6
 360 381 360 381 319 277.5 c 128,-1,7
 278 174 278 174 236 69 c 0,8,9
 233 63 233 63 227.5 61 c 128,-1,10
 222 59 222 59 216.5 60.5 c 128,-1,11
 211 62 211 62 207.5 66.5 c 128,-1,12
 204 71 204 71 207 77 c 0,13,14
 222 114 222 114 236.5 150.5 c 128,-1,15
 251 187 251 187 266 224 c 1,16,17
 214 290 214 290 163 354 c 128,-1,18
 112 418 112 418 60 484 c 0,19,20
 56 490 56 490 57 496 c 128,-1,21
 58 502 58 502 62 506 c 128,-1,22
 66 510 66 510 71 510.5 c 128,-1,23
 76 511 76 511 81 505 c 0,24,25
 131 442 131 442 180 380 c 128,-1,26
 229 318 229 318 278 255 c 1,27,28
 302 315 302 315 326 374.5 c 128,-1,29
 350 434 350 434 374 494 c 0,0,1
474 8 m 0,30,31
 482 9 482 9 488.5 3.5 c 128,-1,32
 495 -2 495 -2 495 -10 c 0,33,34
 496 -18 496 -18 490.5 -24.5 c 128,-1,35
 485 -31 485 -31 477 -32 c 0,36,37
 439 -33 439 -33 396 -34 c 0,38,39
 359 -35 359 -35 312 -35.5 c 128,-1,40
 265 -36 265 -36 214 -36 c 0,41,42
 156 -36 156 -36 100 -36 c 128,-1,43
 44 -36 44 -36 0 -28 c 0,44,45
 -8 -26 -8 -26 -13 -19.5 c 128,-1,46
 -18 -13 -18 -13 -16 -5 c 256,47,48
 -14 3 -14 3 -7.5 8 c 128,-1,49
 -1 13 -1 13 7 11 c 0,50,51
 48 4 48 4 102.5 3.5 c 128,-1,52
 157 3 157 3 214 3 c 0,53,54
 264 3 264 3 310 3.5 c 128,-1,55
 356 4 356 4 393 5 c 0,56,57
 435 6 435 6 474 8 c 0,30,31
486 614 m 0,58,59
 505 614 505 614 507 595 c 0,60,61
 507 587 507 587 501.5 581 c 128,-1,62
 496 575 496 575 488 575 c 2,63,-1
 486 575 l 1,64,-1
 486 571 l 1,65,-1
 477 571 l 1,66,-1
 477 574 l 1,67,68
 406 572 406 572 351.5 571 c 128,-1,69
 297 570 297 570 255.5 570 c 128,-1,70
 214 570 214 570 183 570 c 128,-1,71
 152 570 152 570 127 570 c 0,72,73
 89 570 89 570 59 569 c 128,-1,74
 29 568 29 568 -6 575 c 0,75,76
 -14 577 -14 577 -19 583.5 c 128,-1,77
 -24 590 -24 590 -22 598 c 256,78,79
 -20 606 -20 606 -13.5 611 c 128,-1,80
 -7 616 -7 616 1 614 c 0,81,82
 35 607 35 607 63 608 c 128,-1,83
 91 609 91 609 127 609 c 0,84,85
 152 609 152 609 183.5 609 c 128,-1,86
 215 609 215 609 257.5 609.5 c 128,-1,87
 300 610 300 610 356 611 c 128,-1,88
 412 612 412 612 486 614 c 0,58,59
477 137 m 1,89,-1
 486 137 l 1,90,-1
 486 98 l 1,91,-1
 477 98 l 1,92,-1
 477 137 l 1,89,-1
477 216 m 1,93,-1
 486 216 l 1,94,-1
 486 177 l 1,95,-1
 477 177 l 1,96,-1
 477 216 l 1,93,-1
477 58 m 1,97,-1
 486 58 l 1,98,-1
 486 19 l 1,99,-1
 477 19 l 1,100,-1
 477 58 l 1,97,-1
477 295 m 1,101,-1
 486 295 l 1,102,-1
 486 255 l 1,103,-1
 477 255 l 1,104,-1
 477 295 l 1,101,-1
477 374 m 1,105,-1
 486 374 l 1,106,-1
 486 334 l 1,107,-1
 477 334 l 1,108,-1
 477 374 l 1,105,-1
477 453 m 1,109,-1
 486 453 l 1,110,-1
 486 413 l 1,111,-1
 477 413 l 1,112,-1
 477 453 l 1,109,-1
486 492 m 1,113,-1
 477 492 l 1,114,-1
 477 531 l 1,115,-1
 486 531 l 1,116,-1
 486 492 l 1,113,-1
EndSplineSet
Validated: 33
EndChar

StartChar: Z
Encoding: 90 90 41
Width: 479
GlyphClass: 2
Flags: W
LayerCount: 2
Fore
SplineSet
398 94 m 2,0,1
 405 94 405 94 409 89 c 128,-1,2
 413 84 413 84 413 78.5 c 128,-1,3
 413 73 413 73 409 68 c 128,-1,4
 405 63 405 63 398 63 c 2,5,-1
 104 63 l 2,6,7
 96 63 96 63 91 71 c 128,-1,8
 86 79 86 79 91 86 c 0,9,10
 161 183 161 183 220.5 284.5 c 128,-1,11
 280 386 280 386 344 486 c 1,12,-1
 107 486 l 2,13,14
 99 486 99 486 95.5 491 c 128,-1,15
 92 496 92 496 92 501.5 c 128,-1,16
 92 507 92 507 95.5 512 c 128,-1,17
 99 517 99 517 107 517 c 2,18,-1
 371 517 l 2,19,20
 379 517 379 517 384 509.5 c 128,-1,21
 389 502 389 502 384 494 c 0,22,23
 320 395 320 395 260.5 293 c 128,-1,24
 201 191 201 191 133 94 c 1,25,-1
 398 94 l 2,0,1
473 11 m 0,26,27
 481 11 481 11 487 5 c 128,-1,28
 493 -1 493 -1 493 -9 c 256,29,30
 493 -17 493 -17 487 -23 c 128,-1,31
 481 -29 481 -29 473 -29 c 2,32,33
 473 -29 473 -29 452 -28.5 c 128,-1,34
 431 -28 431 -28 397 -28 c 128,-1,35
 363 -28 363 -28 318.5 -27.5 c 128,-1,36
 274 -27 274 -27 226 -27 c 0,37,38
 165 -27 165 -27 105.5 -27.5 c 128,-1,39
 46 -28 46 -28 1 -30 c 2,40,-1
 0 -30 l 2,41,42
 -8 -30 -8 -30 -13.5 -24.5 c 128,-1,43
 -19 -19 -19 -19 -19 -11 c 0,44,45
 -20 -3 -20 -3 -14 3 c 128,-1,46
 -8 9 -8 9 0 10 c 0,47,48
 45 12 45 12 105 12.5 c 128,-1,49
 165 13 165 13 226 13 c 0,50,51
 274 13 274 13 318 12.5 c 128,-1,52
 362 12 362 12 397 12 c 0,53,54
 437 11 437 11 473 11 c 0,26,27
484 617 m 0,55,56
 492 617 492 617 498 611.5 c 128,-1,57
 504 606 504 606 504 598 c 256,58,59
 504 590 504 590 498.5 584 c 128,-1,60
 493 578 493 578 485 578 c 0,61,62
 484 578 484 578 484 577 c 2,63,-1
 474 577 l 2,64,65
 403 575 403 575 348.5 573.5 c 128,-1,66
 294 572 294 572 252.5 571.5 c 128,-1,67
 211 571 211 571 180 570.5 c 128,-1,68
 149 570 149 570 124 570 c 0,69,70
 86 570 86 570 56.5 570.5 c 128,-1,71
 27 571 27 571 -9 578 c 0,72,73
 -17 580 -17 580 -22 586.5 c 128,-1,74
 -27 593 -27 593 -25 601 c 256,75,76
 -23 609 -23 609 -16.5 614 c 128,-1,77
 -10 619 -10 619 -2 617 c 0,78,79
 33 611 33 611 60.5 610.5 c 128,-1,80
 88 610 88 610 124 610 c 0,81,82
 149 610 149 610 180.5 610 c 128,-1,83
 212 610 212 610 254.5 611 c 128,-1,84
 297 612 297 612 353.5 613.5 c 128,-1,85
 410 615 410 615 484 617 c 0,55,56
474 380 m 1,86,-1
 484 380 l 1,87,-1
 484 341 l 1,88,-1
 474 341 l 1,89,-1
 474 380 l 1,86,-1
474 65 m 1,90,-1
 484 65 l 1,91,-1
 484 25 l 1,92,-1
 474 25 l 1,93,-1
 474 65 l 1,90,-1
474 143 m 1,94,-1
 484 143 l 1,95,-1
 484 104 l 1,96,-1
 474 104 l 1,97,-1
 474 143 l 1,94,-1
474 459 m 1,98,-1
 484 459 l 1,99,-1
 484 419 l 1,100,-1
 474 419 l 1,101,-1
 474 459 l 1,98,-1
474 301 m 1,102,-1
 484 301 l 1,103,-1
 484 262 l 1,104,-1
 474 262 l 1,105,-1
 474 301 l 1,102,-1
474 222 m 1,106,-1
 484 222 l 1,107,-1
 484 183 l 1,108,-1
 474 183 l 1,109,-1
 474 222 l 1,106,-1
484 498 m 1,110,-1
 474 498 l 1,111,-1
 474 538 l 1,112,-1
 484 538 l 1,113,-1
 484 498 l 1,110,-1
EndSplineSet
Validated: 1
EndChar

StartChar: a
Encoding: 97 97 42
Width: 384
GlyphClass: 2
Flags: W
LayerCount: 2
Fore
SplineSet
232 513 m 0,0,1
 277 511 277 511 304.5 487.5 c 128,-1,2
 332 464 332 464 347 427 c 128,-1,3
 362 390 362 390 367 343.5 c 128,-1,4
 372 297 372 297 371.5 249 c 128,-1,5
 371 201 371 201 368.5 155.5 c 128,-1,6
 366 110 366 110 366 76 c 0,7,8
 366 69 366 69 361.5 65.5 c 128,-1,9
 357 62 357 62 351 62 c 128,-1,10
 345 62 345 62 340.5 65.5 c 128,-1,11
 336 69 336 69 336 76 c 0,12,13
 336 98 336 98 338.5 130.5 c 128,-1,14
 341 163 341 163 343 201 c 1,15,16
 268 201 268 201 194 201 c 128,-1,17
 120 201 120 201 45 200 c 1,18,19
 46 167 46 167 47 135.5 c 128,-1,20
 48 104 48 104 48 76 c 0,21,22
 48 69 48 69 43.5 65.5 c 128,-1,23
 39 62 39 62 33.5 62 c 128,-1,24
 28 62 28 62 23.5 65.5 c 128,-1,25
 19 69 19 69 19 76 c 0,26,27
 19 115 19 115 16.5 163.5 c 128,-1,28
 14 212 14 212 15.5 261.5 c 128,-1,29
 17 311 17 311 26 357.5 c 128,-1,30
 35 404 35 404 59 439.5 c 128,-1,31
 83 475 83 475 124.5 495 c 128,-1,32
 166 515 166 515 232 513 c 0,0,1
343 231 m 1,33,34
 344 273 344 273 341.5 315.5 c 128,-1,35
 339 358 339 358 328.5 393 c 128,-1,36
 318 428 318 428 298 452 c 128,-1,37
 278 476 278 476 245 481 c 0,38,39
 179 491 179 491 139.5 472.5 c 128,-1,40
 100 454 100 454 79 417.5 c 128,-1,41
 58 381 58 381 51.5 331.5 c 128,-1,42
 45 282 45 282 45 230 c 1,43,44
 120 230 120 230 194 230.5 c 128,-1,45
 268 231 268 231 343 231 c 1,33,34
EndSplineSet
Validated: 33
EndChar

StartChar: b
Encoding: 98 98 43
Width: 379
GlyphClass: 2
Flags: W
LayerCount: 2
Fore
SplineSet
240 351 m 1,0,1
 267 346 267 346 290.5 336 c 128,-1,2
 314 326 314 326 331 309 c 128,-1,3
 348 292 348 292 357 266 c 128,-1,4
 366 240 366 240 365 203 c 0,5,6
 363 160 363 160 346 133 c 128,-1,7
 329 106 329 106 302 90.5 c 128,-1,8
 275 75 275 75 240 69 c 128,-1,9
 205 63 205 63 168.5 62 c 128,-1,10
 132 61 132 61 95.5 63 c 128,-1,11
 59 65 59 65 28 65 c 0,12,13
 22 65 22 65 20 67 c 0,14,15
 12 71 12 71 12 79 c 0,16,17
 13 182 13 182 13 284.5 c 128,-1,18
 13 387 13 387 14 490 c 0,19,20
 14 497 14 497 18.5 500.5 c 128,-1,21
 23 504 23 504 28.5 504 c 128,-1,22
 34 504 34 504 38.5 500.5 c 128,-1,23
 43 497 43 497 43 490 c 2,24,-1
 43 488 l 1,25,26
 68 498 68 498 98.5 507.5 c 128,-1,27
 129 517 129 517 159.5 518.5 c 128,-1,28
 190 520 190 520 217 511 c 128,-1,29
 244 502 244 502 261 477 c 0,30,31
 272 460 272 460 275.5 442.5 c 128,-1,32
 279 425 279 425 275.5 408.5 c 128,-1,33
 272 392 272 392 262.5 377 c 128,-1,34
 253 362 253 362 240 351 c 1,0,1
43 354 m 1,35,36
 74 355 74 355 109.5 357 c 128,-1,37
 145 359 145 359 181 357 c 2,38,-1
 182 357 l 2,39,40
 204 360 204 360 222 371.5 c 128,-1,41
 240 383 240 383 244 407 c 0,42,43
 249 431 249 431 241.5 451.5 c 128,-1,44
 234 472 234 472 208 480 c 0,45,46
 166 493 166 493 123.5 483 c 128,-1,47
 81 473 81 473 43 456 c 1,48,-1
 43 354 l 1,35,36
42 94 m 1,49,50
 67 93 67 93 98.5 91.5 c 128,-1,51
 130 90 130 90 163 91 c 128,-1,52
 196 92 196 92 227.5 97 c 128,-1,53
 259 102 259 102 283.5 114 c 128,-1,54
 308 126 308 126 322 147.5 c 128,-1,55
 336 169 336 169 335 203 c 0,56,57
 334 239 334 239 322 263 c 128,-1,58
 310 287 310 287 290.5 301 c 128,-1,59
 271 315 271 315 245.5 321 c 128,-1,60
 220 327 220 327 192 329 c 2,61,-1
 190 329 l 2,62,63
 186 328 186 328 182 330 c 0,64,65
 147 331 147 331 111 328.5 c 128,-1,66
 75 326 75 326 43 324 c 1,67,68
 42 267 42 267 42 209.5 c 128,-1,69
 42 152 42 152 42 94 c 1,49,50
EndSplineSet
Validated: 33
EndChar

StartChar: c
Encoding: 99 99 44
Width: 392
GlyphClass: 2
Flags: W
LayerCount: 2
Fore
SplineSet
350 194 m 0,0,1
 353 201 353 201 358 202 c 128,-1,2
 363 203 363 203 368 200 c 128,-1,3
 373 197 373 197 375.5 191.5 c 128,-1,4
 378 186 378 186 375 179 c 0,5,6
 353 128 353 128 317.5 100 c 128,-1,7
 282 72 282 72 242 64.5 c 128,-1,8
 202 57 202 57 161 68 c 128,-1,9
 120 79 120 79 87 106.5 c 128,-1,10
 54 134 54 134 34 175.5 c 128,-1,11
 14 217 14 217 16 271 c 0,12,13
 14 315 14 315 25.5 357.5 c 128,-1,14
 37 400 37 400 60 434 c 128,-1,15
 83 468 83 468 117.5 489 c 128,-1,16
 152 510 152 510 198 512 c 0,17,18
 276 514 276 514 322.5 478.5 c 128,-1,19
 369 443 369 443 374 372 c 0,20,21
 374 365 374 365 369.5 361.5 c 128,-1,22
 365 358 365 358 359.5 358 c 128,-1,23
 354 358 354 358 349 361.5 c 128,-1,24
 344 365 344 365 344 372 c 0,25,26
 342 403 342 403 325 427.5 c 128,-1,27
 308 452 308 452 282.5 466 c 128,-1,28
 257 480 257 480 226 483.5 c 128,-1,29
 195 487 195 487 167 476 c 0,30,31
 130 462 130 462 103.5 432.5 c 128,-1,32
 77 403 77 403 62 366.5 c 128,-1,33
 47 330 47 330 44.5 289.5 c 128,-1,34
 42 249 42 249 53 213 c 0,35,36
 71 155 71 155 110.5 124 c 128,-1,37
 150 93 150 93 195.5 90 c 128,-1,38
 241 87 241 87 283.5 112.5 c 128,-1,39
 326 138 326 138 350 194 c 0,0,1
EndSplineSet
Validated: 33
EndChar

StartChar: d
Encoding: 100 100 45
Width: 371
GlyphClass: 2
Flags: W
LayerCount: 2
Fore
SplineSet
34 513 m 0,0,1
 74 514 74 514 110 514.5 c 128,-1,2
 146 515 146 515 178.5 509.5 c 128,-1,3
 211 504 211 504 241.5 488.5 c 128,-1,4
 272 473 272 473 301 442 c 0,5,6
 321 421 321 421 333.5 394 c 128,-1,7
 346 367 346 367 352 337.5 c 128,-1,8
 358 308 358 308 356.5 278 c 128,-1,9
 355 248 355 248 347 220 c 0,10,11
 329 160 329 160 296.5 128.5 c 128,-1,12
 264 97 264 97 222 82.5 c 128,-1,13
 180 68 180 68 130 65.5 c 128,-1,14
 80 63 80 63 27 62 c 0,15,16
 23 62 23 62 21 63 c 0,17,18
 20 63 20 63 20 63.5 c 128,-1,19
 20 64 20 64 19 64 c 0,20,21
 12 67 12 67 12 76 c 2,22,-1
 12 498 l 2,23,24
 12 507 12 507 18 510.5 c 128,-1,25
 24 514 24 514 31 512 c 0,26,27
 32 512 32 512 32.5 512.5 c 128,-1,28
 33 513 33 513 34 513 c 0,0,1
312 207 m 0,29,30
 321 237 321 237 324 268.5 c 128,-1,31
 327 300 327 300 322 330.5 c 128,-1,32
 317 361 317 361 303 388.5 c 128,-1,33
 289 416 289 416 264 438 c 256,34,35
 239 460 239 460 212.5 470 c 128,-1,36
 186 480 186 480 158.5 483 c 128,-1,37
 131 486 131 486 101.5 485 c 128,-1,38
 72 484 72 484 41 483 c 1,39,-1
 41 92 l 1,40,41
 80 92 80 92 122 93 c 128,-1,42
 164 94 164 94 201.5 103.5 c 128,-1,43
 239 113 239 113 268.5 136.5 c 128,-1,44
 298 160 298 160 312 207 c 0,29,30
EndSplineSet
Validated: 33
EndChar

StartChar: e
Encoding: 101 101 46
Width: 394
GlyphClass: 2
Flags: W
LayerCount: 2
Fore
SplineSet
346 199 m 0,0,1
 349 206 349 206 354.5 207.5 c 128,-1,2
 360 209 360 209 365.5 206 c 128,-1,3
 371 203 371 203 373.5 197.5 c 128,-1,4
 376 192 376 192 373 185 c 0,5,6
 354 143 354 143 321 113.5 c 128,-1,7
 288 84 288 84 248.5 71.5 c 128,-1,8
 209 59 209 59 166.5 66 c 128,-1,9
 124 73 124 73 86 104 c 0,10,11
 46 136 46 136 26.5 188.5 c 128,-1,12
 7 241 7 241 8 296.5 c 128,-1,13
 9 352 9 352 32 402 c 128,-1,14
 55 452 55 452 101 481 c 0,15,16
 137 503 137 503 179 510.5 c 128,-1,17
 221 518 221 518 259 509 c 128,-1,18
 297 500 297 500 327.5 473.5 c 128,-1,19
 358 447 358 447 370 401 c 0,20,21
 375 382 375 382 371.5 362 c 128,-1,22
 368 342 368 342 357.5 324 c 128,-1,23
 347 306 347 306 332 291.5 c 128,-1,24
 317 277 317 277 300 269 c 0,25,26
 249 246 249 246 198.5 253 c 128,-1,27
 148 260 148 260 100 288 c 0,28,29
 94 292 94 292 93.5 298 c 128,-1,30
 93 304 93 304 95.5 308.5 c 128,-1,31
 98 313 98 313 103.5 315 c 128,-1,32
 109 317 109 317 115 313 c 0,33,34
 136 301 136 301 162 292 c 128,-1,35
 188 283 188 283 215 281 c 128,-1,36
 242 279 242 279 267 286 c 128,-1,37
 292 293 292 293 311 314 c 0,38,39
 336 342 336 342 340.5 368.5 c 128,-1,40
 345 395 345 395 326 425 c 0,41,42
 301 462 301 462 263.5 476 c 128,-1,43
 226 490 226 490 187 484.5 c 128,-1,44
 148 479 148 479 114 455 c 128,-1,45
 80 431 80 431 62 392 c 0,46,47
 45 356 45 356 41.5 313.5 c 128,-1,48
 38 271 38 271 47.5 230.5 c 128,-1,49
 57 190 57 190 79.5 157 c 128,-1,50
 102 124 102 124 137 108 c 0,51,52
 170 93 170 93 201.5 94 c 128,-1,53
 233 95 233 95 260.5 107.5 c 128,-1,54
 288 120 288 120 310 143.5 c 128,-1,55
 332 167 332 167 346 199 c 0,0,1
EndSplineSet
Validated: 33
EndChar

StartChar: f
Encoding: 102 102 47
Width: 345
GlyphClass: 2
Flags: W
LayerCount: 2
Fore
SplineSet
326 515 m 0,0,1
 333 515 333 515 337 510.5 c 128,-1,2
 341 506 341 506 341 500.5 c 128,-1,3
 341 495 341 495 337 490.5 c 128,-1,4
 333 486 333 486 326 486 c 0,5,6
 255 485 255 485 184.5 485 c 128,-1,7
 114 485 114 485 42 485 c 1,8,-1
 42 248 l 1,9,-1
 43 248 l 2,10,11
 87 248 87 248 130 248 c 128,-1,12
 173 248 173 248 217 247 c 0,13,14
 224 247 224 247 227.5 242.5 c 128,-1,15
 231 238 231 238 231 232.5 c 128,-1,16
 231 227 231 227 227.5 222.5 c 128,-1,17
 224 218 224 218 217 218 c 2,18,-1
 43 218 l 2,19,20
 42 218 42 218 42 219 c 2,21,-1
 42 76 l 2,22,23
 42 69 42 69 37.5 65.5 c 128,-1,24
 33 62 33 62 27 62 c 128,-1,25
 21 62 21 62 16.5 65.5 c 128,-1,26
 12 69 12 69 12 76 c 2,27,-1
 12 500 l 2,28,29
 12 509 12 509 19 512 c 128,-1,30
 26 515 26 515 33 513 c 0,31,32
 34 514 34 514 38 514 c 0,33,34
 110 515 110 515 182 515 c 128,-1,35
 254 515 254 515 326 515 c 0,0,1
EndSplineSet
Validated: 1
EndChar

StartChar: g
Encoding: 103 103 48
Width: 399
GlyphClass: 2
Flags: W
LayerCount: 2
Fore
SplineSet
262 244 m 0,0,1
 272 244 272 244 288.5 245 c 128,-1,2
 305 246 305 246 322.5 244.5 c 128,-1,3
 340 243 340 243 354 238 c 128,-1,4
 368 233 368 233 373 220 c 0,5,6
 379 205 379 205 377 187.5 c 128,-1,7
 375 170 375 170 367.5 153.5 c 128,-1,8
 360 137 360 137 348.5 122.5 c 128,-1,9
 337 108 337 108 325 99 c 0,10,11
 286 71 286 71 244.5 65 c 128,-1,12
 203 59 203 59 163.5 70.5 c 128,-1,13
 124 82 124 82 90.5 109.5 c 128,-1,14
 57 137 57 137 35 177 c 256,15,16
 13 217 13 217 13 267 c 128,-1,17
 13 317 13 317 30.5 365 c 128,-1,18
 48 413 48 413 80 451.5 c 128,-1,19
 112 490 112 490 155 507 c 0,20,21
 192 521 192 521 228.5 517 c 128,-1,22
 265 513 265 513 293.5 495 c 128,-1,23
 322 477 322 477 341 446 c 128,-1,24
 360 415 360 415 363 376 c 0,25,26
 363 369 363 369 358.5 365.5 c 128,-1,27
 354 362 354 362 348.5 362 c 128,-1,28
 343 362 343 362 338 365.5 c 128,-1,29
 333 369 333 369 333 376 c 0,30,31
 330 417 330 417 307.5 444 c 128,-1,32
 285 471 285 471 253.5 481.5 c 128,-1,33
 222 492 222 492 186.5 484.5 c 128,-1,34
 151 477 151 477 123 450 c 0,35,36
 100 429 100 429 82 400 c 128,-1,37
 64 371 64 371 53.5 338.5 c 128,-1,38
 43 306 43 306 42.5 272 c 128,-1,39
 42 238 42 238 54 208 c 256,40,41
 66 178 66 178 88 152.5 c 128,-1,42
 110 127 110 127 138 111 c 128,-1,43
 166 95 166 95 198.5 91 c 128,-1,44
 231 87 231 87 264 99 c 0,45,46
 278 105 278 105 293 113 c 128,-1,47
 308 121 308 121 319 133 c 0,48,49
 328 141 328 141 335.5 154 c 128,-1,50
 343 167 343 167 345.5 179 c 128,-1,51
 348 191 348 191 345.5 200.5 c 128,-1,52
 343 210 343 210 333 212 c 0,53,54
 315 214 315 214 297.5 214 c 128,-1,55
 280 214 280 214 262 214 c 0,56,57
 255 214 255 214 251.5 218.5 c 128,-1,58
 248 223 248 223 248 228.5 c 128,-1,59
 248 234 248 234 251.5 239 c 128,-1,60
 255 244 255 244 262 244 c 0,0,1
EndSplineSet
Validated: 33
EndChar

StartChar: h
Encoding: 104 104 49
Width: 368
GlyphClass: 2
Flags: W
LayerCount: 2
Fore
SplineSet
326 488 m 1,0,1
 326 495 326 495 330.5 498.5 c 128,-1,2
 335 502 335 502 341 502 c 128,-1,3
 347 502 347 502 351.5 498.5 c 128,-1,4
 356 495 356 495 356 488 c 2,5,-1
 356 78 l 2,6,7
 356 71 356 71 351.5 67.5 c 128,-1,8
 347 64 347 64 341 64 c 128,-1,9
 335 64 335 64 330.5 67.5 c 128,-1,10
 326 71 326 71 326 78 c 2,11,-1
 326 205 l 1,12,-1
 42 205 l 1,13,-1
 42 78 l 2,14,15
 42 71 42 71 37.5 67.5 c 128,-1,16
 33 64 33 64 27 64 c 128,-1,17
 21 64 21 64 16.5 67.5 c 128,-1,18
 12 71 12 71 12 78 c 2,19,-1
 12 488 l 2,20,21
 12 495 12 495 16.5 498.5 c 128,-1,22
 21 502 21 502 27 502 c 128,-1,23
 33 502 33 502 37.5 498.5 c 128,-1,24
 42 495 42 495 42 488 c 2,25,-1
 42 235 l 1,26,-1
 326 235 l 1,27,-1
 326 488 l 1,28,-1
 326 488 l 1,0,1
EndSplineSet
Validated: 5
EndChar

StartChar: i
Encoding: 105 105 50
Width: 99
GlyphClass: 2
Flags: W
LayerCount: 2
Fore
SplineSet
49 528 m 0,0,1
 63 529 63 529 76 521 c 128,-1,2
 89 513 89 513 88 497 c 0,3,4
 88 486 88 486 79 477 c 0,5,6
 78 475 78 475 75 472 c 0,7,8
 68 467 68 467 61.5 466 c 128,-1,9
 55 465 55 465 48 465 c 2,10,-1
 46 465 l 2,11,12
 37 466 37 466 29.5 471 c 128,-1,13
 22 476 22 476 18 486 c 0,14,15
 12 502 12 502 22.5 514 c 128,-1,16
 33 526 33 526 49 528 c 0,0,1
49 495 m 0,17,18
 54 496 54 496 57.5 498 c 128,-1,19
 61 500 61 500 53 499 c 0,20,21
 47 498 47 498 47 496.5 c 128,-1,22
 47 495 47 495 49 495 c 0,17,18
33 423 m 2,23,24
 33 430 33 430 37.5 433.5 c 128,-1,25
 42 437 42 437 48 437 c 128,-1,26
 54 437 54 437 58.5 433.5 c 128,-1,27
 63 430 63 430 63 423 c 2,28,-1
 63 75 l 2,29,30
 63 68 63 68 58.5 64.5 c 128,-1,31
 54 61 54 61 48 61 c 128,-1,32
 42 61 42 61 37.5 64.5 c 128,-1,33
 33 68 33 68 33 75 c 2,34,-1
 33 423 l 2,23,24
EndSplineSet
Validated: 1
EndChar

StartChar: j
Encoding: 106 106 51
Width: 386
GlyphClass: 2
Flags: W
LayerCount: 2
Fore
SplineSet
363 504 m 2,0,1
 370 504 370 504 373.5 499.5 c 128,-1,2
 377 495 377 495 377 489 c 0,3,4
 377 484 377 484 373.5 479.5 c 128,-1,5
 370 475 370 475 363 475 c 2,6,-1
 222 475 l 1,7,8
 221 426 221 426 221 377.5 c 128,-1,9
 221 329 221 329 221 280 c 1,10,11
 233 278 233 278 233 266 c 0,12,13
 233 253 233 253 221 252 c 1,14,15
 221 235 221 235 222 214 c 128,-1,16
 223 193 223 193 223 167 c 0,17,18
 223 146 223 146 217 126.5 c 128,-1,19
 211 107 211 107 201 92 c 128,-1,20
 191 77 191 77 177.5 68.5 c 128,-1,21
 164 60 164 60 149 60 c 0,22,23
 127 60 127 60 107 69 c 128,-1,24
 87 78 87 78 71.5 93 c 128,-1,25
 56 108 56 108 47 128.5 c 128,-1,26
 38 149 38 149 38 172 c 0,27,28
 38 205 38 205 52.5 225 c 128,-1,29
 67 245 67 245 89.5 257 c 128,-1,30
 112 269 112 269 139 273.5 c 128,-1,31
 166 278 166 278 192 280 c 1,32,-1
 192 475 l 1,33,-1
 25 475 l 2,34,35
 17 475 17 475 14 479.5 c 128,-1,36
 11 484 11 484 11 489 c 0,37,38
 11 495 11 495 14 499.5 c 128,-1,39
 17 504 17 504 25 504 c 2,40,-1
 363 504 l 2,0,1
89 116 m 0,41,42
 115 93 115 93 138 93 c 0,43,44
 164 93 164 93 178 118.5 c 128,-1,45
 192 144 192 144 192 178 c 2,46,-1
 192 251 l 1,47,48
 171 250 171 250 148.5 246.5 c 128,-1,49
 126 243 126 243 107.5 234.5 c 128,-1,50
 89 226 89 226 77.5 210 c 128,-1,51
 66 194 66 194 66 169 c 0,52,53
 66 137 66 137 89 116 c 0,41,42
EndSplineSet
Validated: 1
EndChar

StartChar: k
Encoding: 107 107 52
Width: 393
GlyphClass: 2
Flags: W
LayerCount: 2
Fore
SplineSet
138 246 m 1,0,1
 197 209 197 209 255 170.5 c 128,-1,2
 313 132 313 132 367 87 c 0,3,4
 373 82 373 82 372 76.5 c 128,-1,5
 371 71 371 71 367 67.5 c 128,-1,6
 363 64 363 64 357 62.5 c 128,-1,7
 351 61 351 61 346 66 c 0,8,9
 290 113 290 113 227.5 156.5 c 128,-1,10
 165 200 165 200 100 235 c 1,11,12
 93 233 93 233 86.5 232 c 128,-1,13
 80 231 80 231 73 230 c 1,14,-1
 73 76 l 2,15,16
 73 69 73 69 68.5 65.5 c 128,-1,17
 64 62 64 62 58.5 62 c 128,-1,18
 53 62 53 62 48.5 65.5 c 128,-1,19
 44 69 44 69 44 76 c 2,20,-1
 44 232 l 1,21,22
 30 235 30 235 20.5 245 c 128,-1,23
 11 255 11 255 11 274 c 0,24,25
 11 290 11 290 20.5 293.5 c 128,-1,26
 30 297 30 297 44 294 c 1,27,-1
 44 500 l 2,28,29
 44 507 44 507 48.5 510.5 c 128,-1,30
 53 514 53 514 58.5 514 c 128,-1,31
 64 514 64 514 68.5 510.5 c 128,-1,32
 73 507 73 507 73 500 c 2,33,-1
 73 283 l 1,34,35
 82 279 82 279 90.5 274.5 c 128,-1,36
 99 270 99 270 107 265 c 1,37,38
 130 273 130 273 150.5 283.5 c 128,-1,39
 171 294 171 294 190 308 c 0,40,41
 213 324 213 324 236.5 344.5 c 128,-1,42
 260 365 260 365 279.5 389 c 128,-1,43
 299 413 299 413 312 440 c 128,-1,44
 325 467 325 467 327 497 c 0,45,46
 327 504 327 504 332 507.5 c 128,-1,47
 337 511 337 511 342.5 511 c 128,-1,48
 348 511 348 511 352.5 507.5 c 128,-1,49
 357 504 357 504 356 497 c 0,50,51
 354 458 354 458 335.5 421.5 c 128,-1,52
 317 385 317 385 289 353.5 c 128,-1,53
 261 322 261 322 227 296.5 c 128,-1,54
 193 271 193 271 160 255 c 0,55,56
 156 253 156 253 150.5 250.5 c 128,-1,57
 145 248 145 248 138 246 c 1,0,1
EndSplineSet
Validated: 1
EndChar

StartChar: l
Encoding: 108 108 53
Width: 349
GlyphClass: 2
Flags: W
LayerCount: 2
Fore
SplineSet
323 93 m 1,0,1
 330 93 330 93 333.5 88.5 c 128,-1,2
 337 84 337 84 337 78 c 128,-1,3
 337 72 337 72 333.5 67.5 c 128,-1,4
 330 63 330 63 323 63 c 2,5,-1
 27 63 l 2,6,7
 22 63 22 63 18 67 c 0,8,9
 17 67 17 67 17 68 c 1,10,11
 16 68 16 68 16 69 c 0,12,13
 12 73 12 73 12 78 c 2,14,-1
 12 502 l 2,15,16
 12 509 12 509 16.5 512.5 c 128,-1,17
 21 516 21 516 27 516 c 128,-1,18
 33 516 33 516 37.5 512.5 c 128,-1,19
 42 509 42 509 42 502 c 2,20,-1
 42 93 l 1,21,-1
 323 93 l 1,22,-1
 323 93 l 1,0,1
EndSplineSet
Validated: 5
EndChar

StartChar: m
Encoding: 109 109 54
Width: 573
GlyphClass: 2
Flags: W
LayerCount: 2
Fore
SplineSet
377 509 m 0,0,1
 413 519 413 519 445 511.5 c 128,-1,2
 477 504 477 504 497 470 c 0,3,4
 521 428 521 428 532.5 379.5 c 128,-1,5
 544 331 544 331 548 279.5 c 128,-1,6
 552 228 552 228 550 176.5 c 128,-1,7
 548 125 548 125 546 79 c 0,8,9
 546 72 546 72 541 68.5 c 128,-1,10
 536 65 536 65 530.5 65 c 128,-1,11
 525 65 525 65 520.5 68.5 c 128,-1,12
 516 72 516 72 516 79 c 0,13,14
 519 139 519 139 519 198 c 128,-1,15
 519 257 519 257 511 317 c 0,16,17
 509 335 509 335 506 356.5 c 128,-1,18
 503 378 503 378 497 399 c 128,-1,19
 491 420 491 420 482 439 c 128,-1,20
 473 458 473 458 459 471 c 0,21,22
 430 496 430 496 403 489.5 c 128,-1,23
 376 483 376 483 354.5 460 c 128,-1,24
 333 437 333 437 319 405 c 128,-1,25
 305 373 305 373 302 348 c 1,26,27
 312 281 312 281 306.5 211.5 c 128,-1,28
 301 142 301 142 297 77 c 0,29,30
 297 70 297 70 292 66.5 c 128,-1,31
 287 63 287 63 281.5 63 c 128,-1,32
 276 63 276 63 271.5 66.5 c 128,-1,33
 267 70 267 70 268 77 c 0,34,35
 271 135 271 135 275.5 192.5 c 128,-1,36
 280 250 280 250 275 307 c 0,37,38
 274 315 274 315 273.5 322.5 c 128,-1,39
 273 330 273 330 272 338 c 0,40,41
 272 340 272 340 271.5 340.5 c 128,-1,42
 271 341 271 341 271 343 c 2,43,-1
 271 344 l 2,44,45
 268 376 268 376 259 409.5 c 128,-1,46
 250 443 250 443 227 463 c 0,47,48
 196 492 196 492 164.5 488 c 128,-1,49
 133 484 133 484 107 462 c 128,-1,50
 81 440 81 440 64 406.5 c 128,-1,51
 47 373 47 373 44 343 c 0,52,53
 44 339 44 339 42 335 c 2,54,-1
 42 77 l 2,55,56
 42 70 42 70 37.5 66.5 c 128,-1,57
 33 63 33 63 27 63 c 128,-1,58
 21 63 21 63 16.5 66.5 c 128,-1,59
 12 70 12 70 12 77 c 2,60,-1
 12 501 l 2,61,62
 12 508 12 508 16.5 511.5 c 128,-1,63
 21 515 21 515 27 515 c 128,-1,64
 33 515 33 515 37.5 511.5 c 128,-1,65
 42 508 42 508 42 501 c 2,66,-1
 42 420 l 1,67,68
 61 453 61 453 89.5 479 c 128,-1,69
 118 505 118 505 149.5 515 c 128,-1,70
 181 525 181 525 211.5 514 c 128,-1,71
 242 503 242 503 265 461 c 0,72,73
 272 450 272 450 277 437.5 c 128,-1,74
 282 425 282 425 287 412 c 1,75,76
 299 445 299 445 321.5 472 c 128,-1,77
 344 499 344 499 377 509 c 0,0,1
EndSplineSet
Validated: 33
EndChar

StartChar: n
Encoding: 110 110 55
Width: 370
GlyphClass: 2
Flags: W
LayerCount: 2
Fore
SplineSet
41 418 m 1,0,1
 52 454 52 454 84 480.5 c 128,-1,2
 116 507 116 507 155 516.5 c 128,-1,3
 194 526 194 526 234 514.5 c 128,-1,4
 274 503 274 503 301 464 c 0,5,6
 329 423 329 423 340 374.5 c 128,-1,7
 351 326 351 326 351.5 275.5 c 128,-1,8
 352 225 352 225 347 174 c 128,-1,9
 342 123 342 123 339 77 c 0,10,11
 339 70 339 70 334 66.5 c 128,-1,12
 329 63 329 63 323.5 63 c 128,-1,13
 318 63 318 63 313.5 66.5 c 128,-1,14
 309 70 309 70 310 77 c 0,15,16
 314 137 314 137 319 196.5 c 128,-1,17
 324 256 324 256 317 316 c 0,18,19
 315 335 315 335 311.5 357.5 c 128,-1,20
 308 380 308 380 301 401.5 c 128,-1,21
 294 423 294 423 282.5 441 c 128,-1,22
 271 459 271 459 253 470 c 0,23,24
 219 490 219 490 183 486.5 c 128,-1,25
 147 483 147 483 117 463 c 128,-1,26
 87 443 87 443 67 411 c 128,-1,27
 47 379 47 379 44 343 c 0,28,29
 44 338 44 338 41 335 c 2,30,-1
 41 77 l 2,31,32
 41 70 41 70 36.5 66.5 c 128,-1,33
 32 63 32 63 26.5 63 c 128,-1,34
 21 63 21 63 16.5 66.5 c 128,-1,35
 12 70 12 70 12 77 c 2,36,-1
 12 501 l 2,37,38
 12 508 12 508 16.5 511.5 c 128,-1,39
 21 515 21 515 26.5 515 c 128,-1,40
 32 515 32 515 36.5 511.5 c 128,-1,41
 41 508 41 508 41 501 c 2,42,-1
 41 418 l 1,43,-1
 41 418 l 1,0,1
EndSplineSet
Validated: 37
EndChar

StartChar: o
Encoding: 111 111 56
Width: 383
GlyphClass: 2
Flags: W
LayerCount: 2
Fore
SplineSet
268 496 m 0,0,1
 291 482 291 482 310 457 c 128,-1,2
 329 432 329 432 342.5 403 c 128,-1,3
 356 374 356 374 363.5 342.5 c 128,-1,4
 371 311 371 311 370 284 c 0,5,6
 369 242 369 242 358 202 c 128,-1,7
 347 162 347 162 325.5 130.5 c 128,-1,8
 304 99 304 99 270 80.5 c 128,-1,9
 236 62 236 62 188 62 c 0,10,11
 134 62 134 62 97.5 88.5 c 128,-1,12
 61 115 61 115 40.5 156.5 c 128,-1,13
 20 198 20 198 14.5 248.5 c 128,-1,14
 9 299 9 299 17.5 347 c 128,-1,15
 26 395 26 395 47 435.5 c 128,-1,16
 68 476 68 476 101 498 c 0,17,18
 103 500 103 500 105.5 500.5 c 128,-1,19
 108 501 108 501 110 503 c 256,20,21
 112 505 112 505 114.5 505.5 c 128,-1,22
 117 506 117 506 119 508 c 0,23,24
 122 509 122 509 125 510 c 128,-1,25
 128 511 128 511 130 512 c 256,26,27
 132 513 132 513 133.5 513 c 128,-1,28
 135 513 135 513 137 514 c 0,29,30
 170 522 170 522 206 517.5 c 128,-1,31
 242 513 242 513 268 496 c 0,0,1
182 92 m 0,32,33
 233 91 233 91 274 118.5 c 128,-1,34
 315 146 315 146 329 198 c 0,35,36
 343 255 343 255 337 310 c 128,-1,37
 331 365 331 365 299 416 c 0,38,39
 286 436 286 436 263.5 454 c 128,-1,40
 241 472 241 472 215 482 c 1,41,42
 209 478 209 478 202 480 c 0,43,44
 156 496 156 496 121.5 473.5 c 128,-1,45
 87 451 87 451 67 408 c 128,-1,46
 47 365 47 365 42 310.5 c 128,-1,47
 37 256 37 256 50.5 207.5 c 128,-1,48
 64 159 64 159 96 125.5 c 128,-1,49
 128 92 128 92 182 92 c 0,32,33
EndSplineSet
Validated: 33
EndChar

StartChar: p
Encoding: 112 112 57
Width: 370
GlyphClass: 2
Flags: W
LayerCount: 2
Fore
SplineSet
274 504 m 0,0,1
 319 482 319 482 339 438 c 128,-1,2
 359 394 359 394 352 346 c 0,3,4
 345 291 345 291 312.5 264.5 c 128,-1,5
 280 238 280 238 235 229 c 128,-1,6
 190 220 190 220 139.5 221.5 c 128,-1,7
 89 223 89 223 46 224 c 1,8,-1
 46 76 l 2,9,10
 46 69 46 69 41.5 65.5 c 128,-1,11
 37 62 37 62 31 62 c 128,-1,12
 25 62 25 62 20.5 65.5 c 128,-1,13
 16 69 16 69 16 76 c 2,14,-1
 16 231 l 1,15,16
 11 239 11 239 16 247 c 1,17,-1
 16 491 l 2,18,19
 13 497 13 497 15 504 c 128,-1,20
 17 511 17 511 25 513 c 0,21,22
 27 514 27 514 33 514 c 0,23,24
 61 514 61 514 92.5 517 c 128,-1,25
 124 520 124 520 155.5 521 c 128,-1,26
 187 522 187 522 217.5 519 c 128,-1,27
 248 516 248 516 274 504 c 0,0,1
46 254 m 1,28,29
 71 253 71 253 101.5 251.5 c 128,-1,30
 132 250 132 250 163 251 c 128,-1,31
 194 252 194 252 223.5 257 c 128,-1,32
 253 262 253 262 275.5 274.5 c 128,-1,33
 298 287 298 287 311 308 c 128,-1,34
 324 329 324 329 323 363 c 0,35,36
 321 421 321 421 293.5 448 c 128,-1,37
 266 475 266 475 225.5 483.5 c 128,-1,38
 185 492 185 492 137 488.5 c 128,-1,39
 89 485 89 485 46 484 c 1,40,-1
 46 254 l 1,28,29
EndSplineSet
Validated: 33
EndChar

StartChar: q
Encoding: 113 113 58
Width: 383
GlyphClass: 2
Flags: W
LayerCount: 2
Fore
SplineSet
341 121 m 1,0,1
 353 113 353 113 360.5 101 c 128,-1,2
 368 89 368 89 367 71 c 0,3,4
 367 64 367 64 362 60.5 c 128,-1,5
 357 57 357 57 351.5 57 c 128,-1,6
 346 57 346 57 341.5 60.5 c 128,-1,7
 337 64 337 64 337 71 c 0,8,9
 338 84 338 84 328 94 c 1,10,11
 306 62 306 62 268.5 56 c 128,-1,12
 231 50 231 50 198 67 c 1,13,14
 153 59 153 59 119 76 c 128,-1,15
 85 93 85 93 62 124.5 c 128,-1,16
 39 156 39 156 27 198.5 c 128,-1,17
 15 241 15 241 14 285 c 128,-1,18
 13 329 13 329 23 370.5 c 128,-1,19
 33 412 33 412 53 442 c 0,20,21
 74 473 74 473 109.5 491 c 128,-1,22
 145 509 145 509 183 511 c 128,-1,23
 221 513 221 513 256.5 498.5 c 128,-1,24
 292 484 292 484 315 450 c 0,25,26
 336 418 336 418 347 376 c 128,-1,27
 358 334 358 334 360.5 289.5 c 128,-1,28
 363 245 363 245 357.5 201 c 128,-1,29
 352 157 352 157 341 121 c 1,0,1
224 85 m 1,30,31
 277 82 277 82 301 109 c 1,32,33
 276 117 276 117 247 116.5 c 128,-1,34
 218 116 218 116 204 113 c 0,35,36
 181 110 181 110 201 97 c 0,37,38
 203 98 203 98 206 98 c 0,39,40
 214 100 214 100 218.5 95.5 c 128,-1,41
 223 91 223 91 224 85 c 1,30,31
318 148 m 0,42,43
 323 174 323 174 325 200.5 c 128,-1,44
 327 227 327 227 327 253 c 0,45,46
 326 286 326 286 322.5 325 c 128,-1,47
 319 364 319 364 306.5 398.5 c 128,-1,48
 294 433 294 433 269 456 c 128,-1,49
 244 479 244 479 201 481 c 0,50,51
 150 483 150 483 116 456 c 128,-1,52
 82 429 82 429 64 388 c 128,-1,53
 46 347 46 347 44 297.5 c 128,-1,54
 42 248 42 248 54.5 204.5 c 128,-1,55
 67 161 67 161 94 130.5 c 128,-1,56
 121 100 121 100 161 95 c 1,57,58
 149 110 149 110 156.5 120 c 128,-1,59
 164 130 164 130 179.5 135.5 c 128,-1,60
 195 141 195 141 212.5 143 c 128,-1,61
 230 145 230 145 237 145 c 0,62,63
 254 145 254 145 274.5 142.5 c 128,-1,64
 295 140 295 140 315 134 c 1,65,66
 316 138 316 138 318 148 c 0,42,43
EndSplineSet
Validated: 33
EndChar

StartChar: r
Encoding: 114 114 59
Width: 380
GlyphClass: 2
Flags: W
LayerCount: 2
Fore
SplineSet
358 361 m 0,0,1
 355 306 355 306 329 276.5 c 128,-1,2
 303 247 303 247 264.5 234.5 c 128,-1,3
 226 222 226 222 179 221 c 128,-1,4
 132 220 132 220 87 221 c 1,5,6
 148 188 148 188 209 154.5 c 128,-1,7
 270 121 270 121 331 87 c 0,8,9
 337 84 337 84 338 78 c 128,-1,10
 339 72 339 72 336 67 c 128,-1,11
 333 62 333 62 327.5 60 c 128,-1,12
 322 58 322 58 316 61 c 0,13,14
 248 99 248 99 180.5 136 c 128,-1,15
 113 173 113 173 45 211 c 1,16,-1
 45 74 l 2,17,18
 45 67 45 67 40.5 63.5 c 128,-1,19
 36 60 36 60 30 60 c 128,-1,20
 24 60 24 60 19.5 63.5 c 128,-1,21
 15 67 15 67 15 74 c 2,22,-1
 15 230 l 2,23,24
 12 236 12 236 15 244 c 2,25,-1
 15 490 l 2,26,27
 13 495 13 495 15 501.5 c 128,-1,28
 17 508 17 508 24 510 c 0,29,30
 27 512 27 512 33 512 c 0,31,32
 63 512 63 512 100 514 c 128,-1,33
 137 516 137 516 174 515 c 128,-1,34
 211 514 211 514 245.5 507 c 128,-1,35
 280 500 280 500 306 483.5 c 128,-1,36
 332 467 332 467 346.5 437.5 c 128,-1,37
 361 408 361 408 358 361 c 0,0,1
45 252 m 1,38,39
 82 251 82 251 131.5 249 c 128,-1,40
 181 247 181 247 226 255 c 128,-1,41
 271 263 271 263 301 287 c 128,-1,42
 331 311 331 311 329 361 c 0,43,44
 326 420 326 420 297.5 447 c 128,-1,45
 269 474 269 474 227 482.5 c 128,-1,46
 185 491 185 491 136.5 487.5 c 128,-1,47
 88 484 88 484 45 482 c 1,48,-1
 45 252 l 1,38,39
EndSplineSet
Validated: 33
EndChar

StartChar: s
Encoding: 115 115 60
Width: 383
GlyphClass: 2
Flags: W
LayerCount: 2
Fore
SplineSet
288 255 m 0,0,1
 315 246 315 246 330.5 228.5 c 128,-1,2
 346 211 346 211 350.5 189.5 c 128,-1,3
 355 168 355 168 348.5 145 c 128,-1,4
 342 122 342 122 323 102 c 0,5,6
 312 90 312 90 290.5 80.5 c 128,-1,7
 269 71 269 71 243 65.5 c 128,-1,8
 217 60 217 60 189 58.5 c 128,-1,9
 161 57 161 57 135 60.5 c 128,-1,10
 109 64 109 64 88.5 73 c 128,-1,11
 68 82 68 82 58 98 c 0,12,13
 45 118 45 118 46.5 126.5 c 128,-1,14
 48 135 48 135 54 138 c 128,-1,15
 60 141 60 141 66.5 140 c 128,-1,16
 73 139 73 139 70 139 c 1,17,18
 76 115 76 115 99 103.5 c 128,-1,19
 122 92 122 92 151 89.5 c 128,-1,20
 180 87 180 87 211 91 c 128,-1,21
 242 95 242 95 264 103 c 0,22,23
 282 109 282 109 298 124.5 c 128,-1,24
 314 140 314 140 321 158 c 128,-1,25
 328 176 328 176 322 193.5 c 128,-1,26
 316 211 316 211 291 222 c 0,27,28
 265 233 265 233 237 239.5 c 128,-1,29
 209 246 209 246 181 252 c 0,30,31
 149 259 149 259 114 270 c 128,-1,32
 79 281 79 281 54.5 299.5 c 128,-1,33
 30 318 30 318 20.5 346 c 128,-1,34
 11 374 11 374 30 416 c 0,35,36
 46 453 46 453 77.5 476.5 c 128,-1,37
 109 500 109 500 146.5 509 c 128,-1,38
 184 518 184 518 223 511.5 c 128,-1,39
 262 505 262 505 295 483 c 0,40,41
 315 469 315 469 327.5 448 c 128,-1,42
 340 427 340 427 341.5 405 c 128,-1,43
 343 383 343 383 331.5 365 c 128,-1,44
 320 347 320 347 292 339 c 0,45,46
 285 337 285 337 280.5 340.5 c 128,-1,47
 276 344 276 344 274.5 349.5 c 128,-1,48
 273 355 273 355 275 360.5 c 128,-1,49
 277 366 277 366 284 368 c 0,50,51
 308 374 308 374 311.5 389 c 128,-1,52
 315 404 315 404 308.5 419.5 c 128,-1,53
 302 435 302 435 289 448.5 c 128,-1,54
 276 462 276 462 266 467 c 0,55,56
 210 493 210 493 146 477 c 0,57,58
 134 474 134 474 119 464.5 c 128,-1,59
 104 455 104 455 90 441 c 128,-1,60
 76 427 76 427 65.5 410.5 c 128,-1,61
 55 394 55 394 52 377 c 128,-1,62
 49 360 49 360 56 343.5 c 128,-1,63
 63 327 63 327 84 315 c 0,64,65
 106 302 106 302 131 294.5 c 128,-1,66
 156 287 156 287 182 281.5 c 128,-1,67
 208 276 208 276 235 270 c 128,-1,68
 262 264 262 264 288 255 c 0,0,1
EndSplineSet
Validated: 33
EndChar

StartChar: t
Encoding: 116 116 61
Width: 395
GlyphClass: 2
Flags: W
LayerCount: 2
Fore
SplineSet
366 508 m 1,0,1
 373 508 373 508 377 503.5 c 128,-1,2
 381 499 381 499 381 493.5 c 128,-1,3
 381 488 381 488 377 483.5 c 128,-1,4
 373 479 373 479 366 479 c 2,5,-1
 212 479 l 1,6,-1
 212 76 l 2,7,8
 212 69 212 69 207.5 65.5 c 128,-1,9
 203 62 203 62 197 62 c 128,-1,10
 191 62 191 62 186.5 65.5 c 128,-1,11
 182 69 182 69 182 76 c 2,12,-1
 182 479 l 1,13,14
 144 478 144 478 105 478 c 128,-1,15
 66 478 66 478 28 478 c 0,16,17
 21 478 21 478 17.5 482.5 c 128,-1,18
 14 487 14 487 14 493 c 128,-1,19
 14 499 14 499 17.5 503.5 c 128,-1,20
 21 508 21 508 28 508 c 0,21,22
 73 508 73 508 120.5 508.5 c 128,-1,23
 168 509 168 509 209 508 c 2,24,-1
 366 508 l 1,25,-1
 366 508 l 1,0,1
EndSplineSet
Validated: 37
EndChar

StartChar: u
Encoding: 117 117 62
Width: 367
GlyphClass: 2
Flags: W
LayerCount: 2
Fore
SplineSet
326 504 m 1,0,1
 326 511 326 511 330.5 514.5 c 128,-1,2
 335 518 335 518 340.5 518 c 128,-1,3
 346 518 346 518 350.5 514.5 c 128,-1,4
 355 511 355 511 355 504 c 2,5,-1
 355 75 l 2,6,7
 355 68 355 68 350.5 64.5 c 128,-1,8
 346 61 346 61 340.5 61 c 128,-1,9
 335 61 335 61 330.5 64.5 c 128,-1,10
 326 68 326 68 326 75 c 2,11,-1
 326 164 l 1,12,13
 305 129 305 129 271.5 103 c 128,-1,14
 238 77 238 77 201.5 67 c 128,-1,15
 165 57 165 57 129 68 c 128,-1,16
 93 79 93 79 66 118 c 0,17,18
 38 159 38 159 27 207 c 128,-1,19
 16 255 16 255 15.5 305.5 c 128,-1,20
 15 356 15 356 20 406.5 c 128,-1,21
 25 457 25 457 28 504 c 0,22,23
 28 511 28 511 33 514.5 c 128,-1,24
 38 518 38 518 43.5 518 c 128,-1,25
 49 518 49 518 53.5 514.5 c 128,-1,26
 58 511 58 511 57 504 c 0,27,28
 53 444 53 444 48 385 c 128,-1,29
 43 326 43 326 50 266 c 0,30,31
 52 247 52 247 55.5 224.5 c 128,-1,32
 59 202 59 202 66 180.5 c 128,-1,33
 73 159 73 159 84.5 140.5 c 128,-1,34
 96 122 96 122 114 111 c 0,35,36
 148 91 148 91 184 95 c 128,-1,37
 220 99 220 99 249.5 119 c 128,-1,38
 279 139 279 139 299 171 c 128,-1,39
 319 203 319 203 322 239 c 0,40,41
 323 243 323 243 326 247 c 2,42,-1
 326 504 l 1,43,-1
 326 504 l 1,0,1
EndSplineSet
Validated: 37
EndChar

StartChar: v
Encoding: 118 118 63
Width: 373
GlyphClass: 2
Flags: W
LayerCount: 2
Fore
SplineSet
332 503 m 0,0,1
 332 510 332 510 336.5 513.5 c 128,-1,2
 341 517 341 517 346.5 517 c 128,-1,3
 352 517 352 517 356.5 513.5 c 128,-1,4
 361 510 361 510 361 503 c 0,5,6
 360 456 360 456 355 407 c 128,-1,7
 350 358 350 358 339 310 c 128,-1,8
 328 262 328 262 309 217 c 128,-1,9
 290 172 290 172 261 134 c 0,10,11
 252 123 252 123 239.5 107.5 c 128,-1,12
 227 92 227 92 211.5 80.5 c 128,-1,13
 196 69 196 69 179 64.5 c 128,-1,14
 162 60 162 60 145 71 c 0,15,16
 119 87 119 87 99 117.5 c 128,-1,17
 79 148 79 148 64.5 186 c 128,-1,18
 50 224 50 224 40 267.5 c 128,-1,19
 30 311 30 311 24 353.5 c 128,-1,20
 18 396 18 396 15.5 433.5 c 128,-1,21
 13 471 13 471 12 499 c 0,22,23
 12 506 12 506 16.5 509.5 c 128,-1,24
 21 513 21 513 26.5 513 c 128,-1,25
 32 513 32 513 36.5 509.5 c 128,-1,26
 41 506 41 506 41 499 c 0,27,28
 42 456 42 456 47 407 c 128,-1,29
 52 358 52 358 62.5 308.5 c 128,-1,30
 73 259 73 259 89.5 213 c 128,-1,31
 106 167 106 167 129 130 c 0,32,33
 147 101 147 101 167 100 c 128,-1,34
 187 99 187 99 205 113.5 c 128,-1,35
 223 128 223 128 238 151.5 c 128,-1,36
 253 175 253 175 263 194 c 0,37,38
 299 267 299 267 314.5 344.5 c 128,-1,39
 330 422 330 422 332 503 c 0,0,1
EndSplineSet
Validated: 33
EndChar

StartChar: w
Encoding: 119 119 64
Width: 549
GlyphClass: 2
Flags: W
LayerCount: 2
Fore
SplineSet
508 502 m 0,0,1
 508 509 508 509 512.5 512.5 c 128,-1,2
 517 516 517 516 522.5 516 c 128,-1,3
 528 516 528 516 532.5 512.5 c 128,-1,4
 537 509 537 509 537 502 c 0,5,6
 537 488 537 488 533.5 446 c 128,-1,7
 530 404 530 404 522.5 350.5 c 128,-1,8
 515 297 515 297 502 240.5 c 128,-1,9
 489 184 489 184 470 140.5 c 128,-1,10
 451 97 451 97 424.5 75.5 c 128,-1,11
 398 54 398 54 364 70 c 0,12,13
 344 79 344 79 331.5 102.5 c 128,-1,14
 319 126 319 126 310.5 154.5 c 128,-1,15
 302 183 302 183 297 211 c 128,-1,16
 292 239 292 239 289 256 c 0,17,18
 285 279 285 279 281 301 c 128,-1,19
 277 323 277 323 274 346 c 1,20,21
 266 293 266 293 253 237 c 128,-1,22
 240 181 240 181 220.5 138.5 c 128,-1,23
 201 96 201 96 175.5 75 c 128,-1,24
 150 54 150 54 116 70 c 0,25,26
 93 81 93 81 76 111 c 128,-1,27
 59 141 59 141 47.5 181.5 c 128,-1,28
 36 222 36 222 29 268.5 c 128,-1,29
 22 315 22 315 18 359 c 128,-1,30
 14 403 14 403 12.5 440 c 128,-1,31
 11 477 11 477 11 498 c 0,32,33
 11 505 11 505 15.5 508.5 c 128,-1,34
 20 512 20 512 25.5 512 c 128,-1,35
 31 512 31 512 36 508.5 c 128,-1,36
 41 505 41 505 41 498 c 0,37,38
 41 454 41 454 44.5 406 c 128,-1,39
 48 358 48 358 55.5 309.5 c 128,-1,40
 63 261 63 261 75.5 214.5 c 128,-1,41
 88 168 88 168 108 129 c 0,42,43
 123 99 123 99 138 100 c 128,-1,44
 153 101 153 101 167 117.5 c 128,-1,45
 181 134 181 134 192 158 c 128,-1,46
 203 182 203 182 209 199 c 0,47,48
 235 271 235 271 246 344.5 c 128,-1,49
 257 418 257 418 259 493 c 2,50,-1
 259 498 l 2,51,52
 259 500 259 500 260 501 c 2,53,-1
 260 502 l 2,54,55
 260 509 260 509 264.5 512.5 c 128,-1,56
 269 516 269 516 274.5 516 c 128,-1,57
 280 516 280 516 284.5 512.5 c 128,-1,58
 289 509 289 509 289 502 c 2,59,-1
 289 491 l 2,60,61
 290 448 290 448 293.5 400.5 c 128,-1,62
 297 353 297 353 304.5 305.5 c 128,-1,63
 312 258 312 258 324.5 213 c 128,-1,64
 337 168 337 168 356 129 c 0,65,66
 371 99 371 99 386 100 c 128,-1,67
 401 101 401 101 415 117.5 c 128,-1,68
 429 134 429 134 440 158 c 128,-1,69
 451 182 451 182 457 199 c 0,70,71
 484 272 484 272 495 348 c 128,-1,72
 506 424 506 424 508 502 c 0,0,1
EndSplineSet
Validated: 33
EndChar

StartChar: x
Encoding: 120 120 65
Width: 381
GlyphClass: 2
Flags: W
LayerCount: 2
Fore
SplineSet
335 507 m 0,0,1
 339 513 339 513 345 514 c 128,-1,2
 351 515 351 515 355.5 512 c 128,-1,3
 360 509 360 509 362.5 503.5 c 128,-1,4
 365 498 365 498 361 492 c 0,5,6
 319 428 319 428 281 362 c 128,-1,7
 243 296 243 296 204 230 c 1,8,9
 227 194 227 194 250.5 156.5 c 128,-1,10
 274 119 274 119 296 81 c 0,11,12
 300 75 300 75 297.5 69.5 c 128,-1,13
 295 64 295 64 290.5 61 c 128,-1,14
 286 58 286 58 280 59 c 128,-1,15
 274 60 274 60 270 67 c 0,16,17
 229 134 229 134 186 202 c 1,18,19
 165 167 165 167 143 133.5 c 128,-1,20
 121 100 121 100 97 67 c 0,21,22
 93 61 93 61 87 60.5 c 128,-1,23
 81 60 81 60 76.5 63 c 128,-1,24
 72 66 72 66 70 71 c 128,-1,25
 68 76 68 76 72 82 c 0,26,27
 98 119 98 119 121.5 156 c 128,-1,28
 145 193 145 193 168 230 c 1,29,30
 127 296 127 296 87 360 c 128,-1,31
 47 424 47 424 12 493 c 0,32,33
 9 499 9 499 11 505 c 128,-1,34
 13 511 13 511 18 514 c 128,-1,35
 23 517 23 517 29 516 c 128,-1,36
 35 515 35 515 38 508 c 0,37,38
 71 443 71 443 109 381.5 c 128,-1,39
 147 320 147 320 185 260 c 1,40,41
 223 322 223 322 259.5 384 c 128,-1,42
 296 446 296 446 335 507 c 0,0,1
EndSplineSet
Validated: 1
EndChar

StartChar: y
Encoding: 121 121 66
Width: 372
GlyphClass: 2
Flags: W
LayerCount: 2
Fore
SplineSet
327 494 m 0,0,1
 330 500 330 500 335.5 502 c 128,-1,2
 341 504 341 504 346 502.5 c 128,-1,3
 351 501 351 501 354.5 496.5 c 128,-1,4
 358 492 358 492 355 486 c 0,5,6
 313 381 313 381 272 277.5 c 128,-1,7
 231 174 231 174 189 69 c 0,8,9
 186 63 186 63 180.5 61 c 128,-1,10
 175 59 175 59 169.5 60.5 c 128,-1,11
 164 62 164 62 160.5 66.5 c 128,-1,12
 157 71 157 71 160 77 c 0,13,14
 175 114 175 114 189.5 150.5 c 128,-1,15
 204 187 204 187 219 224 c 1,16,17
 167 290 167 290 116 354 c 128,-1,18
 65 418 65 418 13 484 c 0,19,20
 9 490 9 490 10 496 c 128,-1,21
 11 502 11 502 15 506 c 128,-1,22
 19 510 19 510 24 510.5 c 128,-1,23
 29 511 29 511 34 505 c 0,24,25
 84 442 84 442 133 380 c 128,-1,26
 182 318 182 318 231 255 c 1,27,28
 255 315 255 315 279 374.5 c 128,-1,29
 303 434 303 434 327 494 c 0,0,1
EndSplineSet
Validated: 1
EndChar

StartChar: z
Encoding: 122 122 67
Width: 332
GlyphClass: 2
Flags: W
LayerCount: 2
Fore
SplineSet
306 94 m 1,0,1
 313 94 313 94 317 89 c 128,-1,2
 321 84 321 84 321 78.5 c 128,-1,3
 321 73 321 73 317 68 c 128,-1,4
 313 63 313 63 306 63 c 2,5,-1
 30 63 l 2,6,7
 22 63 22 63 17 71 c 128,-1,8
 12 79 12 79 17 86 c 0,9,10
 87 183 87 183 146.5 284.5 c 128,-1,11
 206 386 206 386 270 486 c 1,12,-1
 33 486 l 2,13,14
 25 486 25 486 21.5 491 c 128,-1,15
 18 496 18 496 18 501.5 c 128,-1,16
 18 507 18 507 21.5 512 c 128,-1,17
 25 517 25 517 33 517 c 2,18,-1
 297 517 l 2,19,20
 305 517 305 517 310 509.5 c 128,-1,21
 315 502 315 502 310 494 c 0,22,23
 246 395 246 395 186.5 293 c 128,-1,24
 127 191 127 191 59 94 c 1,25,-1
 306 94 l 1,26,-1
 306 94 l 1,0,1
EndSplineSet
Validated: 5
EndChar
